<?xml version='1.0' encoding='utf-8'?>
<svg width="115.253871mm" height="119.38185mm" viewBox="-18.903705 -28.444953 38.417957 39.79395" version="1.1" xmlns="http://www.w3.org/2000/svg">
  <g transform="scale(1,-1)" stroke-linecap="round">
    <g fill="none" stroke="rgb(0,0,0)" stroke-width="0.06666666666666667">
      <path d="M -3.529494,-9.620961 A 24.750000000235943,13.102941176595499 -180.0 0,0 3.856366,-7.521279" />
      <path d="M -2.298568,-3.668569 A 22.750000000235943,12.044117647183734 -180.0 0,0 4.490456,-1.738559" />
      <path d="M -3.529494,-9.620961 A 0.25,0.13235294117647062 -180.0 0,0 -3.822035,-9.626769" />
      <path d="M 3.864657,-7.519726 A 0.25,0.1323529411764706 180.0 0,0 3.856366,-7.521279" />
      <line x1="-3.822035" y1="-9.626769" x2="-15.092381" y2="-5.649" />
      <path d="M 6.893052,-5.556433 A 4.75000000004467,2.51470588237659 180.0 0,0 3.864657,-7.519726" />
      <path d="M -15.092381,-5.649 A 0.25,0.1323529411764706 180.0 0,0 -15.200644,-5.559524" />
      <path d="M 7.293883,-4.212478 A 9.749999999732161,5.161764705740557 -180.0 0,0 11.108327,-1.412658" />
      <path d="M 14.509134,0.615071 A 4.749999999864305,2.5147058822811026 180.0 0,0 11.108327,-1.412658" />
      <path d="M -2.298568,-3.668569 A 2.25,1.1911764705882355 -180.0 0,0 -4.931435,-3.720843" />
      <path d="M -2.298568,3.797043 A 22.750000000235943,12.044117647183734 -180.0 0,0 4.490456,5.727053" />
      <path d="M 4.565074,-1.724576 A 2.25,1.1911764705882353 180.0 0,0 4.490456,-1.738559" />
      <line x1="-4.931435" y1="-3.720843" x2="-16.201781" y2="0.256926" />
      <path d="M 8.950691,1.580233 A 6.75000000004467,3.5735294117883547 180.0 0,0 8.868469,1.064983" />
      <path d="M 8.868469,1.064983 A 6.75000000004467,3.5735294117883547 180.0 0,0 4.565074,-1.724576" />
      <path d="M -16.201781,0.256926 A 2.25,1.1911764705882353 180.0 0,0 -17.176155,1.06221" />
      <path d="M -17.176155,1.06221 A 2.25,1.1911764705882353 180.0 0,0 -17.203705,1.248045" />
      <path d="M 8.950691,1.580233 A 7.749999999732161,4.102941176328792 -180.0 0,0 8.998464,1.76862" />
      <path d="M 8.998464,1.76862 A 7.749999999732161,4.102941176328792 -180.0 0,0 12.014869,4.415461" />
      <path d="M 11.108327,-1.412658 L 12.014869,4.415461" />
      <path d="M 16.544073,7.498148 A 6.749999999864305,3.5735294116928675 180.0 0,0 16.48464,7.236789" />
      <path d="M 16.48464,7.236789 A 6.749999999864305,3.5735294116928675 180.0 0,0 12.014869,4.415461" />
      <line x1="17.684353" y1="14.717796" x2="16.544073" y2="7.498148" />
      <path d="M 17.814251,15.441106 A 7.2500000000047145,3.838235294120143 -180.0 0,0 17.725401,14.842044" />
      <path d="M 17.725401,14.842044 A 7.2500000000047145,3.838235294120143 -180.0 0,0 17.684353,14.717796" />
      <path d="M 3.120189,9.079137 A 3.75,1.9852941176470589 -1.874520200032439e-15 0,1 3.75,10.18038" />
      <path d="M 3.75,10.18038 A 3.75,1.9852941176470589 -1.874520200032439e-15 1,1 -3.75,10.18038" />
      <path d="M -3.75,10.18038 A 3.75,1.9852941176470589 -1.874520200032439e-15 0,1 3.120189,9.079137" />
      <path d="M 12.329034,18.858833 A 1.750000000073444,0.9264705882741762 -1.8745202000324387e-15 0,1 9.822001,19.659801" />
      <path d="M 9.822001,19.659801 A 0.25,0.1323529411764706 -1.874520200032439e-15 0,1 9.807461,19.655784" />
      <path d="M 12.327575,18.838893 A 0.25,0.13235294117647062 4.686300500081098e-16 0,1 12.329203,18.853972" />
      <path d="M 12.329203,18.853972 A 0.25,0.13235294117647062 4.686300500081098e-16 0,1 12.329034,18.858833" />
      <line x1="5.460447" y1="14.581581" x2="5.460447" y2="18.357218" />
      <line x1="9.807461" y1="19.655784" x2="5.460447" y2="18.357218" />
      <line x1="11.760249" y1="16.144587" x2="11.760249" y2="16.219654" />
      <line x1="12.327575" y1="18.838893" x2="11.760249" y2="16.219654" />
      <path d="M 5.460447,18.357218 A 1.7500000001021645,0.9264705882893812 0.0 0,1 4.466377,17.521641" />
      <path d="M 4.466377,17.521641 A 1.7500000001021645,0.9264705882893812 0.0 0,1 4.525849,17.282167" />
      <path d="M 10.444042,15.284371 A 1.7499999997380045,0.9264705880965907 9.372601000162195e-16 0,1 11.761686,16.182121" />
      <path d="M 11.761686,16.182121 A 1.7499999997380045,0.9264705880965907 9.372601000162195e-16 0,1 11.760249,16.219654" />
      <line x1="4.826429" y1="15.123532" x2="4.826429" y2="15.192312" />
      <line x1="4.525849" y1="17.282167" x2="4.826429" y2="15.192312" />
      <line x1="10.444042" y1="15.284371" x2="6.706327" y2="14.586844" />
      <path d="M 4.826429,15.192312 A 1.249999999961792,0.6617647058621251 1.874520200032439e-15 0,1 4.82474,15.157922" />
      <path d="M 4.82474,15.157922 A 1.249999999961792,0.6617647058621251 1.874520200032439e-15 0,1 6.706327,14.586844" />
      <path d="M -2.298568,3.797043 A 2.25,1.1911764705882355 -180.0 0,0 -4.931435,3.744769" />
      <path d="M 4.565074,5.741036 A 2.25,1.1911764705882353 180.0 0,0 4.490456,5.727053" />
      <line x1="-4.931435" y1="3.744769" x2="-5.242241" y2="3.854465" />
      <path d="M 3.856366,6.731253 A 24.750000000235943,13.102941176595499 1.8745202000324387e-15 0,1 -5.242241,3.854465" />
      <path d="M 3.856366,6.731253 A 0.25,0.1323529411764706 -3.749040400064878e-15 0,1 3.864657,6.732806" />
      <path d="M 3.864657,6.732806 A 4.75000000004467,2.51470588237659 -1.1129963687692606e-15 0,1 6.951167,9.08826" />
      <path d="M 6.951167,9.08826 A 4.75000000004467,2.51470588237659 -1.1129963687692606e-15 0,1 6.951085,9.10304" />
      <path d="M 11.108327,12.839874 A 9.749999999732161,5.161764705740557 1.4058901500243295e-15 0,1 6.951085,9.10304" />
      <path d="M 11.108327,12.839874 A 4.749999999864305,2.5147058822811026 -4.686300500081098e-16 0,1 14.550987,15.051727" />
      <line x1="15.700878" y1="22.332223" x2="14.550987" y2="15.051727" />
      <path d="M 15.700878,22.332223 A 5.2500000000047145,2.7794117647083785 1.874520200032439e-15 0,1 15.814251,22.906718" />
      <path d="M 15.814251,22.906718 A 5.2500000000047145,2.7794117647083785 1.874520200032439e-15 0,1 7.719602,25.242766" />
      <line x1="7.719602" y1="25.242766" x2="-4.144682" y2="21.711378" />
      <path d="M -4.144682,21.711378 A 4.749999999873376,2.514705882285905 0.0 0,1 -6.951167,19.416804" />
      <path d="M -6.951167,19.416804 A 4.749999999873376,2.514705882285905 0.0 0,1 -6.941336,19.255095" />
      <path d="M -11.399487,15.616252 A 9.749999999739284,5.161764705744328 4.686300500081098e-16 0,1 -6.941336,19.255095" />
      <path d="M -11.399487,15.616252 A 4.750000000364175,2.51470588254574 -5.857875625101373e-17 0,1 -14.566718,13.284277" />
      <path d="M -14.566718,13.284277 A 0.25,0.1323529411764706 -1.8745202000324387e-15 0,1 -14.566748,13.282217" />
      <path d="M -14.566748,13.282217 A 0.25,0.1323529411764706 -1.8745202000324387e-15 0,1 -14.565493,13.26897" />
      <path d="M -15.85081,7.598666 A 24.749999999337966,13.1029411761201 -1.8745202000324387e-15 0,1 -14.441209,11.957504" />
      <path d="M -14.441209,11.957504 A 24.749999999337966,13.1029411761201 -1.8745202000324387e-15 0,1 -14.565493,13.26897" />
      <line x1="-15.85081" y1="7.598666" x2="-16.201781" y2="7.722538" />
      <path d="M -16.201781,7.722538 A 2.25,1.1911764705882353 180.0 0,0 -17.203705,8.713657" />
      <path d="M -17.203705,8.713657 A 2.25,1.1911764705882353 180.0 0,0 -17.135081,9.005603" />
      <path d="M -16.55545,13.162993 A 22.749999999337966,12.044117646708335 180.0 0,0 -16.441209,11.957504" />
      <path d="M -16.441209,11.957504 A 22.749999999337966,12.044117646708335 180.0 0,0 -17.135081,9.005603" />
      <path d="M -16.55545,13.162993 A 2.25,1.1911764705882353 180.0 0,0 -16.566748,13.282217" />
      <path d="M -16.566748,13.282217 A 2.25,1.1911764705882353 180.0 0,0 -16.566476,13.30075" />
      <path d="M -16.566476,13.30075 A 6.750000000364175,3.5735294119575047 180.0 0,0 -12.304654,16.567206" />
      <path d="M -8.948271,19.312146 A 7.749999999739284,4.102941176332563 -180.0 0,0 -12.304654,16.567206" />
      <path d="M -8.948271,19.312146 A 6.749999999873376,3.5735294116976695 180.0 0,0 -8.951167,19.416804" />
      <path d="M -8.951167,19.416804 A 6.749999999873376,3.5735294116976695 180.0 0,0 -5.052712,22.6558" />
      <line x1="6.690988" y1="26.151297" x2="-5.052712" y2="22.6558" />
      <path d="M 6.690988,26.151297 A 7.2500000000047145,3.838235294120143 -180.0 0,0 17.814251,22.906718" />
      <path d="M 17.814251,22.906718 A 7.2500000000047145,3.838235294120143 -180.0 0,0 17.684353,22.183408" />
      <line x1="17.684353" y1="22.183408" x2="16.544073" y2="14.96376" />
      <path d="M 16.544073,14.96376 A 6.749999999864305,3.5735294116928675 180.0 0,0 12.014869,11.881073" />
      <path d="M 8.950691,9.045845 A 7.749999999732161,4.102941176328792 -180.0 0,0 12.014869,11.881073" />
      <path d="M 8.950691,9.045845 A 6.75000000004467,3.5735294117883547 180.0 0,0 4.565074,5.741036" />
      <line x1="-15.85081" y1="7.598666" x2="-15.85081" y2="3.526514" />
      <line x1="-15.85081" y1="3.526514" x2="-5.242241" y2="-0.217687" />
      <line x1="-5.242241" y1="3.854465" x2="-5.242241" y2="-0.217687" />
      <line x1="8.950691" y1="1.580233" x2="8.950691" y2="9.045845" />
      <line x1="12.014869" y1="4.415461" x2="12.014869" y2="11.881073" />
      <line x1="17.684353" y1="14.717796" x2="17.684353" y2="22.183408" />
      <path d="M -8.268026,8.425372 A 1.7000000000214874,0.9000000000113757 -9.372601000162197e-16 0,1 -9.159045,8.460564" />
      <line x1="-10.140774" y1="8.359826" x2="-9.159045" y2="8.460564" />
      <path d="M -10.140774,8.359826 A 1.6999999999507778,0.8999999999739412 0.0 0,1 -10.38483,8.324634" />
      <path d="M -14.441209,9.74855 A 4.750000000364175,2.51470588254574 180.0 0,0 -11.399487,11.5441" />
      <path d="M -6.941336,15.182943 A 9.749999999739284,5.161764705744328 -180.0 0,0 -11.399487,11.5441" />
      <path d="M -14.441209,7.885352 A 24.749999999337966,13.1029411761201 180.0 0,0 -15.85081,3.526514" />
      <path d="M -6.941336,15.50636 A 4.749999999873376,2.514705882285905 180.0 0,0 -4.144682,17.639226" />
      <line x1="7.719602" y1="21.170614" x2="-4.144682" y2="17.639226" />
      <path d="M 7.719602,21.170614 A 5.2500000000047145,2.7794117647083785 -180.0 0,0 15.332202,19.997965" />
      <path d="M -8.512082,8.390181 A 1.7000000000214874,0.9000000000113757 -9.372601000162197e-16 0,1 -7.135563,9.273737" />
      <path d="M -7.135563,9.273737 A 1.7000000000214874,0.9000000000113757 -9.372601000162197e-16 0,1 -9.159045,10.157294" />
      <line x1="-8.512082" y1="8.390181" x2="-9.493811" y2="8.289443" />
      <line x1="-9.159045" y1="10.157294" x2="-10.140774" y2="10.056556" />
      <path d="M -10.140774,10.056556 A 1.6999999999507778,0.8999999999739412 0.0 0,1 -11.517293,9.172999" />
      <path d="M -11.517293,9.172999 A 1.6999999999507778,0.8999999999739412 0.0 0,1 -9.493811,8.289443" />
      <path d="M 2.274064,6.419066 A 1.7000000000041449,0.9000000000021945 2.8117803000486586e-15 0,1 0.521144,5.993663" />
      <path d="M -0.542862,15.542757 A 1.7000000000058806,0.9000000000031134 -9.372601000162195e-16 0,1 -3.901167,15.344652" />
      <path d="M -3.901167,15.344652 A 1.7000000000058806,0.9000000000031134 -9.372601000162195e-16 0,1 -3.859472,15.146547" />
      <line x1="-0.542862" y1="15.542757" x2="-0.322745" y2="15.02633" />
      <line x1="-3.859472" y1="15.146547" x2="-3.639355" y2="14.63012" />
      <path d="M -3.639355,14.63012 A 1.7000000000403572,0.9000000000213658 -9.372601000162195e-16 0,1 -0.28105,14.828225" />
      <path d="M -0.28105,14.828225 A 1.7000000000403572,0.9000000000213658 -9.372601000162195e-16 0,1 -0.322745,15.02633" />
      <line x1="9.437684" y1="12.065558" x2="8.512082" y2="11.97058" />
      <path d="M 8.512082,11.97058 A 1.6999999999859217,0.8999999999925468 9.372601000162195e-16 0,1 7.135563,11.087023" />
      <path d="M 7.135563,11.087023 A 1.6999999999859217,0.8999999999925468 9.372601000162195e-16 0,1 7.578417,10.48118" />
      <path d="M -0.818522,14.171556 A 1.7000000000058806,0.9000000000031134 -9.372601000162195e-16 0,1 -3.363695,14.30459" />
      <line x1="6.951085" y1="9.073481" x2="6.951085" y2="9.10304" />
      <line x1="7.719602" y1="21.170614" x2="7.719602" y2="25.242766" />
      <line x1="-4.144682" y1="17.639226" x2="-4.144682" y2="21.711378" />
      <line x1="-6.941336" y1="15.182943" x2="-6.941336" y2="19.255095" />
      <line x1="-11.399487" y1="11.5441" x2="-11.399487" y2="15.616252" />
      <line x1="-3.529494" y1="-9.620961" x2="-2.298568" y2="-3.668569" />
      <line x1="3.856366" y1="-7.521279" x2="4.490456" y2="-1.738559" />
      <line x1="-3.822035" y1="-9.626769" x2="-4.931435" y2="-3.720843" />
      <line x1="-2.298568" y1="-3.668569" x2="-2.298568" y2="3.797043" />
      <line x1="4.490456" y1="-1.738559" x2="4.490456" y2="5.727053" />
      <path d="M 3.864657,-7.519726 L 4.565074,-1.724576" />
      <line x1="-15.092381" y1="-5.649" x2="-16.201781" y2="0.256926" />
      <line x1="-9.463498" y1="8.292553" x2="-9.463498" y2="8.429323" />
      <line x1="12.329034" y1="18.84911" x2="12.329034" y2="18.858833" />
      <line x1="9.822001" y1="15.168286" x2="9.822001" y2="19.659801" />
      <line x1="9.807461" y1="15.165573" x2="9.807461" y2="19.655784" />
      <line x1="-4.931435" y1="-3.720843" x2="-4.931435" y2="3.744769" />
      <line x1="4.565074" y1="-1.724576" x2="4.565074" y2="5.741036" />
      <line x1="-16.201781" y1="0.256926" x2="-16.201781" y2="7.722538" />
      <line x1="-16.55545" y1="10.752016" x2="-16.55545" y2="13.162993" />
      <line x1="16.544073" y1="7.498148" x2="16.544073" y2="14.96376" />
      <line x1="-14.566718" y1="13.280158" x2="-14.566718" y2="13.284277" />
      <line x1="-9.159045" y1="8.460564" x2="-9.159045" y2="10.157294" />
      <line x1="-10.140774" y1="8.359826" x2="-10.140774" y2="10.056556" />
      <line x1="-0.542862" y1="14.34835" x2="-0.542862" y2="15.542757" />
      <line x1="-0.322745" y1="14.63012" x2="-0.322745" y2="15.02633" />
      <line x1="8.512082" y1="11.434298" x2="8.512082" y2="11.97058" />
      <path d="M 6.893052,-5.556433 L 8.868469,1.064983" />
      <line x1="-15.200644" y1="-5.559524" x2="-17.176155" y2="1.06221" />
      <path d="M 14.509134,0.615071 L 16.48464,7.236789" />
      <path d="M 17.679899,14.689591 L 17.725401,14.842044" />
      <line x1="-17.203705" y1="8.713657" x2="-17.203705" y2="1.248045" />
      <line x1="-16.566748" y1="13.282217" x2="-16.566748" y2="10.693966" />
      <line x1="17.814251" y1="22.906718" x2="17.814251" y2="15.441106" />
      <line x1="-8.951167" y1="19.416804" x2="-8.951167" y2="19.302984" />
      <line x1="-14.441209" y1="11.957504" x2="-14.441209" y2="7.885352" />
    </g>
  </g>
</svg>