<?xml version='1.0' encoding='utf-8'?>
<svg width="115.593075mm" height="118.982709mm" viewBox="-18.955771 -28.281971 38.531025 39.660903" version="1.1" xmlns="http://www.w3.org/2000/svg">
  <g transform="scale(1,-1)" stroke-linecap="round">
    <g fill="none" stroke="rgb(0,0,0)" stroke-width="0.06666666666666667">
      <path d="M -3.444048,-9.650633 A 24.750000001398988,13.102941177211228 180.0 0,0 2.516963,-7.816608" />
      <path d="M 2.516963,-7.816608 L 3.053247,-2.058019" />
      <path d="M -2.208065,-3.696144 A 22.750000001398988,12.044117647799464 180.0 0,0 3.053247,-2.058019" />
      <path d="M -3.737221,-9.656703 A 0.25,0.1323529411764706 -1.874520200032439e-15 0,1 -3.444048,-9.650633" />
      <path d="M 6.554229,-5.901545 A 4.750000000055035,2.5147058823820774 -180.0 0,0 2.516963,-7.816608" />
      <line x1="-3.737221" y1="-9.656703" x2="-15.144446" y2="-5.630624" />
      <path d="M 6.554229,-5.901545 A 0.25,0.1323529411764706 9.372601000162195e-16 0,1 6.557921,-5.891639" />
      <path d="M -15.25271,-5.541148 A 0.25,0.1323529411764706 -9.372601000162195e-16 0,1 -15.144446,-5.630624" />
      <path d="M 7.108757,-4.045286 A 9.749999999596806,5.161764705668897 180.0 0,0 12.298091,-1.04984" />
      <path d="M 12.298091,-1.04984 A 0.25,0.1323529411764706 -1.874520200032439e-15 0,1 12.323896,-1.042689" />
      <path d="M 14.571613,0.721259 A 4.750000000294252,2.5147058825087214 -180.0 0,0 12.323896,-1.042689" />
      <path d="M 8.500204,0.640939 A 6.750000000055035,3.5735294117938423 -180.0 0,0 3.053247,-2.058019" />
      <line x1="3.053247" y1="-2.058019" x2="3.053247" y2="5.407593" />
      <path d="M -2.208065,3.769469 A 22.750000001398988,12.044117647799464 180.0 0,0 3.053247,5.407593" />
      <path d="M -4.846621,-3.750778 A 2.25,1.1911764705882353 -1.874520200032439e-15 0,1 -2.208065,-3.696144" />
      <line x1="-4.846621" y1="-3.750778" x2="-16.253846" y2="0.275302" />
      <path d="M 8.500204,0.640939 A 2.25,1.1911764705882353 9.372601000162195e-16 0,1 8.533432,0.730095" />
      <path d="M 8.533432,0.730095 A 2.25,1.1911764705882353 9.372601000162195e-16 0,1 8.560982,0.91593" />
      <path d="M -17.255771,1.266421 A 2.25,1.1911764705882353 -9.372601000162195e-16 0,1 -17.228221,1.080586" />
      <path d="M -17.228221,1.080586 A 2.25,1.1911764705882353 -9.372601000162195e-16 0,1 -16.253846,0.275302" />
      <path d="M 8.560982,1.134563 A 7.749999999596806,4.102941176257133 180.0 0,0 8.653464,1.672301" />
      <path d="M 8.653464,1.672301 A 7.749999999596806,4.102941176257133 180.0 0,0 13.120753,4.771977" />
      <path d="M 13.120753,4.771977 A 2.25,1.1911764705882353 -1.874520200032439e-15 0,1 13.353002,4.836333" />
      <path d="M 16.617355,7.683843 A 6.750000000294252,3.5735294119204863 -180.0 0,0 16.547118,7.342974" />
      <path d="M 16.547118,7.342974 A 6.750000000294252,3.5735294119204863 -180.0 0,0 13.353002,4.836333" />
      <line x1="16.617355" y1="7.683843" x2="17.867572" y2="15.673226" />
      <path d="M 17.867572,15.673226 A 2.25,1.1911764705882353 -3.2804103500567683e-15 0,1 17.875254,15.771572" />
      <path d="M 3.220035,9.043897 A 3.87,2.0488235294117647 -1.874520200032439e-15 0,1 3.87,10.18038" />
      <path d="M 3.87,10.18038 A 3.87,2.0488235294117647 -1.874520200032439e-15 1,1 -3.87,10.18038" />
      <path d="M -3.87,10.18038 A 3.87,2.0488235294117647 -1.874520200032439e-15 0,1 3.220035,9.043897" />
      <path d="M 6.814803,14.473992 A 0.25,0.1323529411764706 1.8745202000324387e-15 0,1 6.825493,14.476008" />
      <line x1="4.779025" y1="15.222988" x2="4.779025" y2="15.283125" />
      <path d="M 4.779025,15.283125 A 1.5500000000211183,0.8205882353052979 1.8745202000324387e-15 0,1 4.777984,15.253057" />
      <path d="M 4.777984,15.253057 A 1.5500000000211183,0.8205882353052979 1.8745202000324387e-15 0,1 6.814803,14.473992" />
      <line x1="10.733218" y1="15.266261" x2="6.825493" y2="14.476008" />
      <line x1="4.4235" y1="17.382658" x2="4.779025" y2="15.283125" />
      <path d="M 10.733218,15.266261 A 1.5100000000779166,0.7994117647471323 9.372601000162193e-16 0,1 12.113924,16.026504" />
      <path d="M 5.220848,18.303012 A 1.879999999943403,0.9952941176170957 -4.686300500081097e-16 0,1 4.41342,17.48559" />
      <path d="M 4.41342,17.48559 A 1.879999999943403,0.9952941176170957 -4.686300500081097e-16 0,1 4.4235,17.382658" />
      <line x1="12.617711" y1="18.6989" x2="12.113924" y2="16.026504" />
      <path d="M 5.246822,18.311372 A 0.25,0.13235294117647062 -1.874520200032439e-15 0,1 5.220848,18.303012" />
      <path d="M 12.617711,18.6989 A 0.25,0.1323529411764706 0.0 0,1 12.618947,18.712044" />
      <path d="M 12.618947,18.712044 A 0.25,0.1323529411764706 0.0 0,1 12.615129,18.735087" />
      <line x1="10.11133" y1="19.67007" x2="5.246822" y2="18.311372" />
      <path d="M 12.615129,18.735087 A 2.190000000037301,1.1594117647256301 -9.372601000162195e-16 0,1 10.198271,19.684424" />
      <path d="M 10.198271,19.684424 A 0.25,0.1323529411764706 -9.372601000162195e-16 0,1 10.11133,19.67007" />
      <path d="M 8.500204,8.106551 A 6.750000000055035,3.5735294117938423 -180.0 0,0 3.053247,5.407593" />
      <path d="M -4.846621,3.714835 A 2.25,1.1911764705882353 -1.874520200032439e-15 0,1 -2.208065,3.769469" />
      <path d="M 8.500204,8.106551 A 2.25,1.1911764705882353 9.372601000162195e-16 0,1 8.560982,8.381542" />
      <path d="M 8.560982,8.381542 A 2.25,1.1911764705882353 9.372601000162195e-16 0,1 8.560439,8.407703" />
      <path d="M 8.560439,8.407703 A 7.749999999596806,4.102941176257133 180.0 0,0 8.55857,8.497816" />
      <path d="M 8.55857,8.497816 A 7.749999999596806,4.102941176257133 180.0 0,0 13.120753,12.237589" />
      <path d="M 13.120753,12.237589 A 2.25,1.1911764705882353 -1.874520200032439e-15 0,1 13.353002,12.301945" />
      <path d="M 16.617355,15.149455 A 6.750000000294252,3.5735294119204863 -180.0 0,0 13.353002,12.301945" />
      <line x1="16.617355" y1="15.149455" x2="17.867572" y2="23.138838" />
      <path d="M 17.867572,23.138838 A 2.25,1.1911764705882353 -3.2804103500567683e-15 0,1 17.875254,23.237184" />
      <path d="M 17.875254,23.237184 A 2.25,1.1911764705882353 -3.2804103500567683e-15 0,1 17.835814,23.459236" />
      <path d="M 8.680058,26.428003 A 7.2499999999700675,3.838235294101801 180.0 0,0 17.835814,23.459236" />
      <path d="M 8.680058,26.428003 A 2.25,1.1911764705882355 -3.749040400064878e-15 0,1 8.265586,26.33942" />
      <line x1="-4.695505" y1="22.739298" x2="8.265586" y2="26.33942" />
      <path d="M -8.615163,19.85364 A 6.749999999909736,3.57352941171692 180.0 0,0 -4.695505,22.739298" />
      <path d="M -8.615163,19.85364 A 2.25,1.1911764705882355 -2.3431502500405484e-15 0,1 -8.625108,19.781023" />
      <path d="M -8.625108,19.781023 A 7.75000000022616,4.102941176590321 -180.0 0,0 -13.489674,16.143113" />
      <path d="M -13.489674,16.143113 A 2.25,1.1911764705882353 -1.874520200032439e-15 0,1 -14.002757,15.990565" />
      <path d="M -16.504349,12.262784 A 6.7499999999461755,3.5735294117362106 -180.0 0,0 -16.706288,13.13034" />
      <path d="M -16.706288,13.13034 A 6.7499999999461755,3.5735294117362106 -180.0 0,0 -14.002757,15.990565" />
      <path d="M -16.504349,12.262784 A 22.74999999943347,12.044117646758895 180.0 0,0 -16.497489,11.967041" />
      <path d="M -16.497489,11.967041 A 22.74999999943347,12.044117646758895 180.0 0,0 -17.187525,9.023183" />
      <path d="M -17.187525,9.023183 A 2.25,1.1911764705882353 -9.372601000162195e-16 0,1 -17.255771,8.732033" />
      <path d="M -17.255771,8.732033 A 2.25,1.1911764705882353 -9.372601000162195e-16 0,1 -16.253846,7.740914" />
      <line x1="-15.901524" y1="7.616565" x2="-16.253846" y2="7.740914" />
      <path d="M -15.901524,7.616565 A 24.74999999943347,13.102941176170662 -1.4058901500243293e-15 0,1 -14.497489,11.967041" />
      <path d="M -14.497489,11.967041 A 24.74999999943347,13.102941176170662 -1.4058901500243293e-15 0,1 -14.512208,12.418859" />
      <path d="M -12.803803,15.143091 A 4.7499999999461755,2.5147058823244457 9.372601000162195e-16 0,1 -14.706288,13.13034" />
      <path d="M -14.706288,13.13034 A 4.7499999999461755,2.5147058823244457 9.372601000162195e-16 0,1 -14.512208,12.418859" />
      <path d="M -12.746794,15.160041 A 0.25,0.1323529411764706 -1.874520200032439e-15 0,1 -12.803803,15.143091" />
      <path d="M -12.746794,15.160041 A 9.75000000022616,5.161764706002086 2.3431502500405484e-15 0,1 -6.626855,19.736766" />
      <path d="M -6.62575,19.744835 A 0.25,0.13235294117647062 -2.3431502500405484e-15 0,1 -6.626855,19.736766" />
      <path d="M -3.820566,21.786616 A 4.749999999909736,2.514705882305155 -2.3431502500405484e-15 0,1 -6.62575,19.744835" />
      <line x1="9.194789" y1="25.401811" x2="-3.820566" y2="21.786616" />
      <path d="M 9.240842,25.411653 A 0.25,0.13235294117647062 -3.749040400064878e-15 0,1 9.194789,25.401811" />
      <path d="M 15.870872,23.261857 A 5.2499999999700675,2.7794117646900363 -3.749040400064878e-15 0,1 9.240842,25.411653" />
      <path d="M 15.8744,23.226257 A 0.25,0.1323529411764706 -3.2804103500567683e-15 0,1 15.875254,23.237184" />
      <path d="M 15.875254,23.237184 A 0.25,0.1323529411764706 -3.2804103500567683e-15 0,1 15.870872,23.261857" />
      <line x1="15.8744" y1="23.226257" x2="14.622209" y2="15.224252" />
      <path d="M 12.323896,13.209843 A 4.750000000294252,2.5147058825087214 3.0460953250527136e-15 0,1 14.622209,15.224252" />
      <path d="M 12.298091,13.202692 A 0.25,0.1323529411764706 -1.874520200032439e-15 0,1 12.323896,13.209843" />
      <path d="M 12.298091,13.202692 A 9.749999999596806,5.161764705668897 -1.1715751250202742e-15 0,1 6.55857,8.497816" />
      <path d="M 6.55857,8.497816 A 9.749999999596806,5.161764705668897 -1.1715751250202742e-15 0,1 6.560921,8.384449" />
      <path d="M 6.554229,8.350987 A 0.25,0.1323529411764706 9.372601000162195e-16 0,1 6.560982,8.381542" />
      <path d="M 6.560982,8.381542 A 0.25,0.1323529411764706 9.372601000162195e-16 0,1 6.560921,8.384449" />
      <path d="M 2.516963,6.435924 A 4.750000000055035,2.5147058823820774 9.372601000162195e-16 0,1 6.554229,8.350987" />
      <path d="M 2.516963,6.435924 A 24.750000001398988,13.102941177211228 0.0 0,1 -5.151185,3.822328" />
      <line x1="-4.846621" y1="3.714835" x2="-5.151185" y2="3.822328" />
      <line x1="-15.901524" y1="7.616565" x2="-15.901524" y2="3.544413" />
      <line x1="-5.151185" y1="-0.249824" x2="-15.901524" y2="3.544413" />
      <line x1="-5.151185" y1="3.822328" x2="-5.151185" y2="-0.249824" />
      <line x1="-16.504349" y1="11.671299" x2="-16.504349" y2="12.262784" />
      <line x1="16.617355" y1="7.683843" x2="16.617355" y2="15.149455" />
      <line x1="-10.310284" y1="8.24173" x2="-9.332205" y2="8.351971" />
      <path d="M -8.410671,8.320065 A 1.6999999999806397,0.8999999999897507 -1.8745202000324394e-15 0,1 -9.332205,8.351971" />
      <path d="M -10.310284,8.24173 A 1.7000000000513449,0.9000000000271826 1.874520200032439e-15 0,1 -10.523825,8.209823" />
      <path d="M -14.497489,7.894889 A 24.74999999943347,13.102941176170662 180.0 0,0 -15.901524,3.544413" />
      <path d="M -14.497489,9.795572 A 4.7499999999461755,2.5147058823244457 -180.0 0,0 -12.803803,11.070939" />
      <path d="M -12.746794,11.087889 A 0.25,0.1323529411764706 -1.874520200032439e-15 0,1 -12.803803,11.070939" />
      <path d="M -6.626855,15.664614 A 9.75000000022616,5.161764706002086 -180.0 0,0 -12.746794,11.087889" />
      <path d="M -6.62575,15.672683 A 0.25,0.13235294117647062 -2.3431502500405484e-15 0,1 -6.626855,15.664614" />
      <path d="M -6.62575,15.672683 A 4.749999999909736,2.514705882305155 180.0 0,0 -3.820566,17.714464" />
      <line x1="-3.820566" y1="17.714464" x2="9.194789" y2="21.329659" />
      <path d="M 9.240842,21.339501 A 0.25,0.13235294117647062 -3.749040400064878e-15 0,1 9.194789,21.329659" />
      <path d="M 9.240842,21.339501 A 5.2499999999700675,2.7794117646900363 180.0 0,0 15.363481,19.961282" />
      <path d="M 1.817314,6.278416 A 1.700000000016696,0.9000000000088391 0.0 0,1 0.367647,5.907726" />
      <line x1="-8.624212" y1="8.288158" x2="-9.602291" y2="8.177917" />
      <path d="M -8.624212,8.288158 A 1.6999999999806397,0.8999999999897507 -1.8745202000324394e-15 0,1 -7.278209,9.16843" />
      <path d="M -7.278209,9.16843 A 1.6999999999806397,0.8999999999897507 -1.8745202000324394e-15 0,1 -9.332205,10.048701" />
      <path d="M -10.310284,9.93846 A 1.7000000000513449,0.9000000000271826 1.874520200032439e-15 0,1 -11.656288,9.058188" />
      <path d="M -11.656288,9.058188 A 1.7000000000513449,0.9000000000271826 1.874520200032439e-15 0,1 -9.602291,8.177917" />
      <line x1="-9.332205" y1="10.048701" x2="-10.310284" y2="9.93846" />
      <path d="M 8.547696,12.063978 A 1.7000000000155548,0.9000000000082349 0.0 0,1 7.201692,11.183706" />
      <path d="M 7.201692,11.183706 A 1.7000000000155548,0.9000000000082349 0.0 0,1 7.481029,10.689417" />
      <line x1="9.447884" y1="12.165439" x2="8.547696" y2="12.063978" />
      <line x1="-3.381498" y1="14.724445" x2="-3.570317" y2="15.244334" />
      <path d="M -0.231476,15.584207 A 1.6999999999816051,0.8999999999902617 1.874520200032439e-15 0,1 -3.600896,15.414271" />
      <path d="M -3.600896,15.414271 A 1.6999999999816051,0.8999999999902617 1.874520200032439e-15 0,1 -3.570317,15.244334" />
      <line x1="-0.042657" y1="15.064318" x2="-0.231476" y2="15.584207" />
      <path d="M -3.381498,14.724445 A 1.700000000016696,0.9000000000088391 0.0 0,1 -0.012078,14.894382" />
      <path d="M -0.012078,14.894382 A 1.700000000016696,0.9000000000088391 0.0 0,1 -0.042657,15.064318" />
      <path d="M -0.528226,14.248479 A 1.6999999999816051,0.8999999999902617 1.874520200032439e-15 0,1 -3.084748,14.363443" />
      <line x1="-3.820566" y1="17.714464" x2="-3.820566" y2="21.786616" />
      <path d="M -3.444048,-9.650633 L -2.208065,-3.696144" />
      <path d="M 6.554229,-5.901545 L 8.500204,0.640939" />
      <line x1="-2.208065" y1="-3.696144" x2="-2.208065" y2="3.769469" />
      <line x1="-3.737221" y1="-9.656703" x2="-4.846621" y2="-3.750778" />
      <line x1="-15.144446" y1="-5.630624" x2="-16.253846" y2="0.275302" />
      <line x1="12.298091" y1="-1.04984" x2="13.120753" y2="4.771977" />
      <line x1="12.323896" y1="-1.042689" x2="13.353002" y2="4.836333" />
      <line x1="-9.665378" y1="8.171464" x2="-9.665378" y2="8.314418" />
      <line x1="5.220848" y1="14.678761" x2="5.220848" y2="18.303012" />
      <line x1="5.246822" y1="14.665055" x2="5.246822" y2="18.311372" />
      <line x1="12.615129" y1="18.685202" x2="12.615129" y2="18.735087" />
      <line x1="10.11133" y1="15.140498" x2="10.11133" y2="19.67007" />
      <line x1="10.198271" y1="15.158079" x2="10.198271" y2="19.684424" />
      <line x1="8.500204" y1="0.640939" x2="8.500204" y2="8.106551" />
      <line x1="-4.846621" y1="-3.750778" x2="-4.846621" y2="3.714835" />
      <line x1="-16.253846" y1="0.275302" x2="-16.253846" y2="7.740914" />
      <line x1="13.120753" y1="4.771977" x2="13.120753" y2="12.237589" />
      <line x1="13.353002" y1="4.836333" x2="13.353002" y2="12.301945" />
      <line x1="17.867572" y1="15.673226" x2="17.867572" y2="23.138838" />
      <line x1="-12.803803" y1="11.070939" x2="-12.803803" y2="15.143091" />
      <line x1="-12.746794" y1="11.087889" x2="-12.746794" y2="15.160041" />
      <line x1="-6.626855" y1="15.664614" x2="-6.626855" y2="19.736766" />
      <line x1="-6.62575" y1="15.672683" x2="-6.62575" y2="19.744835" />
      <line x1="9.194789" y1="21.329659" x2="9.194789" y2="25.401811" />
      <line x1="9.240842" y1="21.339501" x2="9.240842" y2="25.411653" />
      <line x1="15.870872" y1="23.203707" x2="15.870872" y2="23.261857" />
      <line x1="6.560921" y1="8.378635" x2="6.560921" y2="8.384449" />
      <line x1="-9.332205" y1="8.351971" x2="-9.332205" y2="10.048701" />
      <line x1="-10.310284" y1="8.24173" x2="-10.310284" y2="9.93846" />
      <line x1="8.547696" y1="11.622302" x2="8.547696" y2="12.063978" />
      <line x1="-0.231476" y1="14.452135" x2="-0.231476" y2="15.584207" />
      <line x1="-0.042657" y1="14.724445" x2="-0.042657" y2="15.064318" />
      <line x1="6.557921" y1="-5.891639" x2="8.533432" y2="0.730095" />
      <line x1="-15.25271" y1="-5.541148" x2="-17.228221" y2="1.080586" />
      <path d="M 14.571613,0.721259 L 16.547118,7.342974" />
      <line x1="8.560982" y1="8.381542" x2="8.560982" y2="0.91593" />
      <line x1="-17.255771" y1="8.732033" x2="-17.255771" y2="1.266421" />
      <line x1="-16.706288" y1="13.13034" x2="-16.706288" y2="10.339004" />
      <line x1="17.875254" y1="23.237184" x2="17.875254" y2="15.771572" />
      <line x1="-14.497489" y1="11.967041" x2="-14.497489" y2="7.894889" />
      <line x1="6.55857" y1="8.497816" x2="6.55857" y2="8.363201" />
    </g>
  </g>
</svg>