  0
SECTION
  2
HEADER
  9
$ACADVER
  1
AC1027
  9
$ACADMAINTVER
 70
105
  9
$DWGCODEPAGE
  3
ANSI_1252
  9
$LASTSAVEDBY
  1
ezdxf
  9
$REQUIREDVERSIONS
160
0
  9
$INSBASE
 10
0.0
 20
0.0
 30
0.0
  9
$EXTMIN
 10
1e+20
 20
1e+20
 30
1e+20
  9
$EXTMAX
 10
-1e+20
 20
-1e+20
 30
-1e+20
  9
$LIMMIN
 10
0.0
 20
0.0
  9
$LIMMAX
 10
420.0
 20
297.0
  9
$ORTHOMODE
 70
0
  9
$REGENMODE
 70
1
  9
$FILLMODE
 70
1
  9
$QTEXTMODE
 70
0
  9
$MIRRTEXT
 70
1
  9
$LTSCALE
 40
1.0
  9
$ATTMODE
 70
1
  9
$TEXTSIZE
 40
2.5
  9
$TRACEWID
 40
1.0
  9
$TEXTSTYLE
  7
Standard
  9
$CLAYER
  8
0
  9
$CELTYPE
  6
ByLayer
  9
$CECOLOR
 62
256
  9
$CELTSCALE
 40
1.0
  9
$DISPSILH
 70
0
  9
$DIMSCALE
 40
1.0
  9
$DIMASZ
 40
2.5
  9
$DIMEXO
 40
0.625
  9
$DIMDLI
 40
3.75
  9
$DIMRND
 40
0.0
  9
$DIMDLE
 40
0.0
  9
$DIMEXE
 40
1.25
  9
$DIMTP
 40
0.0
  9
$DIMTM
 40
0.0
  9
$DIMTXT
 40
2.5
  9
$DIMCEN
 40
2.5
  9
$DIMTSZ
 40
0.0
  9
$DIMTOL
 70
0
  9
$DIMLIM
 70
0
  9
$DIMTIH
 70
0
  9
$DIMTOH
 70
0
  9
$DIMSE1
 70
0
  9
$DIMSE2
 70
0
  9
$DIMTAD
 70
1
  9
$DIMZIN
 70
8
  9
$DIMBLK
  1

  9
$DIMASO
 70
1
  9
$DIMSHO
 70
1
  9
$DIMPOST
  1

  9
$DIMAPOST
  1

  9
$DIMALT
 70
0
  9
$DIMALTD
 70
3
  9
$DIMALTF
 40
0.03937007874
  9
$DIMLFAC
 40
1.0
  9
$DIMTOFL
 70
1
  9
$DIMTVP
 40
0.0
  9
$DIMTIX
 70
0
  9
$DIMSOXD
 70
0
  9
$DIMSAH
 70
0
  9
$DIMBLK1
  1

  9
$DIMBLK2
  1

  9
$DIMSTYLE
  2
ISO-25
  9
$DIMCLRD
 70
0
  9
$DIMCLRE
 70
0
  9
$DIMCLRT
 70
0
  9
$DIMTFAC
 40
1.0
  9
$DIMGAP
 40
0.625
  9
$DIMJUST
 70
0
  9
$DIMSD1
 70
0
  9
$DIMSD2
 70
0
  9
$DIMTOLJ
 70
0
  9
$DIMTZIN
 70
8
  9
$DIMALTZ
 70
0
  9
$DIMALTTZ
 70
0
  9
$DIMUPT
 70
0
  9
$DIMDEC
 70
2
  9
$DIMTDEC
 70
2
  9
$DIMALTU
 70
2
  9
$DIMALTTD
 70
3
  9
$DIMTXSTY
  7
Standard
  9
$DIMAUNIT
 70
0
  9
$DIMADEC
 70
0
  9
$DIMALTRND
 40
0.0
  9
$DIMAZIN
 70
0
  9
$DIMDSEP
 70
44
  9
$DIMATFIT
 70
3
  9
$DIMFRAC
 70
0
  9
$DIMLDRBLK
  1

  9
$DIMLUNIT
 70
2
  9
$DIMLWD
 70
-2
  9
$DIMLWE
 70
-2
  9
$DIMTMOVE
 70
0
  9
$DIMFXL
 40
1.0
  9
$DIMFXLON
 70
0
  9
$DIMJOGANG
 40
0.785398163397
  9
$DIMTFILL
 70
0
  9
$DIMTFILLCLR
 70
0
  9
$DIMARCSYM
 70
0
  9
$DIMLTYPE
  6

  9
$DIMLTEX1
  6

  9
$DIMLTEX2
  6

  9
$DIMTXTDIRECTION
 70
0
  9
$LUNITS
 70
2
  9
$LUPREC
 70
4
  9
$SKETCHINC
 40
1.0
  9
$FILLETRAD
 40
10.0
  9
$AUNITS
 70
0
  9
$AUPREC
 70
2
  9
$MENU
  1
.
  9
$ELEVATION
 40
0.0
  9
$PELEVATION
 40
0.0
  9
$THICKNESS
 40
0.0
  9
$LIMCHECK
 70
0
  9
$CHAMFERA
 40
0.0
  9
$CHAMFERB
 40
0.0
  9
$CHAMFERC
 40
0.0
  9
$CHAMFERD
 40
0.0
  9
$SKPOLY
 70
0
  9
$TDCREATE
 40
2461297.609699074
  9
$TDUCREATE
 40
2458532.153996898
  9
$TDUPDATE
 40
2461297.609699074
  9
$TDUUPDATE
 40
2458532.1544311
  9
$TDINDWG
 40
0.0
  9
$TDUSRTIMER
 40
0.0
  9
$USRTIMER
 70
1
  9
$ANGBASE
 50
0.0
  9
$ANGDIR
 70
0
  9
$PDMODE
 70
0
  9
$PDSIZE
 40
0.0
  9
$PLINEWID
 40
0.0
  9
$SPLFRAME
 70
0
  9
$SPLINETYPE
 70
6
  9
$SPLINESEGS
 70
8
  9
$HANDSEED
  5
9A
  9
$SURFTAB1
 70
6
  9
$SURFTAB2
 70
6
  9
$SURFTYPE
 70
6
  9
$SURFU
 70
6
  9
$SURFV
 70
6
  9
$UCSBASE
  2

  9
$UCSNAME
  2

  9
$UCSORG
 10
0.0
 20
0.0
 30
0.0
  9
$UCSXDIR
 10
1.0
 20
0.0
 30
0.0
  9
$UCSYDIR
 10
0.0
 20
1.0
 30
0.0
  9
$UCSORTHOREF
  2

  9
$UCSORTHOVIEW
 70
0
  9
$UCSORGTOP
 10
0.0
 20
0.0
 30
0.0
  9
$UCSORGBOTTOM
 10
0.0
 20
0.0
 30
0.0
  9
$UCSORGLEFT
 10
0.0
 20
0.0
 30
0.0
  9
$UCSORGRIGHT
 10
0.0
 20
0.0
 30
0.0
  9
$UCSORGFRONT
 10
0.0
 20
0.0
 30
0.0
  9
$UCSORGBACK
 10
0.0
 20
0.0
 30
0.0
  9
$PUCSBASE
  2

  9
$PUCSNAME
  2

  9
$PUCSORG
 10
0.0
 20
0.0
 30
0.0
  9
$PUCSXDIR
 10
1.0
 20
0.0
 30
0.0
  9
$PUCSYDIR
 10
0.0
 20
1.0
 30
0.0
  9
$PUCSORTHOREF
  2

  9
$PUCSORTHOVIEW
 70
0
  9
$PUCSORGTOP
 10
0.0
 20
0.0
 30
0.0
  9
$PUCSORGBOTTOM
 10
0.0
 20
0.0
 30
0.0
  9
$PUCSORGLEFT
 10
0.0
 20
0.0
 30
0.0
  9
$PUCSORGRIGHT
 10
0.0
 20
0.0
 30
0.0
  9
$PUCSORGFRONT
 10
0.0
 20
0.0
 30
0.0
  9
$PUCSORGBACK
 10
0.0
 20
0.0
 30
0.0
  9
$USERI1
 70
0
  9
$USERI2
 70
0
  9
$USERI3
 70
0
  9
$USERI4
 70
0
  9
$USERI5
 70
0
  9
$USERR1
 40
0.0
  9
$USERR2
 40
0.0
  9
$USERR3
 40
0.0
  9
$USERR4
 40
0.0
  9
$USERR5
 40
0.0
  9
$WORLDVIEW
 70
1
  9
$SHADEDGE
 70
3
  9
$SHADEDIF
 70
70
  9
$TILEMODE
 70
1
  9
$MAXACTVP
 70
64
  9
$PINSBASE
 10
0.0
 20
0.0
 30
0.0
  9
$PLIMCHECK
 70
0
  9
$PEXTMIN
 10
1e+20
 20
1e+20
 30
1e+20
  9
$PEXTMAX
 10
-1e+20
 20
-1e+20
 30
-1e+20
  9
$PLIMMIN
 10
0.0
 20
0.0
  9
$PLIMMAX
 10
420.0
 20
297.0
  9
$UNITMODE
 70
0
  9
$VISRETAIN
 70
1
  9
$PLINEGEN
 70
0
  9
$PSLTSCALE
 70
1
  9
$TREEDEPTH
 70
3020
  9
$CMLSTYLE
  2
Standard
  9
$CMLJUST
 70
0
  9
$CMLSCALE
 40
20.0
  9
$PROXYGRAPHICS
 70
1
  9
$MEASUREMENT
 70
1
  9
$CELWEIGHT
370
-1
  9
$ENDCAPS
280
0
  9
$JOINSTYLE
280
0
  9
$LWDISPLAY
290
0
  9
$INSUNITS
 70
4
  9
$HYPERLINKBASE
  1

  9
$STYLESHEET
  1

  9
$XEDIT
290
1
  9
$CEPSNTYPE
380
0
  9
$PSTYLEMODE
290
1
  9
$FINGERPRINTGUID
  2
{9937E5CC-ECE8-4652-8DEA-94582DD51BBB}
  9
$VERSIONGUID
  2
{6D0742F7-3D7A-44F9-B825-F086F93BF928}
  9
$EXTNAMES
290
1
  9
$PSVPSCALE
 40
0.0
  9
$OLESTARTUP
290
0
  9
$SORTENTS
280
127
  9
$INDEXCTL
280
0
  9
$HIDETEXT
280
1
  9
$XCLIPFRAME
280
1
  9
$HALOGAP
280
0
  9
$OBSCOLOR
 70
257
  9
$OBSLTYPE
280
0
  9
$INTERSECTIONDISPLAY
280
0
  9
$INTERSECTIONCOLOR
 70
257
  9
$DIMASSOC
280
2
  9
$PROJECTNAME
  1

  9
$CAMERADISPLAY
290
0
  9
$LENSLENGTH
 40
50.0
  9
$CAMERAHEIGHT
 40
0.0
  9
$STEPSPERSEC
 40
24.0
  9
$STEPSIZE
 40
100.0
  9
$3DDWFPREC
 40
2.0
  9
$PSOLWIDTH
 40
0.005
  9
$PSOLHEIGHT
 40
0.08
  9
$LOFTANG1
 40
1.570796326795
  9
$LOFTANG2
 40
1.570796326795
  9
$LOFTMAG1
 40
0.0
  9
$LOFTMAG2
 40
0.0
  9
$LOFTPARAM
 70
7
  9
$LOFTNORMALS
280
1
  9
$LATITUDE
 40
37.795
  9
$LONGITUDE
 40
-122.394
  9
$NORTHDIRECTION
 40
0.0
  9
$TIMEZONE
 70
-8000
  9
$LIGHTGLYPHDISPLAY
280
1
  9
$TILEMODELIGHTSYNCH
280
1
  9
$CMATERIAL
347
20
  9
$SOLIDHIST
280
0
  9
$SHOWHIST
280
1
  9
$DWFFRAME
280
2
  9
$DGNFRAME
280
2
  9
$REALWORLDSCALE
290
1
  9
$INTERFERECOLOR
 62
256
  9
$CSHADOW
280
0
  9
$SHADOWPLANELOCATION
 40
0.0
  0
ENDSEC
  0
SECTION
  2
CLASSES
  0
CLASS
  1
ACDBDICTIONARYWDFLT
  2
AcDbDictionaryWithDefault
  3
ObjectDBX Classes
 90
0
 91
0
280
0
281
0
  0
CLASS
  1
SUN
  2
AcDbSun
  3
SCENEOE
 90
1153
 91
0
280
0
281
0
  0
CLASS
  1
VISUALSTYLE
  2
AcDbVisualStyle
  3
ObjectDBX Classes
 90
4095
 91
0
280
0
281
0
  0
CLASS
  1
MATERIAL
  2
AcDbMaterial
  3
ObjectDBX Classes
 90
1153
 91
0
280
0
281
0
  0
CLASS
  1
SCALE
  2
AcDbScale
  3
ObjectDBX Classes
 90
1153
 91
0
280
0
281
0
  0
CLASS
  1
TABLESTYLE
  2
AcDbTableStyle
  3
ObjectDBX Classes
 90
4095
 91
0
280
0
281
0
  0
CLASS
  1
MLEADERSTYLE
  2
AcDbMLeaderStyle
  3
ACDB_MLEADERSTYLE_CLASS
 90
4095
 91
0
280
0
281
0
  0
CLASS
  1
DICTIONARYVAR
  2
AcDbDictionaryVar
  3
ObjectDBX Classes
 90
0
 91
0
280
0
281
0
  0
CLASS
  1
CELLSTYLEMAP
  2
AcDbCellStyleMap
  3
ObjectDBX Classes
 90
1152
 91
0
280
0
281
0
  0
CLASS
  1
MENTALRAYRENDERSETTINGS
  2
AcDbMentalRayRenderSettings
  3
SCENEOE
 90
1024
 91
0
280
0
281
0
  0
CLASS
  1
ACDBDETAILVIEWSTYLE
  2
AcDbDetailViewStyle
  3
ObjectDBX Classes
 90
1025
 91
0
280
0
281
0
  0
CLASS
  1
ACDBSECTIONVIEWSTYLE
  2
AcDbSectionViewStyle
  3
ObjectDBX Classes
 90
1025
 91
0
280
0
281
0
  0
CLASS
  1
RASTERVARIABLES
  2
AcDbRasterVariables
  3
ISM
 90
0
 91
0
280
0
281
0
  0
CLASS
  1
ACDBPLACEHOLDER
  2
AcDbPlaceHolder
  3
ObjectDBX Classes
 90
0
 91
0
280
0
281
0
  0
CLASS
  1
LAYOUT
  2
AcDbLayout
  3
ObjectDBX Classes
 90
0
 91
0
280
0
281
0
  0
ENDSEC
  0
SECTION
  2
TABLES
  0
TABLE
  2
VPORT
  5
8
330
0
100
AcDbSymbolTable
 70
1
  0
VPORT
  5
96
330
8
100
AcDbSymbolTableRecord
100
AcDbViewportTableRecord
  2
*Active
 70
0
 10
0.0
 20
0.0
 11
1.0
 21
1.0
 12
0.03382743791748055
 22
-22.807690588363556
 13
0.0
 23
0.0
 14
0.5
 24
0.5
 15
0.5
 25
0.5
 16
0.0
 26
0.0
 36
1.0
 17
0.0
 27
0.0
 37
0.0
 40
153.23984346052708
 41
1.34
 42
50.0
 43
0.0
 44
0.0
 50
0.0
 51
0.0
 71
0
 72
1000
 73
1
 74
3
 75
0
 76
0
 77
0
 78
0
281
0
 65
1
110
0.0
120
0.0
130
0.0
111
1.0
121
0.0
131
0.0
112
0.0
122
1.0
132
0.0
 79
0
146
0.0
  0
ENDTAB
  0
TABLE
  2
LTYPE
  5
2
330
0
100
AcDbSymbolTable
 70
3
  0
LTYPE
  5
24
330
2
100
AcDbSymbolTableRecord
100
AcDbLinetypeTableRecord
  2
ByBlock
 70
0
  3

 72
65
 73
0
 40
0.0
  0
LTYPE
  5
25
330
2
100
AcDbSymbolTableRecord
100
AcDbLinetypeTableRecord
  2
ByLayer
 70
0
  3

 72
65
 73
0
 40
0.0
  0
LTYPE
  5
26
330
2
100
AcDbSymbolTableRecord
100
AcDbLinetypeTableRecord
  2
Continuous
 70
0
  3

 72
65
 73
0
 40
0.0
  0
ENDTAB
  0
TABLE
  2
LAYER
  5
1
330
0
100
AcDbSymbolTable
 70
2
  0
LAYER
  5
27
330
1
100
AcDbSymbolTableRecord
100
AcDbLayerTableRecord
  2
0
 70
0
 62
7
  6
Continuous
370
-3
390
13
347
21
  0
LAYER
  5
28
330
1
100
AcDbSymbolTableRecord
100
AcDbLayerTableRecord
  2
Defpoints
 70
0
 62
7
  6
Continuous
290
0
370
-3
390
13
347
21
  0
ENDTAB
  0
TABLE
  2
STYLE
  5
5
330
0
100
AcDbSymbolTable
 70
1
  0
STYLE
  5
29
330
5
100
AcDbSymbolTableRecord
100
AcDbTextStyleTableRecord
  2
Standard
 70
0
 40
0.0
 41
1.0
 50
0.0
 71
0
 42
2.5
  3
txt
  4

  0
ENDTAB
  0
TABLE
  2
VIEW
  5
7
330
0
100
AcDbSymbolTable
 70
0
  0
ENDTAB
  0
TABLE
  2
UCS
  5
6
330
0
100
AcDbSymbolTable
 70
0
  0
ENDTAB
  0
TABLE
  2
APPID
  5
3
330
0
100
AcDbSymbolTable
 70
3
  0
APPID
  5
2A
330
3
100
AcDbSymbolTableRecord
100
AcDbRegAppTableRecord
  2
ACAD
 70
0
  0
APPID
  5
97
330
3
100
AcDbSymbolTableRecord
100
AcDbRegAppTableRecord
  2
HATCHBACKGROUNDCOLOR
 70
0
  0
APPID
  5
98
330
3
100
AcDbSymbolTableRecord
100
AcDbRegAppTableRecord
  2
EZDXF
 70
0
  0
ENDTAB
  0
TABLE
  2
DIMSTYLE
  5
4
330
0
100
AcDbSymbolTable
 70
1
100
AcDbDimStyleTable
  0
DIMSTYLE
105
2B
330
4
100
AcDbSymbolTableRecord
100
AcDbDimStyleTableRecord
  2
Standard
 70
0
 40
1.0
 41
2.5
 42
0.625
 43
3.75
 44
1.25
 45
0.0
 46
0.0
 47
0.0
 48
0.0
 49
2.5
140
2.5
141
2.5
142
0.0
143
0.03937007874
144
1.0
145
0.0
146
1.0
147
0.625
148
0.0
 69
0
 70
0
 71
0
 72
0
 73
0
 74
0
 75
0
 76
0
 77
1
 78
8
 79
3
170
0
171
3
172
1
173
0
174
0
175
0
176
0
177
0
178
0
179
2
271
2
272
2
273
2
274
3
275
0
276
0
277
2
278
44
279
0
280
0
281
0
282
0
283
0
284
8
285
0
286
0
288
0
289
3
290
0
371
-2
372
-2
  0
ENDTAB
  0
TABLE
  2
BLOCK_RECORD
  5
9
330
0
100
AcDbSymbolTable
 70
2
  0
BLOCK_RECORD
  5
17
330
9
100
AcDbSymbolTableRecord
100
AcDbBlockTableRecord
  2
*Model_Space
340
1A
 70
0
280
1
281
0
  0
BLOCK_RECORD
  5
1B
330
9
100
AcDbSymbolTableRecord
100
AcDbBlockTableRecord
  2
*Paper_Space
340
1E
 70
0
280
1
281
0
  0
ENDTAB
  0
ENDSEC
  0
SECTION
  2
BLOCKS
  0
BLOCK
  5
18
330
17
100
AcDbEntity
  8
0
100
AcDbBlockBegin
  2
*Model_Space
 70
0
 10
0.0
 20
0.0
 30
0.0
  3
*Model_Space
  1

  0
ENDBLK
  5
19
330
17
100
AcDbEntity
  8
0
100
AcDbBlockEnd
  0
BLOCK
  5
1C
330
1B
100
AcDbEntity
  8
0
100
AcDbBlockBegin
  2
*Paper_Space
 70
0
 10
0.0
 20
0.0
 30
0.0
  3
*Paper_Space
  1

  0
ENDBLK
  5
1D
330
1B
100
AcDbEntity
  8
0
100
AcDbBlockEnd
  0
ENDSEC
  0
SECTION
  2
ENTITIES
  0
ARC
  5
2F
330
17
100
AcDbEntity
  8
0
100
AcDbCircle
 10
22.19194097080701
 20
9.075100741485308
 30
0.0
 40
4.999999999649308
100
AcDbArc
 50
136.26005590786804
 51
171.26005591070106
  0
LINE
  5
30
330
17
100
AcDbEntity
  8
0
100
AcDbLine
 10
17.25
 20
9.8348503302
 30
0.0
 11
17.25
 21
-9.1651496698
 31
0.0
  0
ARC
  5
31
330
17
100
AcDbEntity
  8
0
100
AcDbCircle
 10
21.746959637558056
 20
-9.330540188005875
 30
0.0
 40
4.500000000593189
100
AcDbArc
 50
177.8937081355033
 51
222.89370812893313
  0
ARC
  5
32
330
17
100
AcDbEntity
  8
0
100
AcDbCircle
 10
15.225412418100408
 20
-15.532032060820523
 30
0.0
 40
4.499999999252004
100
AcDbArc
 50
-0.77571672501687
 51
44.22428328306571
  0
LINE
  5
33
330
17
100
AcDbEntity
  8
0
100
AcDbLine
 10
19.725
 20
-15.5929548487
 30
0.0
 11
19.725
 21
-23.2759731003
 31
0.0
  0
ARC
  5
34
330
17
100
AcDbEntity
  8
0
100
AcDbCircle
 10
23.215620834298637
 20
-23.5320320610708
 30
0.0
 40
3.5000000000329616
100
AcDbArc
 50
175.80450947514228
 51
315.804509472424
  0
ARC
  5
35
330
17
100
AcDbEntity
  8
0
100
AcDbCircle
 10
28.295604433740785
 20
-29.66541927678801
 30
0.0
 40
4.499999999974061
100
AcDbArc
 50
-10.16288090683727
 51
124.83711909366072
  0
LINE
  5
36
330
17
100
AcDbEntity
  8
0
100
AcDbLine
 10
32.725
 20
-30.4594311894
 30
0.0
 11
32.2667968915
 21
-44.227605269
 31
0.0
  0
ARC
  5
37
330
17
100
AcDbEntity
  8
0
100
AcDbCircle
 10
26.795604434305666
 20
-43.665419277147805
 30
0.0
 40
5.499999999372275
100
AcDbArc
 50
-50.86676156825554
 51
-5.8667709244535216
  0
ARC
  5
38
330
17
100
AcDbEntity
  8
0
100
AcDbCircle
 10
43.513947665701295
 20
-62.9154192768
 30
0.0
 40
19.9999999999013
100
AcDbArc
 50
131.47992090166554
 51
228.52007909833446
  0
ARC
  5
39
330
17
100
AcDbEntity
  8
0
100
AcDbCircle
 10
26.25862781733631
 20
-81.66541927682171
 30
0.0
 40
5.500000000011411
100
AcDbArc
 50
-1.7823747498515612
 51
43.217625249882595
  0
LINE
  5
3A
330
17
100
AcDbEntity
  8
0
100
AcDbLine
 10
31.7559667832
 20
-81.8364873759
 30
0.0
 11
29.9563365772
 21
-95.8364873759
 31
0.0
  0
ARC
  5
3B
330
17
100
AcDbEntity
  8
0
100
AcDbCircle
 10
25.61138554092949
 20
-94.66541927672453
 30
0.0
 40
4.5000000000549525
100
AcDbArc
 50
-135.08414643324
 51
-15.084146434200608
  0
LINE
  5
3C
330
17
100
AcDbEntity
  8
0
100
AcDbLine
 10
22.4247352994
 20
-97.8427232028
 30
0.0
 11
14.611385541
 21
-91.6016042685
 31
0.0
  0
ARC
  5
3D
330
17
100
AcDbEntity
  8
0
100
AcDbCircle
 10
7.917539466101287
 20
-99.03076469987039
 30
0.0
 40
9.999999999473822
100
AcDbArc
 50
47.98041373004039
 51
77.9804137318044
  0
LINE
  5
3E
330
17
100
AcDbEntity
  8
0
100
AcDbLine
 10
10.0
 20
-89.25
 30
0.0
 11
-10.0
 21
-89.25
 31
0.0
  0
ARC
  5
3F
330
17
100
AcDbEntity
  8
0
100
AcDbCircle
 10
-7.917539466101273
 20
-99.03076469987042
 30
0.0
 40
9.999999999473852
100
AcDbArc
 50
102.01958626819565
 51
132.01958626995958
  0
LINE
  5
40
330
17
100
AcDbEntity
  8
0
100
AcDbLine
 10
-14.611385541
 20
-91.6016042685
 30
0.0
 11
-22.4247352994
 21
-97.8427232028
 31
0.0
  0
ARC
  5
41
330
17
100
AcDbEntity
  8
0
100
AcDbCircle
 10
-25.61138554092949
 20
-94.66541927672453
 30
0.0
 40
4.5000000000549525
100
AcDbArc
 50
-164.91585356579935
 51
-44.915853566760006
  0
LINE
  5
42
330
17
100
AcDbEntity
  8
0
100
AcDbLine
 10
-29.9563365772
 20
-95.8364873759
 30
0.0
 11
-31.6883119073
 21
-81.8364873759
 31
0.0
  0
ARC
  5
43
330
17
100
AcDbEntity
  8
0
100
AcDbCircle
 10
-26.19097294210421
 20
-81.66541927646729
 30
0.0
 40
5.4999999993548565
100
AcDbArc
 50
136.78237474875695
 51
181.78237475375832
  0
ARC
  5
44
330
17
100
AcDbEntity
  8
0
100
AcDbCircle
 10
-43.4462927899013
 20
-62.9154192768
 30
0.0
 40
19.9999999999013
100
AcDbArc
 50
-48.52007909833446
 51
48.52007909833448
  0
ARC
  5
45
330
17
100
AcDbEntity
  8
0
100
AcDbCircle
 10
-26.727949557488515
 20
-43.6654192765986
 30
0.0
 40
5.500000000440234
100
AcDbArc
 50
-174.1332290709382
 51
-129.13323843635274
  0
LINE
  5
46
330
17
100
AcDbEntity
  8
0
100
AcDbLine
 10
-32.1991420157
 20
-44.227605269
 30
0.0
 11
-32.6573451242
 21
-30.4594311894
 31
0.0
  0
ARC
  5
47
330
17
100
AcDbEntity
  8
0
100
AcDbCircle
 10
-28.227949557893602
 20
-29.66541927686161
 30
0.0
 40
4.500000000007515
100
AcDbArc
 50
55.16288090736763
 51
190.16288090580892
  0
ARC
  5
48
330
17
100
AcDbEntity
  8
0
100
AcDbCircle
 10
-23.147965958498634
 20
-23.532032061070797
 30
0.0
 40
3.5000000000329625
100
AcDbArc
 50
-135.80450947242397
 51
4.195490524857675
  0
LINE
  5
49
330
17
100
AcDbEntity
  8
0
100
AcDbLine
 10
-19.6573451242
 20
-23.2759731003
 30
0.0
 11
-19.775
 21
-15.5929548487
 31
0.0
  0
ARC
  5
4A
330
17
100
AcDbEntity
  8
0
100
AcDbCircle
 10
-15.27541241696673
 20
-15.532032061272222
 30
0.0
 40
4.500000000379459
100
AcDbArc
 50
135.77571672288045
 51
180.77571671907074
  0
ARC
  5
4B
330
17
100
AcDbEntity
  8
0
100
AcDbCircle
 10
-21.796959636403844
 20
-9.330540188434977
 30
0.0
 40
4.499999999455526
100
AcDbArc
 50
-42.893708134933085
 51
2.106291870496633
  0
LINE
  5
4C
330
17
100
AcDbEntity
  8
0
100
AcDbLine
 10
-17.3
 20
-9.1651496698
 30
0.0
 11
-17.1965853369
 21
9.8878922555
 31
0.0
  0
ARC
  5
4D
330
17
100
AcDbEntity
  8
0
100
AcDbCircle
 10
-22.105707474797768
 20
8.938935020788582
 30
0.0
 40
4.9999999998109095
100
AcDbArc
 50
10.940613535088858
 51
45.94061353652742
  0
ARC
  5
4E
330
17
100
AcDbEntity
  8
0
100
AcDbCircle
 10
-15.274587582845434
 20
15.5320320611
 30
0.0
 40
4.499999999854566
100
AcDbArc
 50
138.18968510256516
 51
221.8103148974348
  0
ARC
  5
4F
330
17
100
AcDbEntity
  8
0
100
AcDbCircle
 10
-22.241116136107006
 20
21.98896338071469
 30
0.0
 40
4.999999999649304
100
AcDbArc
 50
-43.73994409213196
 51
-8.739944089298925
  0
LINE
  5
50
330
17
100
AcDbEntity
  8
0
100
AcDbLine
 10
-17.2991751653
 20
21.229213792
 30
0.0
 11
-17.25
 21
36.229213792
 31
0.0
  0
ARC
  5
51
330
17
100
AcDbEntity
  8
0
100
AcDbCircle
 10
-27.226330150092156
 20
35.54158253256779
 30
0.0
 40
10.000000000629306
100
AcDbArc
 50
3.942948360221366
 51
48.942948357132245
  0
ARC
  5
52
330
17
100
AcDbEntity
  8
0
100
AcDbCircle
 10
-19.225412417396438
 20
47.34794071236488
 30
0.0
 40
4.499999999971788
100
AcDbArc
 50
31.433617415148408
 51
251.4335971116842
  0
ARC
  5
53
330
17
100
AcDbEntity
  8
0
100
AcDbCircle
 10
-10.564125298628213
 20
52.3407447563941
 30
0.0
 40
5.500000000082376
100
AcDbArc
 50
-151.2432359709958
 51
-21.243235972826206
  0
ARC
  5
54
330
17
100
AcDbEntity
  8
0
100
AcDbCircle
 10
0.0
 20
47.812231141890386
 30
0.0
 40
6.000000000009614
100
AcDbArc
 50
25.0000000006465
 51
154.99999999935355
  0
ARC
  5
55
330
17
100
AcDbEntity
  8
0
100
AcDbCircle
 10
10.564125298628216
 20
52.3407447563941
 30
0.0
 40
5.500000000082376
100
AcDbArc
 50
-158.7567640271738
 51
-28.756764029004213
  0
ARC
  5
56
330
17
100
AcDbEntity
  8
0
100
AcDbCircle
 10
19.225412417396434
 20
47.34794071236488
 30
0.0
 40
4.499999999971789
100
AcDbArc
 50
-71.4335971116842
 51
148.56638258485157
  0
ARC
  5
57
330
17
100
AcDbEntity
  8
0
100
AcDbCircle
 10
27.22633015009214
 20
35.54158253256779
 30
0.0
 40
10.00000000062929
100
AcDbArc
 50
131.0570516428677
 51
176.05705163977862
  0
LINE
  5
58
330
17
100
AcDbEntity
  8
0
100
AcDbLine
 10
17.25
 20
36.229213792
 30
0.0
 11
17.25
 21
21.229213792
 31
0.0
  0
ARC
  5
59
330
17
100
AcDbEntity
  8
0
100
AcDbCircle
 10
22.191940970807003
 20
21.98896338071469
 30
0.0
 40
4.999999999649301
100
AcDbArc
 50
-171.26005591070106
 51
-136.26005590786804
  0
ARC
  5
5A
330
17
100
AcDbEntity
  8
0
100
AcDbCircle
 10
15.22541241715272
 20
15.5320320611
 30
0.0
 40
4.500000000147279
100
AcDbArc
 50
-41.81031489410137
 51
41.81031489410137
  0
CIRCLE
  5
5B
330
17
100
AcDbEntity
  8
0
100
AcDbCircle
 10
0.0
 20
0.0
 30
0.0
 40
9.25
  0
LINE
  5
5C
330
17
100
AcDbEntity
  8
0
100
AcDbLine
 10
-7.5
 20
-55.75
 30
0.0
 11
-7.5
 21
-66.75
 31
0.0
  0
ARC
  5
5D
330
17
100
AcDbEntity
  8
0
100
AcDbCircle
 10
-5.5000000000918465
 20
-66.75000000009184
 30
0.0
 40
1.9999999999081546
100
AcDbArc
 50
179.99999999736883
 51
270.0000000026312
  0
LINE
  5
5E
330
17
100
AcDbEntity
  8
0
100
AcDbLine
 10
-5.5
 20
-68.75
 30
0.0
 11
5.5
 21
-68.75
 31
0.0
  0
ARC
  5
5F
330
17
100
AcDbEntity
  8
0
100
AcDbCircle
 10
5.500000000091848
 20
-66.75000000009184
 30
0.0
 40
1.9999999999081535
100
AcDbArc
 50
-90.00000000263125
 51
2.631158388006235e-09
  0
LINE
  5
60
330
17
100
AcDbEntity
  8
0
100
AcDbLine
 10
7.5
 20
-66.75
 30
0.0
 11
7.5
 21
-55.75
 31
0.0
  0
ARC
  5
61
330
17
100
AcDbEntity
  8
0
100
AcDbCircle
 10
5.50000000009186
 20
-55.74999999990814
 30
0.0
 40
1.9999999999081404
100
AcDbArc
 50
-2.6315654991263294e-09
 51
90.0000000026316
  0
LINE
  5
62
330
17
100
AcDbEntity
  8
0
100
AcDbLine
 10
5.5
 20
-53.75
 30
0.0
 11
-5.5
 21
-53.75
 31
0.0
  0
ARC
  5
63
330
17
100
AcDbEntity
  8
0
100
AcDbCircle
 10
-5.50000000009186
 20
-55.74999999990814
 30
0.0
 40
1.9999999999081404
100
AcDbArc
 50
89.9999999973684
 51
180.00000000263157
  0
ARC
  5
64
330
17
100
AcDbEntity
  8
0
100
AcDbCircle
 10
2.0597433550474022
 20
41.23964927844533
 30
0.0
 40
2.499999999813016
100
AcDbArc
 50
-23.8393882740932
 51
21.160602368269608
  0
LINE
  5
65
330
17
100
AcDbEntity
  8
0
100
AcDbLine
 10
4.3911739561
 20
42.1421077825
 30
0.0
 11
0.9063077870000003
 21
48.2348494037
 31
0.0
  0
ARC
  5
66
330
17
100
AcDbEntity
  8
0
100
AcDbCircle
 10
5.551115123125783e-17
 20
47.812231141914125
 30
0.0
 40
0.9999999999858744
100
AcDbArc
 50
25.000000003233115
 51
154.99999999676692
  0
LINE
  5
67
330
17
100
AcDbEntity
  8
0
100
AcDbLine
 10
-0.9063077870000003
 20
48.2348494037
 30
0.0
 11
-4.2716872464
 21
42.1421077825
 31
0.0
  0
ARC
  5
68
330
17
100
AcDbEntity
  8
0
100
AcDbCircle
 10
-1.9402566447439675
 20
41.23964927833989
 30
0.0
 40
2.5000000004138214
100
AcDbArc
 50
158.83939763446918
 51
203.83938826536703
  0
LINE
  5
69
330
17
100
AcDbEntity
  8
0
100
AcDbLine
 10
-4.2269617263
 20
40.229213792
 30
0.0
 11
-2.5371700761
 21
35.8887767549
 31
0.0
  0
ARC
  5
6A
330
17
100
AcDbEntity
  8
0
100
AcDbCircle
 10
0.0
 20
36.812231141879394
 30
0.0
 40
2.6999999999794
100
AcDbArc
 50
-159.9999999998389
 51
-20.00000000016109
  0
LINE
  5
6B
330
17
100
AcDbEntity
  8
0
100
AcDbLine
 10
2.5371700761
 20
35.8887767549
 30
0.0
 11
4.3464484359
 21
40.229213792
 31
0.0
  0
LINE
  5
6C
330
17
100
AcDbEntity
  8
0
100
AcDbLine
 10
-5.75
 20
22.75
 30
0.0
 11
-5.75
 21
19.25
 31
0.0
  0
ARC
  5
6D
330
17
100
AcDbEntity
  8
0
100
AcDbCircle
 10
-3.250000000114822
 20
19.249999999885176
 30
0.0
 40
2.4999999998851767
100
AcDbArc
 50
179.99999999736843
 51
270.0000000026315
  0
LINE
  5
6E
330
17
100
AcDbEntity
  8
0
100
AcDbLine
 10
-3.25
 20
16.75
 30
0.0
 11
3.25
 21
16.75
 31
0.0
  0
ARC
  5
6F
330
17
100
AcDbEntity
  8
0
100
AcDbCircle
 10
3.250000000114822
 20
19.249999999885176
 30
0.0
 40
2.4999999998851767
100
AcDbArc
 50
-90.00000000263152
 51
2.631565499005462e-09
  0
LINE
  5
70
330
17
100
AcDbEntity
  8
0
100
AcDbLine
 10
5.75
 20
19.25
 30
0.0
 11
5.75
 21
22.75
 31
0.0
  0
ARC
  5
71
330
17
100
AcDbEntity
  8
0
100
AcDbCircle
 10
3.250000000114822
 20
22.750000000114824
 30
0.0
 40
2.4999999998851767
100
AcDbArc
 50
-2.6315654991263265e-09
 51
90.00000000263152
  0
LINE
  5
72
330
17
100
AcDbEntity
  8
0
100
AcDbLine
 10
3.25
 20
25.25
 30
0.0
 11
-3.25
 21
25.25
 31
0.0
  0
ARC
  5
73
330
17
100
AcDbEntity
  8
0
100
AcDbCircle
 10
-3.250000000114822
 20
22.750000000114824
 30
0.0
 40
2.4999999998851767
100
AcDbArc
 50
89.99999999736848
 51
180.00000000263157
  0
LINE
  5
74
330
17
100
AcDbEntity
  8
0
100
AcDbLine
 10
-5.775
 20
-19.25
 30
0.0
 11
-5.775
 21
-22.75
 31
0.0
  0
ARC
  5
75
330
17
100
AcDbEntity
  8
0
100
AcDbCircle
 10
-3.2750000001148223
 20
-22.750000000114824
 30
0.0
 40
2.4999999998851767
100
AcDbArc
 50
179.99999999736843
 51
270.00000000263157
  0
LINE
  5
76
330
17
100
AcDbEntity
  8
0
100
AcDbLine
 10
-3.275
 20
-25.25
 30
0.0
 11
3.225
 21
-25.25
 31
0.0
  0
ARC
  5
77
330
17
100
AcDbEntity
  8
0
100
AcDbCircle
 10
3.2250000001148216
 20
-22.750000000114824
 30
0.0
 40
2.499999999885177
100
AcDbArc
 50
-90.00000000263151
 51
2.631565499005462e-09
  0
LINE
  5
78
330
17
100
AcDbEntity
  8
0
100
AcDbLine
 10
5.725
 20
-22.75
 30
0.0
 11
5.725
 21
-19.25
 31
0.0
  0
ARC
  5
79
330
17
100
AcDbEntity
  8
0
100
AcDbCircle
 10
3.2250000001148216
 20
-19.249999999885176
 30
0.0
 40
2.499999999885177
100
AcDbArc
 50
-2.6315654991263265e-09
 51
90.00000000263151
  0
LINE
  5
7A
330
17
100
AcDbEntity
  8
0
100
AcDbLine
 10
3.225
 20
-16.75
 30
0.0
 11
-3.275
 21
-16.75
 31
0.0
  0
ARC
  5
7B
330
17
100
AcDbEntity
  8
0
100
AcDbCircle
 10
-3.2750000001148223
 20
-19.249999999885176
 30
0.0
 40
2.4999999998851767
100
AcDbArc
 50
89.99999999736848
 51
180.00000000263157
  0
CIRCLE
  5
7C
330
17
100
AcDbEntity
  8
0
100
AcDbCircle
 10
0.0
 20
-79.25
 30
0.0
 40
3.0
  0
CIRCLE
  5
7D
330
17
100
AcDbEntity
  8
0
100
AcDbCircle
 10
18.0
 20
-61.4154192768
 30
0.0
 40
3.0
  0
CIRCLE
  5
7E
330
17
100
AcDbEntity
  8
0
100
AcDbCircle
 10
-18.0
 20
-61.4154192768
 30
0.0
 40
3.0
  0
CIRCLE
  5
7F
330
17
100
AcDbEntity
  8
0
100
AcDbCircle
 10
0.0
 20
-43.25
 30
0.0
 40
3.0
  0
CIRCLE
  5
80
330
17
100
AcDbEntity
  8
0
100
AcDbCircle
 10
-19.2254124173
 20
47.3479407124
 30
0.0
 40
1.5
  0
CIRCLE
  5
81
330
17
100
AcDbEntity
  8
0
100
AcDbCircle
 10
19.2254124173
 20
47.3479407124
 30
0.0
 40
1.5
  0
CIRCLE
  5
82
330
17
100
AcDbEntity
  8
0
100
AcDbCircle
 10
-25.611385541
 20
-94.6654192768
 30
0.0
 40
1.5
  0
CIRCLE
  5
83
330
17
100
AcDbEntity
  8
0
100
AcDbCircle
 10
-26.1909729415
 20
-81.6654192768
 30
0.0
 40
1.5
  0
CIRCLE
  5
84
330
17
100
AcDbEntity
  8
0
100
AcDbCircle
 10
-26.7279495579
 20
-43.6654192768
 30
0.0
 40
1.5
  0
CIRCLE
  5
85
330
17
100
AcDbEntity
  8
0
100
AcDbCircle
 10
-28.2279495579
 20
-29.6654192768
 30
0.0
 40
1.5
  0
CIRCLE
  5
86
330
17
100
AcDbEntity
  8
0
100
AcDbCircle
 10
25.611385541
 20
-94.6654192768
 30
0.0
 40
1.5
  0
CIRCLE
  5
87
330
17
100
AcDbEntity
  8
0
100
AcDbCircle
 10
26.2586278173
 20
-81.6654192768
 30
0.0
 40
1.5
  0
CIRCLE
  5
88
330
17
100
AcDbEntity
  8
0
100
AcDbCircle
 10
26.7956044337
 20
-43.6654192768
 30
0.0
 40
1.5
  0
CIRCLE
  5
89
330
17
100
AcDbEntity
  8
0
100
AcDbCircle
 10
28.2956044337
 20
-29.6654192768
 30
0.0
 40
1.5
  0
CIRCLE
  5
8A
330
17
100
AcDbEntity
  8
0
100
AcDbCircle
 10
-15.2754124173
 20
-76.6654192768
 30
0.0
 40
1.5
  0
CIRCLE
  5
8B
330
17
100
AcDbEntity
  8
0
100
AcDbCircle
 10
15.2245875827
 20
-76.6654192768
 30
0.0
 40
1.5
  0
CIRCLE
  5
8C
330
17
100
AcDbEntity
  8
0
100
AcDbCircle
 10
-15.2754124173
 20
-46.1654192768
 30
0.0
 40
1.5
  0
CIRCLE
  5
8D
330
17
100
AcDbEntity
  8
0
100
AcDbCircle
 10
15.2254124173
 20
-46.1654192768
 30
0.0
 40
1.5
  0
CIRCLE
  5
8E
330
17
100
AcDbEntity
  8
0
100
AcDbCircle
 10
15.2254124173
 20
-15.5320320611
 30
0.0
 40
1.5
  0
CIRCLE
  5
8F
330
17
100
AcDbEntity
  8
0
100
AcDbCircle
 10
-15.2754124173
 20
-15.5320320611
 30
0.0
 40
1.5
  0
CIRCLE
  5
90
330
17
100
AcDbEntity
  8
0
100
AcDbCircle
 10
10.0
 20
-10.1519702521
 30
0.0
 40
1.5
  0
CIRCLE
  5
91
330
17
100
AcDbEntity
  8
0
100
AcDbCircle
 10
-10.0
 20
-10.1519702521
 30
0.0
 40
1.5
  0
CIRCLE
  5
92
330
17
100
AcDbEntity
  8
0
100
AcDbCircle
 10
-15.2745875827
 20
15.5320320611
 30
0.0
 40
1.5
  0
CIRCLE
  5
93
330
17
100
AcDbEntity
  8
0
100
AcDbCircle
 10
15.2254124173
 20
15.5320320611
 30
0.0
 40
1.5
  0
CIRCLE
  5
94
330
17
100
AcDbEntity
  8
0
100
AcDbCircle
 10
10.0
 20
10.1519702521
 30
0.0
 40
1.5
  0
CIRCLE
  5
95
330
17
100
AcDbEntity
  8
0
100
AcDbCircle
 10
-10.0
 20
10.1519702521
 30
0.0
 40
1.5
  0
ENDSEC
  0
SECTION
  2
OBJECTS
  0
DICTIONARY
  5
A
330
0
100
AcDbDictionary
281
1
  3
ACAD_COLOR
350
B
  3
ACAD_GROUP
350
C
  3
ACAD_LAYOUT
350
D
  3
ACAD_MATERIAL
350
E
  3
ACAD_MLEADERSTYLE
350
F
  3
ACAD_MLINESTYLE
350
10
  3
ACAD_PLOTSETTINGS
350
11
  3
ACAD_PLOTSTYLENAME
350
12
  3
ACAD_SCALELIST
350
14
  3
ACAD_TABLESTYLE
350
15
  3
ACAD_VISUALSTYLE
350
16
  3
EZDXF_META
350
2D
  0
DICTIONARY
  5
B
330
A
100
AcDbDictionary
281
1
  0
DICTIONARY
  5
C
330
A
100
AcDbDictionary
281
1
  0
DICTIONARY
  5
D
330
A
100
AcDbDictionary
281
1
  3
Model
350
1A
  3
Layout1
350
1E
  0
DICTIONARY
  5
E
330
A
100
AcDbDictionary
281
1
  3
ByBlock
350
1F
  3
ByLayer
350
20
  3
Global
350
21
  0
DICTIONARY
  5
F
330
A
100
AcDbDictionary
281
1
  3
Standard
350
2C
  0
DICTIONARY
  5
10
330
A
100
AcDbDictionary
281
1
  3
Standard
350
22
  0
DICTIONARY
  5
11
330
A
100
AcDbDictionary
281
1
  0
ACDBDICTIONARYWDFLT
  5
12
330
A
100
AcDbDictionary
281
1
  3
Normal
350
13
100
AcDbDictionaryWithDefault
340
13
  0
ACDBPLACEHOLDER
  5
13
330
12
  0
DICTIONARY
  5
14
330
A
100
AcDbDictionary
281
1
  0
DICTIONARY
  5
15
330
A
100
AcDbDictionary
281
1
  0
DICTIONARY
  5
16
330
A
100
AcDbDictionary
281
1
  0
LAYOUT
  5
1A
330
D
100
AcDbPlotSettings
  1

  4
A3
  6

 40
7.5
 41
20.0
 42
7.5
 43
20.0
 44
420.0
 45
297.0
 46
0.0
 47
0.0
 48
0.0
 49
0.0
140
0.0
141
0.0
142
1.0
143
1.0
 70
1024
 72
1
 73
0
 74
5
  7

 75
16
 76
0
 77
2
 78
300
147
1.0
148
0.0
149
0.0
100
AcDbLayout
  1
Model
 70
1
 71
0
 10
0.0
 20
0.0
 11
420.0
 21
297.0
 12
0.0
 22
0.0
 32
0.0
 14
1e+20
 24
1e+20
 34
1e+20
 15
-1e+20
 25
-1e+20
 35
-1e+20
146
0.0
 13
0.0
 23
0.0
 33
0.0
 16
1.0
 26
0.0
 36
0.0
 17
0.0
 27
1.0
 37
0.0
 76
1
330
17
  0
LAYOUT
  5
1E
330
D
100
AcDbPlotSettings
  1

  4
A3
  6

 40
7.5
 41
20.0
 42
7.5
 43
20.0
 44
420.0
 45
297.0
 46
0.0
 47
0.0
 48
0.0
 49
0.0
140
0.0
141
0.0
142
1.0
143
1.0
 70
0
 72
1
 73
0
 74
5
  7

 75
16
 76
0
 77
2
 78
300
147
1.0
148
0.0
149
0.0
100
AcDbLayout
  1
Layout1
 70
1
 71
1
 10
0.0
 20
0.0
 11
420.0
 21
297.0
 12
0.0
 22
0.0
 32
0.0
 14
1e+20
 24
1e+20
 34
1e+20
 15
-1e+20
 25
-1e+20
 35
-1e+20
146
0.0
 13
0.0
 23
0.0
 33
0.0
 16
1.0
 26
0.0
 36
0.0
 17
0.0
 27
1.0
 37
0.0
 76
1
330
1B
  0
MATERIAL
  5
1F
102
{ACAD_REACTORS
330
E
102
}
330
E
100
AcDbMaterial
  1
ByBlock
  2

 70
0
 40
1.0
 71
1
 41
1.0
 91
-1023410177
 42
1.0
 72
1
  3

 73
1
 74
1
 75
1
 44
0.5
 73
0
 45
1.0
 46
1.0
 77
1
  4

 78
1
 79
1
170
1
 48
1.0
171
1
  6

172
1
173
1
174
1
140
1.0
141
1.0
175
1
  7

176
1
177
1
178
1
143
1.0
179
1
  8

270
1
271
1
272
1
145
1.0
146
1.0
273
1
  9

274
1
275
1
276
1
 42
1.0
 72
1
  3

 73
1
 74
1
 75
1
 94
63
  0
MATERIAL
  5
20
102
{ACAD_REACTORS
330
E
102
}
330
E
100
AcDbMaterial
  1
ByLayer
  2

 70
0
 40
1.0
 71
1
 41
1.0
 91
-1023410177
 42
1.0
 72
1
  3

 73
1
 74
1
 75
1
 44
0.5
 73
0
 45
1.0
 46
1.0
 77
1
  4

 78
1
 79
1
170
1
 48
1.0
171
1
  6

172
1
173
1
174
1
140
1.0
141
1.0
175
1
  7

176
1
177
1
178
1
143
1.0
179
1
  8

270
1
271
1
272
1
145
1.0
146
1.0
273
1
  9

274
1
275
1
276
1
 42
1.0
 72
1
  3

 73
1
 74
1
 75
1
 94
63
  0
MATERIAL
  5
21
102
{ACAD_REACTORS
330
E
102
}
330
E
100
AcDbMaterial
  1
Global
  2

 70
0
 40
1.0
 71
1
 41
1.0
 91
-1023410177
 42
1.0
 72
1
  3

 73
1
 74
1
 75
1
 44
0.5
 73
0
 45
1.0
 46
1.0
 77
1
  4

 78
1
 79
1
170
1
 48
1.0
171
1
  6

172
1
173
1
174
1
140
1.0
141
1.0
175
1
  7

176
1
177
1
178
1
143
1.0
179
1
  8

270
1
271
1
272
1
145
1.0
146
1.0
273
1
  9

274
1
275
1
276
1
 42
1.0
 72
1
  3

 73
1
 74
1
 75
1
 94
63
  0
MLINESTYLE
  5
22
102
{ACAD_REACTORS
330
10
102
}
330
10
100
AcDbMlineStyle
  2
Standard
 70
0
  3

 62
256
 51
90.0
 52
90.0
 71
2
 49
0.5
 62
256
  6
BYLAYER
 49
-0.5
 62
256
  6
BYLAYER
  0
MLEADERSTYLE
  5
2C
102
{ACAD_REACTORS
330
F
102
}
330
F
100
AcDbMLeaderStyle
179
2
170
2
171
1
172
0
 90
2
 40
0.0
 41
0.0
173
1
 91
-1056964608
 92
-2
290
1
 42
2.0
291
1
 43
8.0
  3
Standard
 44
4.0
300

342
29
174
1
175
1
176
0
178
1
 93
-1056964608
 45
4.0
292
0
297
0
 46
4.0
 94
-1056964608
 47
1.0
 49
1.0
140
1.0
294
1
141
0.0
177
0
142
1.0
295
0
296
0
143
3.75
271
0
272
9
273
9
  0
DICTIONARY
  5
2D
330
A
100
AcDbDictionary
280
1
281
1
  3
CREATED_BY_EZDXF
350
2E
  3
WRITTEN_BY_EZDXF
350
99
  0
DICTIONARYVAR
  5
2E
330
2D
100
DictionaryVariables
280
0
  1
1.4.4 @ 2026-09-13T11:37:58.531927+00:00
  0
DICTIONARYVAR
  5
99
330
2D
100
DictionaryVariables
280
0
  1
1.4.4 @ 2026-09-13T11:37:58.539744+00:00
  0
ENDSEC
  0
EOF
