  0
SECTION
  2
HEADER
  9
$ACADVER
  1
AC1027
  9
$ACADMAINTVER
 70
105
  9
$DWGCODEPAGE
  3
ANSI_1252
  9
$LASTSAVEDBY
  1
ezdxf
  9
$REQUIREDVERSIONS
160
0
  9
$INSBASE
 10
0.0
 20
0.0
 30
0.0
  9
$EXTMIN
 10
1e+20
 20
1e+20
 30
1e+20
  9
$EXTMAX
 10
-1e+20
 20
-1e+20
 30
-1e+20
  9
$LIMMIN
 10
0.0
 20
0.0
  9
$LIMMAX
 10
420.0
 20
297.0
  9
$ORTHOMODE
 70
0
  9
$REGENMODE
 70
1
  9
$FILLMODE
 70
1
  9
$QTEXTMODE
 70
0
  9
$MIRRTEXT
 70
1
  9
$LTSCALE
 40
1.0
  9
$ATTMODE
 70
1
  9
$TEXTSIZE
 40
2.5
  9
$TRACEWID
 40
1.0
  9
$TEXTSTYLE
  7
Standard
  9
$CLAYER
  8
0
  9
$CELTYPE
  6
ByLayer
  9
$CECOLOR
 62
256
  9
$CELTSCALE
 40
1.0
  9
$DISPSILH
 70
0
  9
$DIMSCALE
 40
1.0
  9
$DIMASZ
 40
2.5
  9
$DIMEXO
 40
0.625
  9
$DIMDLI
 40
3.75
  9
$DIMRND
 40
0.0
  9
$DIMDLE
 40
0.0
  9
$DIMEXE
 40
1.25
  9
$DIMTP
 40
0.0
  9
$DIMTM
 40
0.0
  9
$DIMTXT
 40
2.5
  9
$DIMCEN
 40
2.5
  9
$DIMTSZ
 40
0.0
  9
$DIMTOL
 70
0
  9
$DIMLIM
 70
0
  9
$DIMTIH
 70
0
  9
$DIMTOH
 70
0
  9
$DIMSE1
 70
0
  9
$DIMSE2
 70
0
  9
$DIMTAD
 70
1
  9
$DIMZIN
 70
8
  9
$DIMBLK
  1

  9
$DIMASO
 70
1
  9
$DIMSHO
 70
1
  9
$DIMPOST
  1

  9
$DIMAPOST
  1

  9
$DIMALT
 70
0
  9
$DIMALTD
 70
3
  9
$DIMALTF
 40
0.03937007874
  9
$DIMLFAC
 40
1.0
  9
$DIMTOFL
 70
1
  9
$DIMTVP
 40
0.0
  9
$DIMTIX
 70
0
  9
$DIMSOXD
 70
0
  9
$DIMSAH
 70
0
  9
$DIMBLK1
  1

  9
$DIMBLK2
  1

  9
$DIMSTYLE
  2
ISO-25
  9
$DIMCLRD
 70
0
  9
$DIMCLRE
 70
0
  9
$DIMCLRT
 70
0
  9
$DIMTFAC
 40
1.0
  9
$DIMGAP
 40
0.625
  9
$DIMJUST
 70
0
  9
$DIMSD1
 70
0
  9
$DIMSD2
 70
0
  9
$DIMTOLJ
 70
0
  9
$DIMTZIN
 70
8
  9
$DIMALTZ
 70
0
  9
$DIMALTTZ
 70
0
  9
$DIMUPT
 70
0
  9
$DIMDEC
 70
2
  9
$DIMTDEC
 70
2
  9
$DIMALTU
 70
2
  9
$DIMALTTD
 70
3
  9
$DIMTXSTY
  7
Standard
  9
$DIMAUNIT
 70
0
  9
$DIMADEC
 70
0
  9
$DIMALTRND
 40
0.0
  9
$DIMAZIN
 70
0
  9
$DIMDSEP
 70
44
  9
$DIMATFIT
 70
3
  9
$DIMFRAC
 70
0
  9
$DIMLDRBLK
  1

  9
$DIMLUNIT
 70
2
  9
$DIMLWD
 70
-2
  9
$DIMLWE
 70
-2
  9
$DIMTMOVE
 70
0
  9
$DIMFXL
 40
1.0
  9
$DIMFXLON
 70
0
  9
$DIMJOGANG
 40
0.785398163397
  9
$DIMTFILL
 70
0
  9
$DIMTFILLCLR
 70
0
  9
$DIMARCSYM
 70
0
  9
$DIMLTYPE
  6

  9
$DIMLTEX1
  6

  9
$DIMLTEX2
  6

  9
$DIMTXTDIRECTION
 70
0
  9
$LUNITS
 70
2
  9
$LUPREC
 70
4
  9
$SKETCHINC
 40
1.0
  9
$FILLETRAD
 40
10.0
  9
$AUNITS
 70
0
  9
$AUPREC
 70
2
  9
$MENU
  1
.
  9
$ELEVATION
 40
0.0
  9
$PELEVATION
 40
0.0
  9
$THICKNESS
 40
0.0
  9
$LIMCHECK
 70
0
  9
$CHAMFERA
 40
0.0
  9
$CHAMFERB
 40
0.0
  9
$CHAMFERC
 40
0.0
  9
$CHAMFERD
 40
0.0
  9
$SKPOLY
 70
0
  9
$TDCREATE
 40
2461297.6590046296
  9
$TDUCREATE
 40
2458532.153996898
  9
$TDUPDATE
 40
2461297.6590046296
  9
$TDUUPDATE
 40
2458532.1544311
  9
$TDINDWG
 40
0.0
  9
$TDUSRTIMER
 40
0.0
  9
$USRTIMER
 70
1
  9
$ANGBASE
 50
0.0
  9
$ANGDIR
 70
0
  9
$PDMODE
 70
0
  9
$PDSIZE
 40
0.0
  9
$PLINEWID
 40
0.0
  9
$SPLFRAME
 70
0
  9
$SPLINETYPE
 70
6
  9
$SPLINESEGS
 70
8
  9
$HANDSEED
  5
53
  9
$SURFTAB1
 70
6
  9
$SURFTAB2
 70
6
  9
$SURFTYPE
 70
6
  9
$SURFU
 70
6
  9
$SURFV
 70
6
  9
$UCSBASE
  2

  9
$UCSNAME
  2

  9
$UCSORG
 10
0.0
 20
0.0
 30
0.0
  9
$UCSXDIR
 10
1.0
 20
0.0
 30
0.0
  9
$UCSYDIR
 10
0.0
 20
1.0
 30
0.0
  9
$UCSORTHOREF
  2

  9
$UCSORTHOVIEW
 70
0
  9
$UCSORGTOP
 10
0.0
 20
0.0
 30
0.0
  9
$UCSORGBOTTOM
 10
0.0
 20
0.0
 30
0.0
  9
$UCSORGLEFT
 10
0.0
 20
0.0
 30
0.0
  9
$UCSORGRIGHT
 10
0.0
 20
0.0
 30
0.0
  9
$UCSORGFRONT
 10
0.0
 20
0.0
 30
0.0
  9
$UCSORGBACK
 10
0.0
 20
0.0
 30
0.0
  9
$PUCSBASE
  2

  9
$PUCSNAME
  2

  9
$PUCSORG
 10
0.0
 20
0.0
 30
0.0
  9
$PUCSXDIR
 10
1.0
 20
0.0
 30
0.0
  9
$PUCSYDIR
 10
0.0
 20
1.0
 30
0.0
  9
$PUCSORTHOREF
  2

  9
$PUCSORTHOVIEW
 70
0
  9
$PUCSORGTOP
 10
0.0
 20
0.0
 30
0.0
  9
$PUCSORGBOTTOM
 10
0.0
 20
0.0
 30
0.0
  9
$PUCSORGLEFT
 10
0.0
 20
0.0
 30
0.0
  9
$PUCSORGRIGHT
 10
0.0
 20
0.0
 30
0.0
  9
$PUCSORGFRONT
 10
0.0
 20
0.0
 30
0.0
  9
$PUCSORGBACK
 10
0.0
 20
0.0
 30
0.0
  9
$USERI1
 70
0
  9
$USERI2
 70
0
  9
$USERI3
 70
0
  9
$USERI4
 70
0
  9
$USERI5
 70
0
  9
$USERR1
 40
0.0
  9
$USERR2
 40
0.0
  9
$USERR3
 40
0.0
  9
$USERR4
 40
0.0
  9
$USERR5
 40
0.0
  9
$WORLDVIEW
 70
1
  9
$SHADEDGE
 70
3
  9
$SHADEDIF
 70
70
  9
$TILEMODE
 70
1
  9
$MAXACTVP
 70
64
  9
$PINSBASE
 10
0.0
 20
0.0
 30
0.0
  9
$PLIMCHECK
 70
0
  9
$PEXTMIN
 10
1e+20
 20
1e+20
 30
1e+20
  9
$PEXTMAX
 10
-1e+20
 20
-1e+20
 30
-1e+20
  9
$PLIMMIN
 10
0.0
 20
0.0
  9
$PLIMMAX
 10
420.0
 20
297.0
  9
$UNITMODE
 70
0
  9
$VISRETAIN
 70
1
  9
$PLINEGEN
 70
0
  9
$PSLTSCALE
 70
1
  9
$TREEDEPTH
 70
3020
  9
$CMLSTYLE
  2
Standard
  9
$CMLJUST
 70
0
  9
$CMLSCALE
 40
20.0
  9
$PROXYGRAPHICS
 70
1
  9
$MEASUREMENT
 70
1
  9
$CELWEIGHT
370
-1
  9
$ENDCAPS
280
0
  9
$JOINSTYLE
280
0
  9
$LWDISPLAY
290
0
  9
$INSUNITS
 70
4
  9
$HYPERLINKBASE
  1

  9
$STYLESHEET
  1

  9
$XEDIT
290
1
  9
$CEPSNTYPE
380
0
  9
$PSTYLEMODE
290
1
  9
$FINGERPRINTGUID
  2
{2BAA850A-853C-4DA0-8B1C-CD5DDB686DAD}
  9
$VERSIONGUID
  2
{D8E47362-293E-4F12-85FD-A39095EC986D}
  9
$EXTNAMES
290
1
  9
$PSVPSCALE
 40
0.0
  9
$OLESTARTUP
290
0
  9
$SORTENTS
280
127
  9
$INDEXCTL
280
0
  9
$HIDETEXT
280
1
  9
$XCLIPFRAME
280
1
  9
$HALOGAP
280
0
  9
$OBSCOLOR
 70
257
  9
$OBSLTYPE
280
0
  9
$INTERSECTIONDISPLAY
280
0
  9
$INTERSECTIONCOLOR
 70
257
  9
$DIMASSOC
280
2
  9
$PROJECTNAME
  1

  9
$CAMERADISPLAY
290
0
  9
$LENSLENGTH
 40
50.0
  9
$CAMERAHEIGHT
 40
0.0
  9
$STEPSPERSEC
 40
24.0
  9
$STEPSIZE
 40
100.0
  9
$3DDWFPREC
 40
2.0
  9
$PSOLWIDTH
 40
0.005
  9
$PSOLHEIGHT
 40
0.08
  9
$LOFTANG1
 40
1.570796326795
  9
$LOFTANG2
 40
1.570796326795
  9
$LOFTMAG1
 40
0.0
  9
$LOFTMAG2
 40
0.0
  9
$LOFTPARAM
 70
7
  9
$LOFTNORMALS
280
1
  9
$LATITUDE
 40
37.795
  9
$LONGITUDE
 40
-122.394
  9
$NORTHDIRECTION
 40
0.0
  9
$TIMEZONE
 70
-8000
  9
$LIGHTGLYPHDISPLAY
280
1
  9
$TILEMODELIGHTSYNCH
280
1
  9
$CMATERIAL
347
20
  9
$SOLIDHIST
280
0
  9
$SHOWHIST
280
1
  9
$DWFFRAME
280
2
  9
$DGNFRAME
280
2
  9
$REALWORLDSCALE
290
1
  9
$INTERFERECOLOR
 62
256
  9
$CSHADOW
280
0
  9
$SHADOWPLANELOCATION
 40
0.0
  0
ENDSEC
  0
SECTION
  2
CLASSES
  0
CLASS
  1
ACDBDICTIONARYWDFLT
  2
AcDbDictionaryWithDefault
  3
ObjectDBX Classes
 90
0
 91
0
280
0
281
0
  0
CLASS
  1
SUN
  2
AcDbSun
  3
SCENEOE
 90
1153
 91
0
280
0
281
0
  0
CLASS
  1
VISUALSTYLE
  2
AcDbVisualStyle
  3
ObjectDBX Classes
 90
4095
 91
0
280
0
281
0
  0
CLASS
  1
MATERIAL
  2
AcDbMaterial
  3
ObjectDBX Classes
 90
1153
 91
0
280
0
281
0
  0
CLASS
  1
SCALE
  2
AcDbScale
  3
ObjectDBX Classes
 90
1153
 91
0
280
0
281
0
  0
CLASS
  1
TABLESTYLE
  2
AcDbTableStyle
  3
ObjectDBX Classes
 90
4095
 91
0
280
0
281
0
  0
CLASS
  1
MLEADERSTYLE
  2
AcDbMLeaderStyle
  3
ACDB_MLEADERSTYLE_CLASS
 90
4095
 91
0
280
0
281
0
  0
CLASS
  1
DICTIONARYVAR
  2
AcDbDictionaryVar
  3
ObjectDBX Classes
 90
0
 91
0
280
0
281
0
  0
CLASS
  1
CELLSTYLEMAP
  2
AcDbCellStyleMap
  3
ObjectDBX Classes
 90
1152
 91
0
280
0
281
0
  0
CLASS
  1
MENTALRAYRENDERSETTINGS
  2
AcDbMentalRayRenderSettings
  3
SCENEOE
 90
1024
 91
0
280
0
281
0
  0
CLASS
  1
ACDBDETAILVIEWSTYLE
  2
AcDbDetailViewStyle
  3
ObjectDBX Classes
 90
1025
 91
0
280
0
281
0
  0
CLASS
  1
ACDBSECTIONVIEWSTYLE
  2
AcDbSectionViewStyle
  3
ObjectDBX Classes
 90
1025
 91
0
280
0
281
0
  0
CLASS
  1
RASTERVARIABLES
  2
AcDbRasterVariables
  3
ISM
 90
0
 91
0
280
0
281
0
  0
CLASS
  1
ACDBPLACEHOLDER
  2
AcDbPlaceHolder
  3
ObjectDBX Classes
 90
0
 91
0
280
0
281
0
  0
CLASS
  1
LAYOUT
  2
AcDbLayout
  3
ObjectDBX Classes
 90
0
 91
0
280
0
281
0
  0
ENDSEC
  0
SECTION
  2
TABLES
  0
TABLE
  2
VPORT
  5
8
330
0
100
AcDbSymbolTable
 70
1
  0
VPORT
  5
4F
330
8
100
AcDbSymbolTableRecord
100
AcDbViewportTableRecord
  2
*Active
 70
0
 10
0.0
 20
0.0
 11
1.0
 21
1.0
 12
0.31571465244133634
 22
-31.110240896634735
 13
0.0
 23
0.0
 14
0.5
 24
0.5
 15
0.5
 25
0.5
 16
0.0
 26
0.0
 36
1.0
 17
0.0
 27
0.0
 37
0.0
 40
136.0240529789915
 41
1.34
 42
50.0
 43
0.0
 44
0.0
 50
0.0
 51
0.0
 71
0
 72
1000
 73
1
 74
3
 75
0
 76
0
 77
0
 78
0
281
0
 65
1
110
0.0
120
0.0
130
0.0
111
1.0
121
0.0
131
0.0
112
0.0
122
1.0
132
0.0
 79
0
146
0.0
  0
ENDTAB
  0
TABLE
  2
LTYPE
  5
2
330
0
100
AcDbSymbolTable
 70
3
  0
LTYPE
  5
24
330
2
100
AcDbSymbolTableRecord
100
AcDbLinetypeTableRecord
  2
ByBlock
 70
0
  3

 72
65
 73
0
 40
0.0
  0
LTYPE
  5
25
330
2
100
AcDbSymbolTableRecord
100
AcDbLinetypeTableRecord
  2
ByLayer
 70
0
  3

 72
65
 73
0
 40
0.0
  0
LTYPE
  5
26
330
2
100
AcDbSymbolTableRecord
100
AcDbLinetypeTableRecord
  2
Continuous
 70
0
  3

 72
65
 73
0
 40
0.0
  0
ENDTAB
  0
TABLE
  2
LAYER
  5
1
330
0
100
AcDbSymbolTable
 70
2
  0
LAYER
  5
27
330
1
100
AcDbSymbolTableRecord
100
AcDbLayerTableRecord
  2
0
 70
0
 62
7
  6
Continuous
370
-3
390
13
347
21
  0
LAYER
  5
28
330
1
100
AcDbSymbolTableRecord
100
AcDbLayerTableRecord
  2
Defpoints
 70
0
 62
7
  6
Continuous
290
0
370
-3
390
13
347
21
  0
ENDTAB
  0
TABLE
  2
STYLE
  5
5
330
0
100
AcDbSymbolTable
 70
1
  0
STYLE
  5
29
330
5
100
AcDbSymbolTableRecord
100
AcDbTextStyleTableRecord
  2
Standard
 70
0
 40
0.0
 41
1.0
 50
0.0
 71
0
 42
2.5
  3
txt
  4

  0
ENDTAB
  0
TABLE
  2
VIEW
  5
7
330
0
100
AcDbSymbolTable
 70
0
  0
ENDTAB
  0
TABLE
  2
UCS
  5
6
330
0
100
AcDbSymbolTable
 70
0
  0
ENDTAB
  0
TABLE
  2
APPID
  5
3
330
0
100
AcDbSymbolTable
 70
3
  0
APPID
  5
2A
330
3
100
AcDbSymbolTableRecord
100
AcDbRegAppTableRecord
  2
ACAD
 70
0
  0
APPID
  5
50
330
3
100
AcDbSymbolTableRecord
100
AcDbRegAppTableRecord
  2
HATCHBACKGROUNDCOLOR
 70
0
  0
APPID
  5
51
330
3
100
AcDbSymbolTableRecord
100
AcDbRegAppTableRecord
  2
EZDXF
 70
0
  0
ENDTAB
  0
TABLE
  2
DIMSTYLE
  5
4
330
0
100
AcDbSymbolTable
 70
1
100
AcDbDimStyleTable
  0
DIMSTYLE
105
2B
330
4
100
AcDbSymbolTableRecord
100
AcDbDimStyleTableRecord
  2
Standard
 70
0
 40
1.0
 41
2.5
 42
0.625
 43
3.75
 44
1.25
 45
0.0
 46
0.0
 47
0.0
 48
0.0
 49
2.5
140
2.5
141
2.5
142
0.0
143
0.03937007874
144
1.0
145
0.0
146
1.0
147
0.625
148
0.0
 69
0
 70
0
 71
0
 72
0
 73
0
 74
0
 75
0
 76
0
 77
1
 78
8
 79
3
170
0
171
3
172
1
173
0
174
0
175
0
176
0
177
0
178
0
179
2
271
2
272
2
273
2
274
3
275
0
276
0
277
2
278
44
279
0
280
0
281
0
282
0
283
0
284
8
285
0
286
0
288
0
289
3
290
0
371
-2
372
-2
  0
ENDTAB
  0
TABLE
  2
BLOCK_RECORD
  5
9
330
0
100
AcDbSymbolTable
 70
2
  0
BLOCK_RECORD
  5
17
330
9
100
AcDbSymbolTableRecord
100
AcDbBlockTableRecord
  2
*Model_Space
340
1A
 70
0
280
1
281
0
  0
BLOCK_RECORD
  5
1B
330
9
100
AcDbSymbolTableRecord
100
AcDbBlockTableRecord
  2
*Paper_Space
340
1E
 70
0
280
1
281
0
  0
ENDTAB
  0
ENDSEC
  0
SECTION
  2
BLOCKS
  0
BLOCK
  5
18
330
17
100
AcDbEntity
  8
0
100
AcDbBlockBegin
  2
*Model_Space
 70
0
 10
0.0
 20
0.0
 30
0.0
  3
*Model_Space
  1

  0
ENDBLK
  5
19
330
17
100
AcDbEntity
  8
0
100
AcDbBlockEnd
  0
BLOCK
  5
1C
330
1B
100
AcDbEntity
  8
0
100
AcDbBlockBegin
  2
*Paper_Space
 70
0
 10
0.0
 20
0.0
 30
0.0
  3
*Paper_Space
  1

  0
ENDBLK
  5
1D
330
1B
100
AcDbEntity
  8
0
100
AcDbBlockEnd
  0
ENDSEC
  0
SECTION
  2
ENTITIES
  0
SPLINE
  5
2F
330
17
100
AcDbEntity
  8
0
100
AcDbSpline
 70
0
 71
3
 72
875
 73
871
 74
0
 40
0.0
 40
0.0
 40
0.0
 40
0.0
 40
1.130442379082188
 40
1.130442379082188
 40
1.130442379082188
 40
2.260885806854228
 40
2.260885806854228
 40
2.260885806854228
 40
3.391328185936416
 40
3.391328185936416
 40
3.391328185936416
 40
5.057733461649681
 40
5.057733461649681
 40
5.057733461649681
 40
6.7241401093515565
 40
6.7241401093515565
 40
6.7241401093515565
 40
8.390545899560532
 40
8.390545899560532
 40
8.390545899560532
 40
10.056952547262405
 40
10.056952547262405
 40
10.056952547262405
 40
13.389764985173258
 40
13.389764985173258
 40
13.389764985173258
 40
15.056170775382231
 40
15.056170775382231
 40
15.056170775382231
 40
16.722577423084108
 40
16.722577423084108
 40
16.722577423084108
 40
18.10167596987799
 40
18.10167596987799
 40
18.10167596987799
 40
19.480774516671875
 40
19.480774516671875
 40
19.480774516671875
 40
20.9791361083506
 40
20.9791361083506
 40
20.9791361083506
 40
22.477498754944538
 40
22.477498754944538
 40
22.477498754944538
 40
23.975861345025123
 40
23.975861345025123
 40
23.975861345025123
 40
25.29856477048262
 40
25.29856477048262
 40
25.29856477048262
 40
26.321726233826993
 40
26.321726233826993
 40
26.321726233826993
 40
27.351871495751737
 40
27.351871495751737
 40
27.351871495751737
 40
28.29859360854144
 40
28.29859360854144
 40
28.29859360854144
 40
29.51099044764735
 40
29.51099044764735
 40
29.51099044764735
 40
30.309835271959308
 40
30.309835271959308
 40
30.309835271959308
 40
31.9196963600489
 40
31.9196963600489
 40
31.9196963600489
 40
33.52955741307242
 40
33.52955741307242
 40
33.52955741307242
 40
35.139418501162005
 40
35.139418501162005
 40
35.139418501162005
 40
36.49690112705635
 40
36.49690112705635
 40
36.49690112705635
 40
37.85438269251976
 40
37.85438269251976
 40
37.85438269251976
 40
39.48098333523604
 40
39.48098333523604
 40
39.48098333523604
 40
40.31495912870369
 40
40.31495912870369
 40
40.31495912870369
 40
41.1659564268222
 40
41.1659564268222
 40
41.1659564268222
 40
42.01695481948167
 40
42.01695481948167
 40
42.01695481948167
 40
43.335587004152586
 40
43.335587004152586
 40
43.335587004152586
 40
44.65421777606867
 40
44.65421777606867
 40
44.65421777606867
 40
46.18076209051388
 40
46.18076209051388
 40
46.18076209051388
 40
47.707306460429145
 40
47.707306460429145
 40
47.707306460429145
 40
49.24613024854948
 40
49.24613024854948
 40
49.24613024854948
 40
50.784954889593735
 40
50.784954889593735
 40
50.784954889593735
 40
52.44367294376026
 40
52.44367294376026
 40
52.44367294376026
 40
54.102390521460876
 40
54.102390521460876
 40
54.102390521460876
 40
55.76110945482029
 40
55.76110945482029
 40
55.76110945482029
 40
59.078545086687434
 40
59.078545086687434
 40
59.078545086687434
 40
60.73726402004685
 40
60.73726402004685
 40
60.73726402004685
 40
62.39598159774747
 40
62.39598159774747
 40
62.39598159774747
 40
64.054699651914
 40
64.054699651914
 40
64.054699651914
 40
65.71341810880776
 40
65.71341810880776
 40
65.71341810880776
 40
67.22461844437416
 40
67.22461844437416
 40
67.22461844437416
 40
68.73581995663716
 40
68.73581995663716
 40
68.73581995663716
 40
69.81525049918123
 40
69.81525049918123
 40
69.81525049918123
 40
70.89467962968911
 40
70.89467962968911
 40
70.89467962968911
 40
71.97410895631313
 40
71.97410895631313
 40
71.97410895631313
 40
73.05353828293715
 40
73.05353828293715
 40
73.05353828293715
 40
74.07757500537292
 40
74.07757500537292
 40
74.07757500537292
 40
75.1016117278087
 40
75.1016117278087
 40
75.1016117278087
 40
76.76748051009199
 40
76.76748051009199
 40
76.76748051009199
 40
78.43334836471311
 40
78.43334836471311
 40
78.43334836471311
 40
80.09921614944184
 40
80.09921614944184
 40
80.09921614944184
 40
81.76508500161749
 40
81.76508500161749
 40
81.76508500161749
 40
83.43095278634623
 40
83.43095278634623
 40
83.43095278634623
 40
85.09682064096735
 40
85.09682064096735
 40
85.09682064096735
 40
86.76268942325063
 40
86.76268942325063
 40
86.76268942325063
 40
88.42855720797937
 40
88.42855720797937
 40
88.42855720797937
 40
89.6238298790988
 40
89.6238298790988
 40
89.6238298790988
 40
90.81910162925105
 40
90.81910162925105
 40
90.81910162925105
 40
92.40609770431678
 40
92.40609770431678
 40
92.40609770431678
 40
93.99309308574075
 40
93.99309308574075
 40
93.99309308574075
 40
95.38962922205123
 40
95.38962922205123
 40
95.38962922205123
 40
96.78616511582625
 40
96.78616511582625
 40
96.78616511582625
 40
98.43030309097371
 40
98.43030309097371
 40
98.43030309097371
 40
99.84692390168206
 40
99.84692390168206
 40
99.84692390168206
 40
101.26354382773174
 40
101.26354382773174
 40
101.26354382773174
 40
102.68016463844009
 40
102.68016463844009
 40
102.68016463844009
 40
104.09678544914844
 40
104.09678544914844
 40
104.09678544914844
 40
105.5134062598568
 40
105.5134062598568
 40
105.5134062598568
 40
106.83678729569833
 40
106.83678729569833
 40
106.83678729569833
 40
108.16016820356877
 40
108.16016820356877
 40
108.16016820356877
 40
109.08485960278962
 40
109.08485960278962
 40
109.08485960278962
 40
110.00955100201047
 40
110.00955100201047
 40
110.00955100201047
 40
111.42120168168161
 40
111.42120168168161
 40
111.42120168168161
 40
112.83285372900276
 40
112.83285372900276
 40
112.83285372900276
 40
114.24450527245284
 40
114.24450527245284
 40
114.24450527245284
 40
115.65615681590292
 40
115.65615681590292
 40
115.65615681590292
 40
117.06780886322407
 40
117.06780886322407
 40
117.06780886322407
 40
118.46048863872022
 40
118.46048863872022
 40
118.46048863872022
 40
119.85316807980672
 40
119.85316807980672
 40
119.85316807980672
 40
120.91501774023564
 40
120.91501774023564
 40
120.91501774023564
 40
121.97686640384924
 40
121.97686640384924
 40
121.97686640384924
 40
123.4161064342976
 40
123.4161064342976
 40
123.4161064342976
 40
124.8553457979512
 40
124.8553457979512
 40
124.8553457979512
 40
126.2945850831585
 40
126.2945850831585
 40
126.2945850831585
 40
127.88834417935591
 40
127.88834417935591
 40
127.88834417935591
 40
129.48210202698334
 40
129.48210202698334
 40
129.48210202698334
 40
131.09986179652793
 40
131.09986179652793
 40
131.09986179652793
 40
132.7176216707571
 40
132.7176216707571
 40
132.7176216707571
 40
134.33538154498626
 40
134.33538154498626
 40
134.33538154498626
 40
135.95314141921543
 40
135.95314141921543
 40
135.95314141921543
 40
139.18866116767376
 40
139.18866116767376
 40
139.18866116767376
 40
140.80642104190292
 40
140.80642104190292
 40
140.80642104190292
 40
142.4241808114475
 40
142.4241808114475
 40
142.4241808114475
 40
144.04194068567668
 40
144.04194068567668
 40
144.04194068567668
 40
145.10378978788896
 40
145.10378978788896
 40
145.10378978788896
 40
146.16563980717135
 40
146.16563980717135
 40
146.16563980717135
 40
147.36315978934326
 40
147.36315978934326
 40
147.36315978934326
 40
148.56067906440816
 40
148.56067906440816
 40
148.56067906440816
 40
149.74009858324146
 40
149.74009858324146
 40
149.74009858324146
 40
150.91951903542042
 40
150.91951903542042
 40
150.91951903542042
 40
152.2327017173973
 40
152.2327017173973
 40
152.2327017173973
 40
153.54588443161532
 40
153.54588443161532
 40
153.54588443161532
 40
154.4549346067949
 40
154.4549346067949
 40
154.4549346067949
 40
155.36398566689272
 40
155.36398566689272
 40
155.36398566689272
 40
156.98174527940998
 40
156.98174527940998
 40
156.98174527940998
 40
158.48342668095225
 40
158.48342668095225
 40
158.48342668095225
 40
159.9851093794275
 40
159.9851093794275
 40
159.9851093794275
 40
161.54317337942751
 40
161.54317337942751
 40
161.54317337942751
 40
163.1012383794275
 40
163.1012383794275
 40
163.1012383794275
 40
164.65930237942752
 40
164.65930237942752
 40
164.65930237942752
 40
166.21736737942751
 40
166.21736737942751
 40
166.21736737942751
 40
167.77543137942752
 40
167.77543137942752
 40
167.77543137942752
 40
169.22239984626327
 40
169.22239984626327
 40
169.22239984626327
 40
170.60474438862346
 40
170.60474438862346
 40
170.60474438862346
 40
171.9870881652789
 40
171.9870881652789
 40
171.9870881652789
 40
173.40654061875875
 40
173.40654061875875
 40
173.40654061875875
 40
174.9661602907099
 40
174.9661602907099
 40
174.9661602907099
 40
176.52577997623453
 40
176.52577997623453
 40
176.52577997623453
 40
178.08539964818567
 40
178.08539964818567
 40
178.08539964818567
 40
184.32387734965585
 40
184.32387734965585
 40
184.32387734965585
 40
187.44311570722377
 40
187.44311570722377
 40
187.44311570722377
 40
189.0027353927484
 40
189.0027353927484
 40
189.0027353927484
 40
190.56235506469955
 40
190.56235506469955
 40
190.56235506469955
 40
192.12197473665069
 40
192.12197473665069
 40
192.12197473665069
 40
193.24694232966303
 40
193.24694232966303
 40
193.24694232966303
 40
194.37190932050765
 40
194.37190932050765
 40
194.37190932050765
 40
195.57540138176938
 40
195.57540138176938
 40
195.57540138176938
 40
196.7788940762686
 40
196.7788940762686
 40
196.7788940762686
 40
198.44254140861102
 40
198.44254140861102
 40
198.44254140861102
 40
199.54659939801422
 40
199.54659939801422
 40
199.54659939801422
 40
200.650657464114
 40
200.650657464114
 40
200.650657464114
 40
201.88503283365966
 40
201.88503283365966
 40
201.88503283365966
 40
203.11940765440943
 40
203.11940765440943
 40
203.11940765440943
 40
204.8129554544095
 40
204.8129554544095
 40
204.8129554544095
 40
206.17043808030382
 40
206.17043808030382
 40
206.17043808030382
 40
207.777079731034
 40
207.777079731034
 40
207.777079731034
 40
209.1039927629728
 40
209.1039927629728
 40
209.1039927629728
 40
210.43090562473768
 40
210.43090562473768
 40
210.43090562473768
 40
211.75781865667648
 40
211.75781865667648
 40
211.75781865667648
 40
212.68251005589732
 40
212.68251005589732
 40
212.68251005589732
 40
213.60720145511817
 40
213.60720145511817
 40
213.60720145511817
 40
215.03546569755687
 40
215.03546569755687
 40
215.03546569755687
 40
216.46373112573366
 40
216.46373112573366
 40
216.46373112573366
 40
217.42361625173834
 40
217.42361625173834
 40
217.42361625173834
 40
218.38350137774302
 40
218.38350137774302
 40
218.38350137774302
 40
219.2925515529226
 40
219.2925515529226
 40
219.2925515529226
 40
220.20160261302044
 40
220.20160261302044
 40
220.20160261302044
 40
221.2186132990813
 40
221.2186132990813
 40
221.2186132990813
 40
222.23562398514218
 40
222.23562398514218
 40
222.23562398514218
 40
223.58116901482347
 40
223.58116901482347
 40
223.58116901482347
 40
224.92671454795789
 40
224.92671454795789
 40
224.92671454795789
 40
226.04448841969133
 40
226.04448841969133
 40
226.04448841969133
 40
227.16226289746805
 40
227.16226289746805
 40
227.16226289746805
 40
228.71545174840023
 40
228.71545174840023
 40
228.71545174840023
 40
230.268639981457
 40
230.268639981457
 40
230.268639981457
 40
231.82182883238917
 40
231.82182883238917
 40
231.82182883238917
 40
233.1143743471193
 40
233.1143743471193
 40
233.1143743471193
 40
234.24481677613903
 40
234.24481677613903
 40
234.24481677613903
 40
235.37525915522122
 40
235.37525915522122
 40
235.37525915522122
 40
236.50570158424094
 40
236.50570158424094
 40
236.50570158424094
 40
237.8691136268359
 40
237.8691136268359
 40
237.8691136268359
 40
239.23252476887927
 40
239.23252476887927
 40
239.23252476887927
 40
240.6109735248891
 40
240.6109735248891
 40
240.6109735248891
 40
241.93706074159923
 40
241.93706074159923
 40
241.93706074159923
 40
243.26314767096133
 40
243.26314767096133
 40
243.26314767096133
 40
244.73333023543861
 40
244.73333023543861
 40
244.73333023543861
 40
246.2035128575125
 40
246.2035128575125
 40
246.2035128575125
 40
247.67369542198978
 40
247.67369542198978
 40
247.67369542198978
 40
248.84472649082528
 40
248.84472649082528
 40
248.84472649082528
 40
250.01575755966078
 40
250.01575755966078
 40
250.01575755966078
 40
251.03364887691475
 40
251.03364887691475
 40
251.03364887691475
 40
252.0515401941687
 40
252.0515401941687
 40
252.0515401941687
 40
252.9516740369743
 40
252.9516740369743
 40
252.9516740369743
 40
254.22214862270872
 40
254.22214862270872
 40
254.22214862270872
 40
255.49262418597982
 40
255.49262418597982
 40
255.49262418597982
 40
256.7630987717142
 40
256.7630987717142
 40
256.7630987717142
 40
257.66323186194313
 40
257.66323186194313
 40
257.66323186194313
 40
259.288606469689
 40
259.288606469689
 40
259.288606469689
 40
260.91398201518365
 40
260.91398201518365
 40
260.91398201518365
 40
262.53935697024417
 40
262.53935697024417
 40
262.53935697024417
 40
263.8095177702443
 40
263.8095177702443
 40
263.8095177702443
 40
264.71560614439994
 40
264.71560614439994
 40
264.71560614439994
 40
265.62169391110524
 40
265.62169391110524
 40
265.62169391110524
 40
266.9672391610471
 40
266.9672391610471
 40
266.9672391610471
 40
268.3127844109889
 40
268.3127844109889
 40
268.3127844109889
 40
269.9194260617191
 40
269.9194260617191
 40
269.9194260617191
 40
271.05724470835526
 40
271.05724470835526
 40
271.05724470835526
 40
272.1950626603968
 40
272.1950626603968
 40
272.1950626603968
 40
273.3328820264343
 40
273.3328820264343
 40
273.3328820264343
 40
274.7294179202093
 40
274.7294179202093
 40
274.7294179202093
 40
275.92168593015714
 40
275.92168593015714
 40
275.92168593015714
 40
277.11395493441415
 40
277.11395493441415
 40
277.11395493441415
 40
278.32207268874316
 40
278.32207268874316
 40
278.32207268874316
 40
279.5301896487143
 40
279.5301896487143
 40
279.5301896487143
 40
280.73830740304334
 40
280.73830740304334
 40
280.73830740304334
 40
282.06709477948095
 40
282.06709477948095
 40
282.06709477948095
 40
283.3958834622872
 40
283.3958834622872
 40
283.3958834622872
 40
284.45773220564615
 40
284.45773220564615
 40
284.45773220564615
 40
285.5195818660751
 40
285.5195818660751
 40
285.5195818660751
 40
286.7204234228964
 40
286.7204234228964
 40
286.7204234228964
 40
287.92126497971765
 40
287.92126497971765
 40
287.92126497971765
 40
289.122106536539
 40
289.122106536539
 40
289.122106536539
 40
290.22372645309684
 40
290.22372645309684
 40
290.22372645309684
 40
291.325347330483
 40
291.325347330483
 40
291.325347330483
 40
292.85189092381796
 40
292.85189092381796
 40
292.85189092381796
 40
294.2375452515538
 40
294.2375452515538
 40
294.2375452515538
 40
295.62319957928963
 40
295.62319957928963
 40
295.62319957928963
 40
297.00885390702547
 40
297.00885390702547
 40
297.00885390702547
 40
298.67162872186304
 40
298.67162872186304
 40
298.67162872186304
 40
300.3344025413406
 40
300.3344025413406
 40
300.3344025413406
 40
301.9971773608074
 40
301.9971773608074
 40
301.9971773608074
 40
305.3227259997518
 40
305.3227259997518
 40
305.3227259997518
 40
308.64827463869625
 40
308.64827463869625
 40
308.64827463869625
 40
310.3110494581631
 40
310.3110494581631
 40
310.3110494581631
 40
311.97382327764063
 40
311.97382327764063
 40
311.97382327764063
 40
313.6365980971075
 40
313.6365980971075
 40
313.6365980971075
 40
315.2993729165743
 40
315.2993729165743
 40
315.2993729165743
 40
316.43937713554766
 40
316.43937713554766
 40
316.43937713554766
 40
317.579381354521
 40
317.579381354521
 40
317.579381354521
 40
318.6588112302702
 40
318.6588112302702
 40
318.6588112302702
 40
319.7382403607781
 40
319.7382403607781
 40
319.7382403607781
 40
320.65024494669035
 40
320.65024494669035
 40
320.65024494669035
 40
321.56224823273544
 40
321.56224823273544
 40
321.56224823273544
 40
323.10347027672066
 40
323.10347027672066
 40
323.10347027672066
 40
324.6446923207059
 40
324.6446923207059
 40
324.6446923207059
 40
326.18591437567943
 40
326.18591437567943
 40
326.18591437567943
 40
327.72713641966465
 40
327.72713641966465
 40
327.72713641966465
 40
329.2683584746382
 40
329.2683584746382
 40
329.2683584746382
 40
330.5829053281284
 40
330.5829053281284
 40
330.5829053281284
 40
331.8974528901911
 40
331.8974528901911
 40
331.8974528901911
 40
333.5152125027084
 40
333.5152125027084
 40
333.5152125027084
 40
335.13297211522564
 40
335.13297211522564
 40
335.13297211522564
 40
336.50392359342646
 40
336.50392359342646
 40
336.50392359342646
 40
339.24582414097443
 40
339.24582414097443
 40
339.24582414097443
 40
340.61677561917526
 40
340.61677561917526
 40
340.61677561917526
 40
342.02417929571624
 40
342.02417929571624
 40
342.02417929571624
 40
343.4315829722572
 40
343.4315829722572
 40
343.4315829722572
 40
344.59647446507404
 40
344.59647446507404
 40
344.59647446507404
 40
345.76136657576626
 40
345.76136657576626
 40
345.76136657576626
 40
347.3654984016422
 40
347.3654984016422
 40
347.3654984016422
 40
348.9696302275181
 40
348.9696302275181
 40
348.9696302275181
 40
350.57376297423514
 40
350.57376297423514
 40
350.57376297423514
 40
352.17789480011106
 40
352.17789480011106
 40
352.17789480011106
 40
355.3861594489518
 40
355.3861594489518
 40
355.3861594489518
 40
356.9902912748277
 40
356.9902912748277
 40
356.9902912748277
 40
358.5944240977925
 40
358.5944240977925
 40
358.5944240977925
 40
360.19855584742066
 40
360.19855584742066
 40
360.19855584742066
 40
361.49732675527855
 40
361.49732675527855
 40
361.49732675527855
 40
362.7960967177634
 40
362.7960967177634
 40
362.7960967177634
 40
364.19377267769477
 40
364.19377267769477
 40
364.19377267769477
 40
365.5914493242497
 40
365.5914493242497
 40
365.5914493242497
 40
366.98912528418106
 40
366.98912528418106
 40
366.98912528418106
 40
368.4385691189953
 40
368.4385691189953
 40
368.4385691189953
 40
369.88801394696014
 40
369.88801394696014
 40
369.88801394696014
 40
371.43531409594254
 40
371.43531409594254
 40
371.43531409594254
 40
372.98261380711745
 40
372.98261380711745
 40
372.98261380711745
 40
374.52991351829235
 40
374.52991351829235
 40
374.52991351829235
 40
376.07721366727475
 40
376.07721366727475
 40
376.07721366727475
 40
377.62451337844965
 40
377.62451337844965
 40
377.62451337844965
 40
379.17181308962455
 40
379.17181308962455
 40
379.17181308962455
 40
380.71911323860695
 40
380.71911323860695
 40
380.71911323860695
 40
382.2947729807623
 40
382.2947729807623
 40
382.2947729807623
 40
383.8704327229176
 40
383.8704327229176
 40
383.8704327229176
 40
385.49879556190035
 40
385.49879556190035
 40
385.49879556190035
 40
387.1271570592424
 40
387.1271570592424
 40
387.1271570592424
 40
388.75551989822515
 40
388.75551989822515
 40
388.75551989822515
 40
390.3838827372079
 40
390.3838827372079
 40
390.3838827372079
 40
392.01224468176355
 40
392.01224468176355
 40
392.01224468176355
 40
393.4672431916913
 40
393.4672431916913
 40
393.4672431916913
 40
394.92224254548427
 40
394.92224254548427
 40
394.92224254548427
 40
396.2993902774945
 40
396.2993902774945
 40
396.2993902774945
 40
397.67653730239783
 40
397.67653730239783
 40
397.67653730239783
 40
399.0220828355323
 40
399.0220828355323
 40
399.0220828355323
 40
400.3676274561573
 40
400.3676274561573
 40
400.3676274561573
 40
401.9006636758485
 40
401.9006636758485
 40
401.9006636758485
 40
403.4336988957838
 40
403.4336988957838
 40
403.4336988957838
 40
404.9667341157191
 40
404.9667341157191
 40
404.9667341157191
 40
408.03280555534553
 40
408.03280555534553
 40
408.03280555534553
 40
411.09887599521613
 40
411.09887599521613
 40
411.09887599521613
 40
412.6319122149073
 40
412.6319122149073
 40
412.6319122149073
 40
414.1649474348426
 40
414.1649474348426
 40
414.1649474348426
 40
415.6979826547779
 40
415.6979826547779
 40
415.6979826547779
 40
417.0996440207319
 40
417.0996440207319
 40
417.0996440207319
 40
418.5013044805027
 40
418.5013044805027
 40
418.5013044805027
 40
419.65304200696653
 40
419.65304200696653
 40
419.65304200696653
 40
420.8047793128662
 40
420.8047793128662
 40
420.8047793128662
 40
420.8047793128662
 10
-30.060484
 20
36.665323
 30
0.0
 10
-29.683423176769963
 20
36.6870038580907
 30
0.0
 10
-29.30707917676998
 20
36.70582085809072
 30
0.0
 10
-28.931452
 20
36.72177400000001
 30
0.0
 10
-28.55654128023673
 20
36.73486292743803
 30
0.0
 10
-28.18449780343499
 20
36.7364952956887
 30
0.0
 10
-27.802419
 20
36.77822599999999
 30
0.0
 10
-27.42034055101188
 20
36.81995666559857
 30
0.0
 10
-27.028226794009623
 20
36.901785592861025
 30
0.0
 10
-26.673387000000005
 20
36.834677
 30
0.0
 10
-26.150311330056738
 20
36.735751026187764
 30
0.0
 10
-25.70823285390681
 20
36.31318033601078
 30
0.0
 10
-25.244455999999996
 20
35.97731900000001
 30
0.0
 10
-24.780678764255374
 20
35.6414573874671
 30
0.0
 10
-24.29520311502436
 20
35.39230527188006
 30
0.0
 10
-23.815524000000003
 20
35.119960000000006
 30
0.0
 10
-23.33584513180699
 20
34.84761486826229
 30
0.0
 10
-22.86196279185516
 20
34.55207660410094
 30
0.0
 10
-22.386593
 20
34.262601000000004
 30
0.0
 10
-21.910949551912516
 20
33.974311870229215
 30
0.0
 10
-21.434638885245878
 20
33.68852553689591
 30
0.0
 10
-20.957661
 20
33.405242
 30
0.0
 10
-20.002829295469844
 20
32.839283507805746
 30
0.0
 10
-19.055286842414628
 20
32.25510571219497
 30
0.0
 10
-18.099798
 20
31.690524000000003
 30
0.0
 10
-17.62134220102831
 20
31.40972405615925
 30
0.0
 10
-17.13923051123588
 20
31.137320879080644
 30
0.0
 10
-16.670867
 20
30.833165
 30
0.0
 10
-16.202503247755367
 20
30.529008964407936
 30
0.0
 10
-15.747887688216272
 20
30.19310019413548
 30
0.0
 10
-15.241935000000002
 20
29.975806000000006
 30
0.0
 10
-14.823214504598832
 20
29.795975880039606
 30
0.0
 10
-14.369333091841716
 20
29.697385155741472
 30
0.0
 10
-13.929434999999996
 20
29.552419
 30
0.0
 10
-13.48953690815828
 20
29.407452844258522
 30
0.0
 10
-13.063622137231992
 20
29.216111257073763
 30
0.0
 10
-12.616934999999998
 20
29.129032000000002
 30
0.0
 10
-12.1316188117687
 20
29.03442221701201
 30
0.0
 10
-11.621782162319606
 20
29.062887503293293
 30
0.0
 10
-11.120967999999994
 20
29.04435499999999
 30
0.0
 10
-10.620153485084279
 20
29.02582248365899
 30
0.0
 10
-10.128361470002494
 20
28.960292111566105
 30
0.0
 10
-9.624999999999998
 20
28.959676999999996
 30
0.0
 10
-9.121638548982647
 20
28.959061888457057
 30
0.0
 10
-8.606707643917288
 20
29.0233620325441
 30
0.0
 10
-8.129031999999999
 20
28.874999999999993
 30
0.0
 10
-7.707356222287858
 20
28.744031054330176
 30
0.0
 10
-7.314712562936076
 20
28.447339649805997
 30
0.0
 10
-7.112902999999999
 20
28.028226
 30
0.0
 10
-6.956795618892139
 20
27.704025633546127
 30
0.0
 10
-6.91487594824414
 20
27.3065725509339
 30
0.0
 10
-6.689516000000001
 20
27.096773999999996
 30
0.0
 10
-6.4626178111721355
 20
26.885543425993824
 30
0.0
 10
-6.049766579684605
 20
26.864537875585196
 30
0.0
 10
-5.673387
 20
26.927419
 30
0.0
 10
-5.327487364230051
 20
26.985207889742952
 30
0.0
 10
-5.012391474664214
 20
27.11384697994109
 30
0.0
 10
-4.826613
 20
27.35080599999999
 30
0.0
 10
-4.588700277339379
 20
27.65426185366172
 30
0.0
 10
-4.562868457205309
 20
28.135362678837605
 30
0.0
 10
-4.318548
 20
28.451612999999995
 30
0.0
 10
-4.1575659465859385
 20
28.659989435915072
 30
0.0
 10
-3.9017280440164455
 20
28.796796774455032
 30
0.0
 10
-3.6411290000000003
 20
28.874999999999996
 30
0.0
 10
-3.1159603467302506
 20
29.032597978902082
 30
0.0
 10
-2.5714558536788767
 20
28.95219426177397
 30
0.0
 10
-2.0322580000000006
 20
28.931452000000004
 30
0.0
 10
-1.4930601580659586
 20
28.91070973867785
 30
0.0
 10
-0.9591689552732329
 20
28.94962893011059
 30
0.0
 10
-0.42338700000000024
 20
28.987903000000003
 30
0.0
 10
0.11239496694366012
 20
29.026177070723072
 30
0.0
 10
0.6500676864501715
 20
29.063806019874644
 30
0.0
 10
1.1854840000000002
 20
29.044355000000007
 30
0.0
 10
1.6369629186729164
 20
29.02795332302855
 30
0.0
 10
2.086837450875692
 20
28.97096571791351
 30
0.0
 10
2.5403230000000003
 20
28.959677
 30
0.0
 10
2.9938081948729303
 20
28.948388290904948
 30
0.0
 10
3.450904401025724
 20
28.982798397613877
 30
0.0
 10
3.8951609999999985
 20
28.875
 30
0.0
 10
4.427490931991239
 20
28.745830700538697
 30
0.0
 10
4.941385753918487
 20
28.412478407565736
 30
0.0
 10
5.165323000000001
 20
27.858871000000008
 30
0.0
 10
5.280138055142186
 20
27.575030477090078
 30
0.0
 10
5.318731262722685
 20
27.233290960783613
 30
0.0
 10
5.504031999999999
 20
27.096773999999996
 30
0.0
 10
5.6931147383690295
 20
26.95747071843694
 30
0.0
 10
6.034954742549986
 20
27.03185269576545
 30
0.0
 10
6.350806
 20
27.012096999999997
 30
0.0
 10
6.66665766369353
 20
26.992341278825084
 30
0.0
 10
6.956520513803352
 20
26.87844764239882
 30
0.0
 10
7.197581
 20
26.927419000000008
 30
0.0
 10
7.571107105681501
 20
27.00330070414528
 30
0.0
 10
7.827459355184407
 20
27.47021919127601
 30
0.0
 10
8.086694
 20
27.90121
 30
0.0
 10
8.345928367077033
 20
28.332200346969486
 30
0.0
 10
8.60804512329051
 20
28.72726309251664
 30
0.0
 10
8.975805999999999
 20
28.875
 30
0.0
 10
9.401553136630593
 20
29.046031149094713
 30
0.0
 10
9.968885438288488
 20
28.885594068501362
 30
0.0
 10
10.499999999999998
 20
28.790323
 30
0.0
 10
11.031114581010625
 20
28.695051928036744
 30
0.0
 10
11.52601141944281
 20
28.664946872901375
 30
0.0
 10
12.024193999999998
 20
28.705644999999993
 30
0.0
 10
12.526383927064558
 20
28.74667050004151
 30
0.0
 10
13.031912669426072
 20
28.859642835508005
 30
0.0
 10
13.548386999999998
 20
28.917339
 30
0.0
 10
14.064861616840172
 20
28.975035196471254
 30
0.0
 10
14.59228183402637
 20
28.977455160692138
 30
0.0
 10
15.072581
 20
29.129032000000002
 30
0.0
 10
15.590301393053334
 20
29.29241854402026
 30
0.0
 10
16.053272072732426
 20
29.629109714076403
 30
0.0
 10
16.530913999999996
 20
29.919355
 30
0.0
 10
17.008555790065163
 20
30.2096002025508
 30
0.0
 10
17.50086881929024
 20
30.453399547652143
 30
0.0
 10
17.98924699999999
 20
30.709677
 30
0.0
 10
18.476791775646745
 20
30.968612056524055
 30
0.0
 10
18.962903108980072
 20
31.232053056524038
 30
0.0
 10
19.447581
 20
31.5
 30
0.0
 10
20.41967622290824
 20
32.027402457495064
 30
0.0
 10
21.391898222908242
 20
32.55428412416174
 30
0.0
 10
22.364246999999995
 20
33.08064499999999
 30
0.0
 10
22.850611990096525
 20
33.34165414497731
 30
0.0
 10
23.33672332342989
 20
33.60509514497736
 30
0.0
 10
23.822581
 20
33.87096799999999
 30
0.0
 10
24.30825990801519
 20
34.13834576698527
 30
0.0
 10
24.793150045718075
 20
34.412670769103364
 30
0.0
 10
25.280913999999996
 20
34.661289999999994
 30
0.0
 10
25.768678094391902
 20
34.909909302312414
 30
0.0
 10
26.2593160070139
 20
35.13282281863543
 30
0.0
 10
26.739247
 20
35.451612999999995
 30
0.0
 10
27.219178109510594
 20
35.770403258765015
 30
0.0
 10
27.688402294186123
 20
36.185070229128165
 30
0.0
 10
28.197580999999996
 20
36.241935
 30
0.0
 10
28.66147589903557
 20
36.29374250263326
 30
0.0
 10
29.158534626395067
 20
36.04856006821391
 30
0.0
 10
29.679434999999998
 20
35.945565
 30
0.0
 10
30.200335779204153
 20
35.842569851588976
 30
0.0
 10
30.745078241782426
 20
35.88176229081202
 30
0.0
 10
31.161290000000005
 20
35.649194000000016
 30
0.0
 10
31.45858435838987
 20
35.48307365516669
 30
0.0
 10
31.69030171854952
 20
35.178299647761435
 30
0.0
 10
31.96572599999999
 20
34.92943499999999
 30
0.0
 10
32.24114992115952
 20
34.68057067778603
 30
0.0
 10
32.560280649261195
 20
34.48761556894246
 30
0.0
 10
32.770161
 20
34.209677
 30
0.0
 10
32.980041388870916
 20
33.93173838056025
 30
0.0
 10
33.08067136068059
 20
33.568816270141156
 30
0.0
 10
33.235887
 20
33.23588699999999
 30
0.0
 10
33.39110263931939
 20
32.90295772985884
 30
0.0
 10
33.60090394614854
 20
32.60002129999558
 30
0.0
 10
33.701612999999995
 20
32.262097
 30
0.0
 10
33.79715401123801
 20
31.941513813992636
 30
0.0
 10
33.794511966254746
 20
31.589441535712385
 30
0.0
 10
33.82862899999999
 20
31.245968000000005
 30
0.0
 10
33.8627460337453
 20
30.902494464287646
 30
0.0
 10
33.93362214621915
 20
30.56761967114311
 30
0.0
 10
33.95564499999999
 20
30.22983899999999
 30
0.0
 10
33.991471043936215
 20
29.680348671198534
 30
0.0
 10
33.89801330363642
 20
29.12316831486893
 30
0.0
 10
33.839214
 20
28.568044
 30
0.0
 10
33.78041472910676
 20
28.012919994259722
 30
0.0
 10
33.75627385627692
 20
27.459852027690243
 30
0.0
 10
33.72278200000001
 20
26.906250000000007
 30
0.0
 10
33.68727389302789
 20
26.35254562943338
 30
0.0
 10
33.64846355969458
 20
25.798614296100045
 30
0.0
 10
33.60635099999999
 20
25.244455999999992
 30
0.0
 10
33.56754033333332
 20
24.690524333333336
 30
0.0
 10
33.52872966666667
 20
24.13659266666667
 30
0.0
 10
33.489919
 20
23.58266100000001
 30
0.0
 10
33.450027371328815
 20
23.029090142273052
 30
0.0
 10
33.41121703799552
 20
22.47515880893974
 30
0.0
 10
33.37348800000001
 20
21.920867
 30
0.0
 10
33.33955778215065
 20
21.36564062140989
 30
0.0
 10
33.30074711548397
 20
20.811709288076568
 30
0.0
 10
33.257056000000006
 20
20.259073000000004
 30
0.0
 10
33.210471823650444
 20
19.707179597944236
 30
0.0
 10
33.15032807860832
 20
19.158810825121595
 30
0.0
 10
33.14062500000001
 20
18.597278000000006
 30
0.0
 10
33.13092192720202
 20
18.035745511135133
 30
0.0
 10
33.17165946042823
 20
17.461048985737076
 30
0.0
 10
33.024194
 20
16.935484
 30
0.0
 10
32.91838642247209
 20
16.558387167881907
 30
0.0
 10
32.715688735257835
 20
16.20658408999365
 30
0.0
 10
32.55846799999999
 20
15.834676999999996
 30
0.0
 10
32.401247385882094
 20
15.462770196563783
 30
0.0
 10
32.28950365363979
 20
15.070759412002722
 30
0.0
 10
32.09274200000001
 20
14.733871000000004
 30
0.0
 10
31.831495992964282
 20
14.286574736606024
 30
0.0
 10
31.420375095849078
 20
13.936451626734064
 30
0.0
 10
30.991934999999998
 20
13.590726
 30
0.0
 10
30.56349509141282
 20
13.245000524375124
 30
0.0
 10
30.117735999231517
 20
12.90367252804408
 30
0.0
 10
29.891128999999992
 20
12.447580999999998
 30
0.0
 10
29.691717667823507
 20
12.046226145515728
 30
0.0
 10
29.66201290437529
 20
11.556000932003645
 30
0.0
 10
29.552419
 20
11.092741999999998
 30
0.0
 10
29.4428251146578
 20
10.629483148450188
 30
0.0
 10
29.25334211613712
 20
10.193190569042395
 30
0.0
 10
29.213710000000003
 20
9.737903
 30
0.0
 10
29.167051215598594
 20
9.201894161837087
 30
0.0
 10
29.328090099368687
 20
8.639557717247744
 30
0.0
 10
29.55241900000001
 20
8.129032
 30
0.0
 10
29.74570508296945
 20
7.689153251143714
 30
0.0
 10
29.985976890163165
 20
7.2877381442243365
 30
0.0
 10
30.212902999999997
 20
6.875806
 30
0.0
 10
30.439828968124832
 20
6.4638741130211805
 30
0.0
 10
30.653409255561204
 20
6.041425201872918
 30
0.0
 10
30.873387000000008
 20
5.622581000000001
 30
0.0
 10
31.09647188854729
 20
5.204987661736144
 30
0.0
 10
31.31663322188061
 20
4.787245661736145
 30
0.0
 10
31.533871000000005
 20
4.369354999999999
 30
0.0
 10
31.748001771383816
 20
3.950213213092626
 30
0.0
 10
31.949887967347053
 20
3.527169388935513
 30
0.0
 10
32.194355
 20
3.116129000000001
 30
0.0
 10
32.43882203265294
 20
2.705088611064486
 30
0.0
 10
32.725869901995694
 20
2.3060516573506105
 30
0.0
 10
32.854839
 20
1.8629030000000004
 30
0.0
 10
32.9753195528892
 20
1.448921696913573
 30
0.0
 10
32.957845523490185
 20
0.9964443225476126
 30
0.0
 10
33.024193999999994
 20
0.5504030000000003
 30
0.0
 10
33.09054247009389
 20
0.10436172058464123
 30
0.0
 10
33.24071342988534
 20
-0.3352435082570844
 30
0.0
 10
33.193548000000014
 20
-0.7620969999999999
 30
0.0
 10
33.16059190467162
 20
-1.060354100578261
 30
0.0
 10
33.031290386973986
 20
-1.35238542851143
 30
0.0
 10
32.939516
 20
-1.6512099999999994
 30
0.0
 10
32.847741613025995
 20
-1.9500345714885685
 30
0.0
 10
32.79349435677569
 20
-2.2556523865325087
 30
0.0
 10
32.685484
 20
-2.540323
 30
0.0
 10
32.52059342820227
 20
-2.97490632728344
 30
0.0
 10
32.23040456370109
 20
-3.3606708816762483
 30
0.0
 10
31.974194000000004
 20
-3.7596770000000004
 30
0.0
 10
31.71798318807434
 20
-4.158683504892977
 30
0.0
 10
31.495750742787266
 20
-4.5709315993746
 30
0.0
 10
31.262903
 20
-4.979032
 30
0.0
 10
31.026872198859397
 20
-5.385882703657842
 30
0.0
 10
30.78977553219273
 20
-5.7923343703245065
 30
0.0
 10
30.551613
 20
-6.198387
 30
0.0
 10
30.31663360927267
 20
-6.605689180976849
 30
0.0
 10
30.090137777415332
 20
-7.016340978866594
 30
0.0
 10
29.84032300000001
 20
-7.417742000000002
 30
0.0
 10
29.590508133416442
 20
-7.819143164408398
 30
0.0
 10
29.31737430462798
 20
-8.211293545456614
 30
0.0
 10
29.129032000000002
 20
-8.637097
 30
0.0
 10
28.943220971692067
 20
-9.057177756163885
 30
0.0
 10
28.839937626884215
 20
-9.51001308568539
 30
0.0
 10
28.663306
 20
-9.949597
 30
0.0
 10
28.486674415528498
 20
-10.389180808761916
 30
0.0
 10
28.236694584205306
 20
-10.815513208680743
 30
0.0
 10
28.197581
 20
-11.262097
 30
0.0
 10
28.1677588134427
 20
-11.602595203086452
 30
0.0
 10
28.260519784662666
 20
-11.954866174651396
 30
0.0
 10
28.282257999999995
 20
-12.320564999999998
 30
0.0
 10
28.303996194930505
 20
-12.686263482047476
 30
0.0
 10
28.25471176732407
 20
-13.06538979266773
 30
0.0
 10
28.366935000000005
 20
-13.379032000000002
 30
0.0
 10
28.519043463614587
 20
-13.804145705463988
 30
0.0
 10
28.9678633975449
 20
-14.108956234379484
 30
0.0
 10
29.326613
 20
-14.451612999999998
 30
0.0
 10
29.68536243624772
 20
-14.79426960686888
 30
0.0
 10
29.954041624478744
 20
-15.174772415374738
 30
0.0
 10
30.28629
 20
-15.524193999999998
 30
0.0
 10
30.618538357411968
 20
-15.873615565579906
 30
0.0
 10
31.014355895184295
 20
-16.191955910667364
 30
0.0
 10
31.245968
 20
-16.596774
 30
0.0
 10
31.50244647625714
 20
-17.04505422609609
 30
0.0
 10
31.55756789072793
 20
-17.599377864870966
 30
0.0
 10
31.711694
 20
-18.120967999999998
 30
0.0
 10
31.86581998852783
 20
-18.642557726509033
 30
0.0
 10
32.11895051673413
 20
-19.13141400065992
 30
0.0
 10
32.177419
 20
-19.645160999999998
 30
0.0
 10
32.23676801600934
 20
-20.166645006176903
 30
0.0
 10
32.09554763390364
 20
-20.713775089232275
 30
0.0
 10
32.008065
 20
-21.254032
 30
0.0
 10
31.920582360435372
 20
-21.794288945727494
 30
0.0
 10
31.886837476027484
 20
-22.32767271827793
 30
0.0
 10
31.838709999999995
 20
-22.862902999999996
 30
0.0
 10
31.787553323482328
 20
-23.398526510502258
 30
0.0
 10
31.731101656815696
 20
-23.934816843835613
 30
0.0
 10
31.669354999999996
 20
-24.471773999999996
 30
0.0
 10
31.611400954505843
 20
-25.00821829265489
 30
0.0
 10
31.554949287839193
 20
-25.544508625988257
 30
0.0
 10
31.5
 20
-26.080644999999997
 30
0.0
 10
31.38961654323403
 20
-27.153655754000287
 30
0.0
 10
31.271192551295442
 20
-28.225146055213703
 30
0.0
 10
31.161290000000008
 20
-29.29838700000001
 30
0.0
 10
31.10954669543673
 20
-29.836057953789826
 30
0.0
 10
31.053095028770105
 20
-30.372348287123177
 30
0.0
 10
30.991935000000005
 20
-30.907258000000002
 30
0.0
 10
30.92808797456449
 20
-31.441366565177336
 30
0.0
 10
30.851471586287442
 20
-31.971691170975312
 30
0.0
 10
30.822581
 20
-32.516129
 30
0.0
 10
30.793690411843052
 20
-33.060566864255
 30
0.0
 10
30.812525631852473
 20
-33.61911795356341
 30
0.0
 10
30.653225999999997
 20
-34.12499999999999
 30
0.0
 10
30.54866649536653
 20
-34.45704581556946
 30
0.0
 10
30.36736264521047
 20
-34.76640066874584
 30
0.0
 10
30.229839
 20
-35.09879000000001
 30
0.0
 10
30.092315236016674
 20
-35.4311796183235
 30
0.0
 10
29.998571752600913
 20
-35.786603754512534
 30
0.0
 10
29.806452
 20
-36.07258100000001
 30
0.0
 10
29.589785579571853
 20
-36.395096854121434
 30
0.0
 10
29.2479983547819
 20
-36.62928601221158
 30
0.0
 10
28.959677000000006
 20
-36.91935500000001
 30
0.0
 10
28.671355815464977
 20
-37.20942381650959
 30
0.0
 10
28.436500437797317
 20
-37.55537239672604
 30
0.0
 10
28.11290299999999
 20
-37.76612899999997
 30
0.0
 10
27.7941965354532
 20
-37.973700148790805
 30
0.0
 10
27.389410299828686
 20
-38.0501351214578
 30
0.0
 10
27.012097000000004
 20
-38.189516000000005
 30
0.0
 10
26.634783401580616
 20
-38.32889698884266
 30
0.0
 10
26.284942782439078
 20
-38.53122398318638
 30
0.0
 10
25.91129
 20
-38.612902999999996
 30
0.0
 10
25.495259938739892
 20
-38.70384552194998
 30
0.0
 10
25.0497101844886
 20
-38.64522199178613
 30
0.0
 10
24.59879
 20
-38.570564999999995
 30
0.0
 10
24.147869804440443
 20
-38.49590800638087
 30
0.0
 10
23.691579178379982
 20
-38.40521755035224
 30
0.0
 10
23.28629
 20
-38.528226
 30
0.0
 10
23.005728738710392
 20
-38.61337854693055
 30
0.0
 10
22.74960785430728
 20
-38.80093763392034
 30
0.0
 10
22.481854999999996
 20
-38.951612999999995
 30
0.0
 10
22.214101885047718
 20
-39.10228851275516
 30
0.0
 10
21.93471677754485
 20
-39.21608023279097
 30
0.0
 10
21.677419000000004
 20
-39.375
 30
0.0
 10
21.219528380679154
 20
-39.65781577603981
 30
0.0
 10
20.831588876436243
 20
-40.083553183035114
 30
0.0
 10
20.576613000000002
 20
-40.56048400000002
 30
0.0
 10
20.339932266642787
 20
-41.00319386376284
 30
0.0
 10
20.217818781516193
 20
-41.49001419746779
 30
0.0
 10
20.02621
 20
-41.957661
 30
0.0
 10
19.834601053000153
 20
-42.425308206417185
 30
0.0
 10
19.573496689570852
 20
-42.87378184854299
 30
0.0
 10
19.475806
 20
-43.354839
 30
0.0
 10
19.3744474728557
 20
-43.85395764229951
 30
0.0
 10
19.449003845715442
 20
-44.38815244836446
 30
0.0
 10
19.475806
 20
-44.91290299999999
 30
0.0
 10
19.50260817148677
 20
-45.43765388843204
 30
0.0
 10
19.481656063098967
 20
-45.95296051031167
 30
0.0
 10
19.475806
 20
-46.470968000000006
 30
0.0
 10
19.469955940655737
 20
-46.98897515721988
 30
0.0
 10
19.4792079072147
 20
-47.50968317878159
 30
0.0
 10
19.475806
 20
-48.029032
 30
0.0
 10
19.472404090601863
 20
-48.548381154547954
 30
0.0
 10
19.456348291187023
 20
-49.066371107007996
 30
0.0
 10
19.475806
 20
-49.587097
 30
0.0
 10
19.49526369632461
 20
-50.10782255877885
 30
0.0
 10
19.550234855290427
 20
-50.631284054577804
 30
0.0
 10
19.475806
 20
-51.145161
 30
0.0
 10
19.40668418816948
 20
-51.62239668214132
 30
0.0
 10
19.225957833780477
 20
-52.09136590954867
 30
0.0
 10
18.967742
 20
-52.499999999999986
 30
0.0
 10
18.721058498072672
 20
-52.890383838835824
 30
0.0
 10
18.403652559723746
 20
-53.225701520034946
 30
0.0
 10
18.078629000000003
 20
-53.55846799999999
 30
0.0
 10
17.753605620312463
 20
-53.89123429563994
 30
0.0
 10
17.420964627689187
 20
-54.22144939287227
 30
0.0
 10
17.18951600000001
 20
-54.616935
 30
0.0
 10
16.951854191138768
 20
-55.023037320445695
 30
0.0
 10
16.82089063857581
 20
-55.497961528768855
 30
0.0
 10
16.766129
 20
-55.971773999999996
 30
0.0
 10
16.705959792794985
 20
-56.4923742139321
 30
0.0
 10
16.737785027491388
 20
-57.011632287910516
 30
0.0
 10
16.744960000000003
 20
-57.53125000000001
 30
0.0
 10
16.75213497257104
 20
-58.05086771661176
 30
0.0
 10
16.734659682525198
 20
-58.57084507134083
 30
0.0
 10
16.72379
 20
-59.090726000000004
 30
0.0
 10
16.714316446723615
 20
-59.610586506501114
 30
0.0
 10
16.707260113390277
 20
-60.13041183983442
 30
0.0
 10
16.702621
 20
-60.65020200000001
 30
0.0
 10
16.674395333333333
 20
-62.72950300000001
 30
0.0
 10
16.646169666666673
 20
-64.808804
 30
0.0
 10
16.617944
 20
-66.88810500000001
 30
0.0
 10
16.601899016397187
 20
-67.92811929555793
 30
0.0
 10
16.592402101462117
 20
-68.9669005055743
 30
0.0
 10
16.575605000000003
 20
-70.007056
 30
0.0
 10
16.563441198644384
 20
-70.5278408233567
 30
0.0
 10
16.556384531977717
 20
-71.04766615669001
 30
0.0
 10
16.554435
 20
-71.566532
 30
0.0
 10
16.555434511459616
 20
-72.08484387502695
 30
0.0
 10
16.570388287703384
 20
-72.6005343687597
 30
0.0
 10
16.53326600000001
 20
-73.12600799999998
 30
0.0
 10
16.496143712296615
 20
-73.65148163124036
 30
0.0
 10
16.40694536064607
 20
-74.18673839998792
 30
0.0
 10
16.512097
 20
-74.68548399999997
 30
0.0
 10
16.587943816215976
 20
-75.04523365388144
 30
0.0
 10
16.76490832243899
 20
-75.3859870370509
 30
0.0
 10
16.893144999999997
 20
-75.74395199999996
 30
0.0
 10
17.02138160891904
 20
-76.10191677133913
 30
0.0
 10
17.100890441341743
 20
-76.47709310403206
 30
0.0
 10
17.27419400000001
 20
-76.80241900000003
 30
0.0
 10
17.459594512842607
 20
-77.1504533301684
 30
0.0
 10
17.75234089094165
 20
-77.44143500419709
 30
0.0
 10
18.036289999999997
 20
-77.733871
 30
0.0
 10
18.320239258462944
 20
-78.02630714967314
 30
0.0
 10
18.59539123862754
 20
-78.320197622651
 30
0.0
 10
18.798386999999998
 20
-78.66532299999999
 30
0.0
 10
19.07899805682459
 20
-79.14240683771213
 30
0.0
 10
19.221726538459784
 20
-79.71739492640225
 30
0.0
 10
19.221773999999996
 20
-80.274194
 30
0.0
 10
19.221805497236023
 20
-80.64370648846253
 30
0.0
 10
19.158998258652527
 20
-81.00520827786043
 30
0.0
 10
19.137097
 20
-81.37500000000003
 30
0.0
 10
19.115195739826046
 20
-81.74479174782827
 30
0.0
 10
19.134200465266282
 20
-82.12287342954974
 30
0.0
 10
19.052418999999993
 20
-82.475806
 30
0.0
 10
18.96098447358358
 20
-82.8703969055429
 30
0.0
 10
18.743567019746155
 20
-83.23355137482616
 30
0.0
 10
18.586693999999994
 20
-83.61895199999998
 30
0.0
 10
18.429821049998655
 20
-84.00435245382702
 30
0.0
 10
18.333492480253238
 20
-84.41199904376344
 30
0.0
 10
18.120968000000005
 20
-84.762097
 30
0.0
 10
17.82938690167497
 20
-85.24242729644004
 30
0.0
 10
17.31908421404452
 20
-85.61443081468103
 30
0.0
 10
17.104839
 20
-86.11693499999998
 30
0.0
 10
16.933108296121173
 20
-86.51972298213403
 30
0.0
 10
16.95159474226006
 20
-87.00635774126816
 30
0.0
 10
17.020161
 20
-87.47177400000001
 30
0.0
 10
17.101312245267035
 20
-88.02261504351823
 30
0.0
 10
17.25261421647625
 20
-88.54373366678296
 30
0.0
 10
17.528226000000007
 20
-88.99596800000003
 30
0.0
 10
17.75585166073608
 20
-89.36946487154144
 30
0.0
 10
18.068268815315555
 20
-89.69597589581356
 30
0.0
 10
18.346773999999996
 20
-90.04032299999999
 30
0.0
 10
18.625279148966722
 20
-90.38467006002459
 30
0.0
 10
18.869872336736762
 20
-90.74685319538878
 30
0.0
 10
19.165323
 20
-91.08467700000001
 30
0.0
 10
19.460773701154185
 20
-91.42250084793646
 30
0.0
 10
19.807081890846398
 20
-91.73596535887206
 30
0.0
 10
19.983871000000008
 20
-92.12903200000001
 30
0.0
 10
20.1070707612318
 20
-92.40294998378864
 30
0.0
 10
20.14794636292618
 20
-92.715525435779
 30
0.0
 10
20.237903000000003
 20
-93.01814499999999
 30
0.0
 10
20.327859637073818
 20
-93.32076456422097
 30
0.0
 10
20.466897309527116
 20
-93.61342824067283
 30
0.0
 10
20.491934999999998
 20
-93.90725799999998
 30
0.0
 10
20.530607835116495
 20
-94.36110296813209
 30
0.0
 10
20.297306116199994
 20
-94.81772990924829
 30
0.0
 10
20.19556499999999
 20
-95.30443499999996
 30
0.0
 10
20.093823799335038
 20
-95.79114049481198
 30
0.0
 10
20.12364341982867
 20
-96.30792418920115
 30
0.0
 10
19.899194
 20
-96.701613
 30
0.0
 10
19.748349727371387
 20
-96.96619689757611
 30
0.0
 10
19.48265990790102
 20
-97.17518260198872
 30
0.0
 10
19.264113
 20
-97.421371
 30
0.0
 10
19.045566092098976
 20
-97.66755939801125
 30
0.0
 10
18.874162095767357
 20
-97.95095048962136
 30
0.0
 10
18.62903199999999
 20
-98.141129
 30
0.0
 10
18.396883849703503
 20
-98.32123576849905
 30
0.0
 10
18.098611802030074
 20
-98.41774148929923
 30
0.0
 10
17.824597
 20
-98.56451599999998
 30
0.0
 10
17.550581931229196
 20
-98.711290653579
 30
0.0
 10
17.300824155328378
 20
-98.90833419492739
 30
0.0
 10
17.020161
 20
-98.987903
 30
0.0
 10
16.706166065412045
 20
-99.07692145956504
 30
0.0
 10
16.35348916320449
 20
-99.01890551835864
 30
0.0
 10
16.004032000000002
 20
-99.030242
 30
0.0
 10
15.654574836795502
 20
-99.04157848164131
 30
0.0
 10
15.308337412594105
 20
-99.12226738613049
 30
0.0
 10
14.987903
 20
-99.07258099999999
 30
0.0
 10
14.563955703167977
 20
-99.0068439622117
 30
0.0
 10
14.185174843942098
 20
-98.71289374067632
 30
0.0
 10
13.760081
 20
-98.522177
 30
0.0
 10
13.334986997003533
 20
-98.33146018796455
 30
0.0
 10
12.863579974633558
 20
-98.2439769340405
 30
0.0
 10
12.532257999999999
 20
-97.971774
 30
0.0
 10
12.257021646226237
 20
-97.74564911608701
 30
0.0
 10
12.07845777960118
 20
-97.39204945031315
 30
0.0
 10
11.854839000000002
 20
-97.082661
 30
0.0
 10
11.63122009915545
 20
-96.7732723819401
 30
0.0
 10
11.36254623647834
 20
-96.50809502728256
 30
0.0
 10
11.177418999999997
 20
-96.193548
 30
0.0
 10
10.920177878987854
 20
-95.75647330775884
 30
0.0
 10
10.824249646332639
 20
-95.22407502376181
 30
0.0
 10
10.669355000000001
 20
-94.72580600000003
 30
0.0
 10
10.514460415286129
 20
-94.22753717445508
 30
0.0
 10
10.300599463809807
 20
-93.76339758199138
 30
0.0
 10
10.161290000000001
 20
-93.25806500000004
 30
0.0
 10
10.021980480771342
 20
-92.7527322169817
 30
0.0
 10
9.95722250852401
 20
-92.20620641166163
 30
0.0
 10
9.653226000000002
 20
-91.79032300000001
 30
0.0
 10
9.40024367698724
 20
-91.4442297106544
 30
0.0
 10
8.981579747210555
 20
-91.18861115012851
 30
0.0
 10
8.552419000000002
 20
-91.11290300000002
 30
0.0
 10
8.177080946532715
 20
-91.0466896990737
 30
0.0
 10
7.793713867273537
 20
-91.11809004479967
 30
0.0
 10
7.423387
 20
-91.169355
 30
0.0
 10
7.053060149085712
 20
-91.22061995293569
 30
0.0
 10
6.695773509004978
 20
-91.25174951712482
 30
0.0
 10
6.2943549999999995
 20
-91.22580599999999
 30
0.0
 10
5.892936473262299
 20
-91.19986248172926
 30
0.0
 10
5.447386073701276
 20
-91.11684587710198
 30
0.0
 10
5.165323000000001
 20
-91.282258
 30
0.0
 10
4.8251303625128195
 20
-91.48175942931714
 30
0.0
 10
4.722753928875861
 20
-92.04263674264648
 30
0.0
 10
4.572581
 20
-92.510081
 30
0.0
 10
4.422408170315334
 20
-92.9775249486006
 30
0.0
 10
4.224438908532146
 20
-93.35153596465273
 30
0.0
 10
3.9798389999999997
 20
-93.73790300000002
 30
0.0
 10
3.7325412999599834
 20
-94.1285314339435
 30
0.0
 10
3.437578664059021
 20
-94.53178994935195
 30
0.0
 10
3.0483869999999986
 20
-94.75403199999997
 30
0.0
 10
2.6739791097475036
 20
-94.96783199879933
 30
0.0
 10
2.2123649642918157
 20
-95.0141064661311
 30
0.0
 10
1.7782259999999996
 20
-95.13508099999999
 30
0.0
 10
1.3440871297811439
 20
-95.25605550765512
 30
0.0
 10
0.9374234288189971
 20
-95.45173004947414
 30
0.0
 10
0.508065
 20
-95.516129
 30
0.0
 10
0.0320515034604853
 20
-95.58752568760572
 30
0.0
 10
-0.4718568107022911
 20
-95.49756733713336
 30
0.0
 10
-0.959677
 20
-95.43145199999998
 30
0.0
 10
-1.447497208408781
 20
-95.36533666027638
 30
0.0
 10
-1.9192292906919621
 20
-95.32306433576031
 30
0.0
 10
-2.427419
 20
-95.34677399999998
 30
0.0
 10
-2.9356086893989577
 20
-95.3704836633108
 30
0.0
 10
-3.480256002966236
 20
-95.46017531020783
 30
0.0
 10
-3.895161
 20
-95.26209700000003
 30
0.0
 10
-4.2256414817314365
 20
-95.10432349559285
 30
0.0
 10
-4.47380753877555
 20
-94.7639756461745
 30
0.0
 10
-4.784274
 20
-94.5
 30
0.0
 10
-5.094740461224451
 20
-94.23602435382561
 30
0.0
 10
-5.467507326629189
 20
-94.04842091089529
 30
0.0
 10
-5.673387
 20
-93.73790299999999
 30
0.0
 10
-5.852343081952315
 20
-93.46799258193862
 30
0.0
 10
-5.905206740412969
 20
-93.10521354430853
 30
0.0
 10
-5.969758000000001
 20
-92.76411300000001
 30
0.0
 10
-6.034309259587024
 20
-92.42301245569145
 30
0.0
 10
-6.110548120300438
 20
-92.10359040470463
 30
0.0
 10
-6.266129000000003
 20
-91.79032300000001
 30
0.0
 10
-6.403711090285304
 20
-91.5132967713224
 30
0.0
 10
-6.603339297767083
 20
-91.24108352710644
 30
0.0
 10
-6.858871000000001
 20
-91.11290300000002
 30
0.0
 10
-7.219535734618269
 20
-90.93198534716838
 30
0.0
 10
-7.691567525780308
 20
-91.0379996620406
 30
0.0
 10
-8.129032
 20
-91.084677
 30
0.0
 10
-8.56649681081638
 20
-91.1313543738741
 30
0.0
 10
-8.969394251496391
 20
-91.11869467952428
 30
0.0
 10
-9.399194000000001
 20
-91.05645200000001
 30
0.0
 10
-9.828993417804567
 20
-90.99420936836692
 30
0.0
 10
-10.285695102034063
 20
-90.88238382786011
 30
0.0
 10
-10.669355
 20
-91.028226
 30
0.0
 10
-10.941178595238133
 20
-91.13155539089695
 30
0.0
 10
-11.176337090276265
 20
-91.36422735384416
 30
0.0
 10
-11.346774
 20
-91.62096799999999
 30
0.0
 10
-11.654532739562828
 20
-92.08456580744404
 30
0.0
 10
-11.75126223984762
 20
-92.62664123380378
 30
0.0
 10
-11.911289999999994
 20
-93.14516099999997
 30
0.0
 10
-12.0713178524793
 20
-93.66368106535275
 30
0.0
 10
-12.294644037865222
 20
-94.15864544336159
 30
0.0
 10
-12.475806
 20
-94.669355
 30
0.0
 10
-12.656967896325858
 20
-95.18006437111794
 30
0.0
 10
-12.79596560003378
 20
-95.70651890942638
 30
0.0
 10
-13.040323
 20
-96.19354800000002
 30
0.0
 10
-13.231277825322444
 20
-96.57414034109667
 30
0.0
 10
-13.486573204260992
 20
-96.93065653900099
 30
0.0
 10
-13.802418999999992
 20
-97.20967699999996
 30
0.0
 10
-14.027732364689761
 20
-97.40872045643704
 30
0.0
 10
-14.283859215997268
 20
-97.56832712650278
 30
0.0
 10
-14.522176999999996
 20
-97.76008099999999
 30
0.0
 10
-14.760494624232257
 20
-97.95183474494361
 30
0.0
 10
-14.981003205038474
 20
-98.17573565021536
 30
0.0
 10
-15.241935000000002
 20
-98.310484
 30
0.0
 10
-15.62942013132004
 20
-98.51058603056771
 30
0.0
 10
-16.106048196499742
 20
-98.51408518026008
 30
0.0
 10
-16.554435
 20
-98.60685500000001
 30
0.0
 10
-17.002821803500254
 20
-98.69962481973988
 30
0.0
 10
-17.42296734532106
 20
-98.88166530952736
 30
0.0
 10
-17.866934999999994
 20
-98.903226
 30
0.0
 10
-18.39705238223969
 20
-98.92897043582133
 30
0.0
 10
-18.961133989215103
 20
-98.72591182625814
 30
0.0
 10
-19.391128999999992
 20
-98.39516099999997
 30
0.0
 10
-19.695650136377363
 20
-98.16092428807625
 30
0.0
 10
-19.93292109806266
 20
-97.86264445682889
 30
0.0
 10
-20.181452000000004
 20
-97.57661299999998
 30
0.0
 10
-20.428157755247117
 20
-97.29011492307208
 30
0.0
 10
-20.691598421913806
 20
-97.01726558973878
 30
0.0
 10
-20.971774000000003
 20
-96.75806500000002
 30
0.0
 10
-21.2537749235073
 20
-96.49933088343614
 30
0.0
 10
-21.557985798550952
 20
-96.25564593200122
 30
0.0
 10
-21.762097000000004
 20
-95.939516
 30
0.0
 10
-22.012618855800202
 20
-95.55150467736452
 30
0.0
 10
-22.112344572053253
 20
-95.05435789997051
 30
0.0
 10
-22.100806
 20
-94.584677
 30
0.0
 10
-22.09095514661278
 20
-94.18369517460292
 30
0.0
 10
-22.00000830463463
 20
-93.80273210379535
 30
0.0
 10
-21.973789999999994
 20
-93.39919399999997
 30
0.0
 10
-21.947571673500274
 20
-92.9956555596682
 30
0.0
 10
-21.986081992306634
 20
-92.56954204869484
 30
0.0
 10
-21.846774000000003
 20
-92.21371000000002
 30
0.0
 10
-21.705614196109543
 20
-91.85314790029544
 30
0.0
 10
-21.381877207031344
 20
-91.56474817505811
 30
0.0
 10
-21.112902999999992
 20
-91.25403199999998
 30
0.0
 10
-20.843928969823764
 20
-90.94331602924306
 30
0.0
 10
-20.62971764967943
 20
-90.61028363801222
 30
0.0
 10
-20.379032000000002
 20
-90.294355
 30
0.0
 10
-20.12834618549045
 20
-89.97842615425927
 30
0.0
 10
-19.841185993480753
 20
-89.67960108422923
 30
0.0
 10
-19.645161
 20
-89.334677
 30
0.0
 10
-19.429556572476148
 20
-88.95530109288262
 30
0.0
 10
-19.324202144878466
 20
-88.52015731128766
 30
0.0
 10
-19.137096999999997
 20
-88.106855
 30
0.0
 10
-18.949991671173144
 20
-87.69355228238305
 30
0.0
 10
-18.681135464322523
 20
-87.30209107801942
 30
0.0
 10
-18.629032000000002
 20
-86.87903200000001
 30
0.0
 10
-18.587395584194077
 20
-86.54096112674966
 30
0.0
 10
-18.68417254863592
 20
-86.18271256877735
 30
0.0
 10
-18.71371
 20
-85.820565
 30
0.0
 10
-18.74324747687423
 20
-85.45841711845233
 30
0.0
 10
-18.70554532452733
 20
-85.09237021936492
 30
0.0
 10
-18.798386999999995
 20
-84.76209699999998
 30
0.0
 10
-18.903381281457378
 20
-84.38859233008442
 30
0.0
 10
-19.175331433952273
 20
-84.06083954256795
 30
0.0
 10
-19.391129
 20
-83.71774200000002
 30
0.0
 10
-19.60692656604772
 20
-83.37464445743196
 30
0.0
 10
-19.766571545648297
 20
-83.01620215981262
 30
0.0
 10
-19.983871
 20
-82.67338699999999
 30
0.0
 10
-20.201170454351733
 20
-82.33057184018726
 30
0.0
 10
-20.476124383454593
 20
-82.0033838181815
 30
0.0
 10
-20.576612999999995
 20
-81.62903200000001
 30
0.0
 10
-20.668798568316607
 20
-81.28561165751937
 30
0.0
 10
-20.614158722919147
 20
-80.90249950590893
 30
0.0
 10
-20.618951999999997
 20
-80.528226
 30
0.0
 10
-20.623745281261545
 20
-80.15395216765131
 30
0.0
 10
-20.68797178867611
 20
-79.78851699642243
 30
0.0
 10
-20.66129
 20
-79.42741899999997
 30
0.0
 10
-20.62431637831369
 20
-78.92703647791802
 30
0.0
 10
-20.412777575299025
 20
-78.43498234542304
 30
0.0
 10
-20.153226
 20
-77.98790299999997
 30
0.0
 10
-19.917629214455197
 20
-77.58208594208467
 30
0.0
 10
-19.642473168248795
 20
-77.21332505152472
 30
0.0
 10
-19.391129
 20
-76.830645
 30
0.0
 10
-19.139784831751214
 20
-76.44796494847529
 30
0.0
 10
-18.912252541460134
 20
-76.05136573598573
 30
0.0
 10
-18.629031999999995
 20
-75.67338699999999
 30
0.0
 10
-18.345811458539856
 20
-75.29540826401427
 30
0.0
 10
-18.00690266591062
 20
-74.9360500045323
 30
0.0
 10
-17.866934999999998
 20
-74.516129
 30
0.0
 10
-17.69897484925447
 20
-74.01222693973769
 30
0.0
 10
-17.817486344865657
 20
-73.42111561526451
 30
0.0
 10
-17.859238000000005
 20
-72.85337200000001
 30
0.0
 10
-17.900989630141233
 20
-72.28562872459455
 30
0.0
 10
-17.865981511704643
 20
-71.7412531304215
 30
0.0
 10
-17.85154
 20
-71.190616
 30
0.0
 10
-17.83709847961027
 20
-70.63997853842645
 30
0.0
 10
-17.843223590689924
 20
-70.08307953307336
 30
0.0
 10
-17.843842000000002
 20
-69.527859
 30
0.0
 10
-17.842706059842985
 20
-68.41815332331086
 30
0.0
 10
-17.830677073157947
 20
-67.31171241412073
 30
0.0
 10
-17.828446
 20
-66.202346
 30
0.0
 10
-17.823314
 20
-65.09384166666668
 30
0.0
 10
-17.818181999999993
 20
-63.985337333333334
 30
0.0
 10
-17.813049999999997
 20
-62.876833000000005
 30
0.0
 10
-17.811668799689784
 20
-62.322776277251634
 30
0.0
 10
-17.80910279968979
 20
-61.76852394391831
 30
0.0
 10
-17.805352
 20
-61.21407599999999
 30
0.0
 10
-17.7984002915797
 20
-60.65908300633625
 30
0.0
 10
-17.795834291579716
 20
-60.10483100633631
 30
0.0
 10
-17.797654
 20
-59.551320000000004
 30
0.0
 10
-17.802002584107385
 20
-58.998237453269596
 30
0.0
 10
-17.81832351025092
 20
-58.44718227932694
 30
0.0
 10
-17.789956000000004
 20
-57.88856300000001
 30
0.0
 10
-17.761588489749073
 20
-57.329943720673036
 30
0.0
 10
-17.688532543103715
 20
-56.76376033596191
 30
0.0
 10
-17.782257999999995
 20
-56.225805999999984
 30
0.0
 10
-17.846516500330942
 20
-55.85698262991296
 30
0.0
 10
-17.98917095717977
 20
-55.50142838474805
 30
0.0
 10
-18.078629
 20
-55.125
 30
0.0
 10
-18.168087042820208
 20
-54.74857161525192
 30
0.0
 10
-18.204348671611793
 20
-54.35126909092077
 30
0.0
 10
-18.375
 20
-54.024194
 30
0.0
 10
-18.536583737264046
 20
-53.71449810688194
 30
0.0
 10
-18.818654958079613
 20
-53.46776482736672
 30
0.0
 10
-19.094758
 20
-53.21975800000001
 30
0.0
 10
-19.370860851298115
 20
-52.9717513438578
 30
0.0
 10
-19.640995531942245
 20
-52.72247114162267
 30
0.0
 10
-19.814516
 20
-52.415323
 30
0.0
 10
-19.96112262580404
 20
-52.15581498247742
 30
0.0
 10
-20.038761384602495
 20
-51.85499804941618
 30
0.0
 10
-20.153226
 20
-51.56854799999999
 30
0.0
 10
-20.26769045225271
 20
-51.282098358856885
 30
0.0
 10
-20.41898065612979
 20
-51.01001556040494
 30
0.0
 10
-20.491935
 20
-50.72177400000001
 30
0.0
 10
-20.615222760798375
 20
-50.23466583527475
 30
0.0
 10
-20.51479390967724
 20
-49.70141043381011
 30
0.0
 10
-20.475
 20
-49.180645
 30
0.0
 10
-20.43520609032274
 20
-48.65987956618992
 30
0.0
 10
-20.456047122089334
 20
-48.15160410003426
 30
0.0
 10
-20.458064999999998
 20
-47.639515999999986
 30
0.0
 10
-20.460082877925053
 20
-47.12742789631479
 30
0.0
 10
-20.443277601725782
 20
-46.61152715869653
 30
0.0
 10
-20.441129000000004
 20
-46.098387
 30
0.0
 10
-20.438980398289534
 20
-45.585246844961866
 30
0.0
 10
-20.451488470843557
 20
-45.07486726880613
 30
0.0
 10
-20.424194
 20
-44.557258
 30
0.0
 10
-20.3968995289618
 20
-44.039648727503454
 30
0.0
 10
-20.329802513958484
 20
-43.514809762253414
 30
0.0
 10
-20.407258
 20
-43.01612900000001
 30
0.0
 10
-20.473321722052827
 20
-42.59079170041953
 30
0.0
 10
-20.6445446553191
 20
-42.184483998901975
 30
0.0
 10
-20.745968000000005
 20
-41.745968000000005
 30
0.0
 10
-20.847391399350556
 20
-41.30745176472727
 30
0.0
 10
-20.879015134868467
 20
-40.83672719734773
 30
0.0
 10
-21.084676999999996
 20
-40.475805999999984
 30
0.0
 10
-21.337776597798275
 20
-40.031635128423304
 30
0.0
 10
-21.854460640401538
 20
-39.753763793573455
 30
0.0
 10
-22.270161000000005
 20
-39.375
 30
0.0
 10
-22.68586135959844
 20
-38.99623620642649
 30
0.0
 10
-23.00057803619197
 20
-38.51657995412931
 30
0.0
 10
-23.455644999999997
 20
-38.274193999999994
 30
0.0
 10
-23.84128618048551
 20
-38.06878685573856
 30
0.0
 10
-24.327720157730813
 20
-38.03377577845349
 30
0.0
 10
-24.789314999999995
 20
-37.956653
 30
0.0
 10
-25.714837571841088
 20
-37.80557406350303
 30
0.0
 10
-26.530053314614655
 20
-37.47119045208303
 30
0.0
 10
-27.456653
 20
-37.321572999999994
 30
0.0
 10
-27.92112009992041
 20
-37.2483474520775
 30
0.0
 10
-28.416170855166076
 20
-37.22502807323308
 30
0.0
 10
-28.790323
 20
-37.00403199999999
 30
0.0
 10
-29.174423467885354
 20
-36.777159867094525
 30
0.0
 10
-29.43111071229371
 20
-36.3419592451142
 30
0.0
 10
-29.764112999999988
 20
-35.987903
 30
0.0
 10
-30.097115287706295
 20
-35.63384675488579
 30
0.0
 10
-30.50643261871023
 20
-35.360934886637736
 30
0.0
 10
-30.73790299999999
 20
-34.971774
 30
0.0
 10
-30.929488315924527
 20
-34.6496701049075
 30
0.0
 10
-30.99923640489281
 20
-34.24792774505801
 30
0.0
 10
-31.118951999999993
 20
-33.870968
 30
0.0
 10
-31.2386676586061
 20
-33.49400805499716
 30
0.0
 10
-31.408350876358046
 20
-33.141830751076085
 30
0.0
 10
-31.500000000000007
 20
-32.770160999999995
 30
0.0
 10
-31.626206774600192
 20
-32.25834769905642
 30
0.0
 10
-31.604436931769555
 20
-31.70957072949661
 30
0.0
 10
-31.622311999999997
 20
-31.170699
 30
0.0
 10
-31.64018706823044
 20
-30.631827270503372
 30
0.0
 10
-31.69770704752204
 20
-30.102860781069953
 30
0.0
 10
-31.744623999999998
 20
-29.571237000000004
 30
0.0
 10
-31.789312782955406
 20
-29.039049389955462
 30
0.0
 10
-31.83008311628875
 20
-28.505895056622148
 30
0.0
 10
-31.866934999999994
 20
-27.971773999999996
 30
0.0
 10
-31.906552821548914
 20
-27.438377083832798
 30
0.0
 10
-31.947323488215606
 20
-26.90522308383282
 30
0.0
 10
-31.989247000000002
 20
-26.372312
 30
0.0
 10
-32.07352073011687
 20
-25.305798046959772
 30
0.0
 10
-32.14890382904178
 20
-24.24007210249015
 30
0.0
 10
-32.233871
 20
-23.173387000000005
 30
0.0
 10
-32.280416796017604
 20
-22.639334893320054
 30
0.0
 10
-32.3211874626843
 20
-22.106180893320104
 30
0.0
 10
-32.356182999999994
 20
-21.57392499999999
 30
0.0
 10
-32.38786743780158
 20
-21.04219308063965
 30
0.0
 10
-32.4038433690992
 20
-20.51293218444373
 30
0.0
 10
-32.478494999999995
 20
-19.974462000000003
 30
0.0
 10
-32.55314658095088
 20
-19.435992175850537
 30
0.0
 10
-32.68647378298442
 20
-18.888313075777194
 30
0.0
 10
-32.600805999999984
 20
-18.375
 30
0.0
 10
-32.53144584656708
 20
-17.959400664348873
 30
0.0
 10
-32.318530401993755
 20
-17.56632889764079
 30
0.0
 10
-32.177419
 20
-17.147177000000006
 30
0.0
 10
-32.03630770072103
 20
-16.728025407459214
 30
0.0
 10
-31.967000339489612
 20
-16.282793721953013
 30
0.0
 10
-31.754032000000006
 20
-15.919355000000003
 30
0.0
 10
-31.524845356538027
 20
-15.528239114004315
 30
0.0
 10
-31.129283992752416
 20
-15.231848195084513
 30
0.0
 10
-30.794355000000007
 20
-14.903226000000002
 30
0.0
 10
-30.459425842710047
 20
-14.574603643476209
 30
0.0
 10
-30.185129116025976
 20
-14.213749979119749
 30
0.0
 10
-29.834677000000006
 20
-13.887097000000004
 30
0.0
 10
-29.48422505613739
 20
-13.560444181352038
 30
0.0
 10
-29.05761779775714
 20
-13.267992014337883
 30
0.0
 10
-28.875
 20
-12.870967999999998
 30
0.0
 10
-28.68561830590582
 20
-12.459238796412958
 30
0.0
 10
-28.75863481626256
 20
-11.935047911473797
 30
0.0
 10
-28.705644999999997
 20
-11.431452
 30
0.0
 10
-28.652655147429122
 20
-10.92785574346518
 30
0.0
 10
-28.473658795561263
 20
-10.444854488618857
 30
0.0
 10
-28.536290000000008
 20
-9.991935000000005
 30
0.0
 10
-28.60314957967442
 20
-9.508437885314434
 30
0.0
 10
-28.945363684847315
 20
-9.059221423847037
 30
0.0
 10
-29.213709999999995
 20
-8.600806
 30
0.0
 10
-29.482056239224274
 20
-8.142390705861335
 30
0.0
 10
-29.67653473023001
 20
-7.674776454548703
 30
0.0
 10
-29.89112900000001
 20
-7.209677000000001
 30
0.0
 10
-30.105723269769964
 20
-6.7445775454512935
 30
0.0
 10
-30.340433318304203
 20
-6.281992887666455
 30
0.0
 10
-30.568548
 20
-5.818548
 30
0.0
 10
-30.794354666666642
 20
-5.35483833333333
 30
0.0
 10
-31.02016133333335
 20
-4.89112866666667
 30
0.0
 10
-31.245967999999998
 20
-4.427419
 30
0.0
 10
-31.473753813637472
 20
-3.9640403990769704
 30
0.0
 10
-31.707806126148142
 20
-3.5015883147602276
 30
0.0
 10
-31.923386999999998
 20
-3.03629
 30
0.0
 10
-32.13896787385187
 20
-2.5709916852397714
 30
0.0
 10
-32.3360773090449
 20
-2.1028471400359994
 30
0.0
 10
-32.600806000000006
 20
-1.6451610000000005
 30
0.0
 10
-32.86553476585987
 20
-1.187474730462033
 30
0.0
 10
-33.197882825747485
 20
-0.740246872010135
 30
0.0
 10
-33.27822599999999
 20
-0.25403200000000004
 30
0.0
 10
-33.360041739053536
 20
0.2410944306200083
 30
0.0
 10
-33.18053022476911
 20
0.776650113805305
 30
0.0
 10
-33.10887099999999
 20
1.3124999999999996
 30
0.0
 10
-33.0372117752309
 20
1.8483498861946948
 30
0.0
 10
-33.073404839977144
 20
2.3844939753986485
 30
0.0
 10
-32.939516
 20
2.8790320000000014
 30
0.0
 10
-32.8011488095842
 20
3.390111467336838
 30
0.0
 10
-32.48113153714916
 20
3.8567550197546425
 30
0.0
 10
-32.21129
 20
4.335484
 30
0.0
 10
-31.941448685178695
 20
4.814212585810968
 30
0.0
 10
-31.72178302296177
 20
5.305026579534588
 30
0.0
 10
-31.483065000000003
 20
5.7919350000000005
 30
0.0
 10
-31.244346780353563
 20
6.278843821639254
 30
0.0
 10
-30.986576168567044
 20
6.761847063584378
 30
0.0
 10
-30.754839000000004
 20
7.248387000000001
 30
0.0
 10
-30.52310183143296
 20
7.734926936415622
 30
0.0
 10
-30.31739810608539
 20
8.22500356730173
 30
0.0
 10
-30.026613
 20
8.704839
 30
0.0
 10
-29.735828053637047
 20
9.184674169134261
 30
0.0
 10
-29.359961820003218
 20
9.654268151331271
 30
0.0
 10
-29.298387000000005
 20
10.16129
 30
0.0
 10
-29.243367738678344
 20
10.614331804852078
 30
0.0
 10
-29.43928029073332
 20
11.097256202728405
 30
0.0
 10
-29.510081
 20
11.600806
 30
0.0
 10
-29.58088175032945
 20
12.104356089318816
 30
0.0
 10
-29.526570512746705
 20
12.628531601957375
 30
0.0
 10
-29.721774
 20
13.040322999999999
 30
0.0
 10
-29.906532872263814
 20
13.430080966831705
 30
0.0
 10
-30.31481959494177
 20
13.719159586691793
 30
0.0
 10
-30.695564999999995
 20
14.014113000000002
 30
0.0
 10
-31.076310209561658
 20
14.309066261862156
 30
0.0
 10
-31.42951412978625
 20
14.609894311139577
 30
0.0
 10
-31.669355000000003
 20
14.987903
 30
0.0
 10
-31.90369222452539
 20
15.357237496306176
 30
0.0
 10
-32.02980940578738
 20
15.800251133690404
 30
0.0
 10
-32.219758
 20
16.215726000000004
 30
0.0
 10
-32.4097064653951
 20
16.6312005845468
 30
0.0
 10
-32.663486257163676
 20
17.01913643537094
 30
0.0
 10
-32.770161
 20
17.443548000000003
 30
0.0
 10
-32.891700071976956
 20
17.927098148139923
 30
0.0
 10
-32.82228187204622
 20
18.457997471917718
 30
0.0
 10
-32.804032
 20
18.97621
 30
0.0
 10
-32.785782139855286
 20
19.49442219013463
 30
0.0
 10
-32.818700540857144
 20
19.999947601120837
 30
0.0
 10
-32.83790299999999
 20
20.508871
 30
0.0
 10
-32.85420355111814
 20
21.018511592265153
 30
0.0
 10
-32.86549388445141
 20
21.52939859226513
 30
0.0
 10
-32.87177400000001
 20
22.04153200000001
 30
0.0
 10
-32.89187048036681
 20
23.064002870629196
 30
0.0
 10
-32.91861989039361
 20
24.084551160780368
 30
0.0
 10
-32.939516
 20
25.106855
 30
0.0
 10
-32.96411028866767
 20
26.12925183841631
 30
0.0
 10
-32.98175641992599
 20
27.149570053779946
 30
0.0
 10
-33.00725799999999
 20
28.172177
 30
0.0
 10
-33.02099167794528
 20
28.68370841883986
 30
0.0
 10
-33.03899521584491
 20
29.196346036541687
 30
0.0
 10
-33.041129
 20
29.704839
 30
0.0
 10
-33.04326278276356
 20
30.213331631849183
 30
0.0
 10
-33.02952683248117
 20
30.717679614860597
 30
0.0
 10
-33.075
 20
31.23750000000001
 30
0.0
 10
-33.12047316751884
 20
31.75732038513941
 30
0.0
 10
-33.22515545283885
 20
32.29261317240664
 30
0.0
 10
-33.10887099999999
 20
32.770161
 30
0.0
 10
-33.00255157374956
 20
33.20678524165384
 30
0.0
 10
-32.711514305598655
 20
33.59513740208632
 30
0.0
 10
-32.516129
 20
34.04032300000001
 30
0.0
 10
-32.320743820719244
 20
34.485508310098254
 30
0.0
 10
-32.221010480311556
 20
34.98752698419113
 30
0.0
 10
-31.92338700000001
 20
35.310484
 30
0.0
 10
-31.67883124568586
 20
35.57585619620403
 30
0.0
 10
-31.300663466430056
 20
35.720329034995196
 30
0.0
 10
-30.991935000000012
 20
35.98790300000001
 30
0.0
 10
-30.68320659269323
 20
36.25547691376282
 30
0.0
 10
-30.44391747161621
 20
36.646151906590376
 30
0.0
 10
-30.060484000000002
 20
36.665323
 30
0.0
  0
CIRCLE
  5
30
330
17
100
AcDbEntity
  8
0
100
AcDbCircle
 10
15.580645
 20
-94.16129
 30
0.0
 40
1.5
  0
CIRCLE
  5
31
330
17
100
AcDbEntity
  8
0
100
AcDbCircle
 10
-17.316532
 20
-93.737903
 30
0.0
 40
1.5
  0
CIRCLE
  5
32
330
17
100
AcDbEntity
  8
0
100
AcDbCircle
 10
-0.846774
 20
-90.520161
 30
0.0
 40
1.5
  0
CIRCLE
  5
33
330
17
100
AcDbEntity
  8
0
100
AcDbCircle
 10
14.395161
 20
-80.612903
 30
0.0
 40
1.5
  0
SPLINE
  5
34
330
17
100
AcDbEntity
  8
0
100
AcDbSpline
 70
0
 71
3
 72
80
 73
76
 74
0
 40
0.0
 40
0.0
 40
0.0
 40
0.0
 40
1.071094117592373
 40
1.071094117592373
 40
1.071094117592373
 40
2.2283521175923715
 40
2.2283521175923715
 40
2.2283521175923715
 40
3.3856111175923678
 40
3.3856111175923678
 40
3.3856111175923678
 40
4.542869117592367
 40
4.542869117592367
 40
4.542869117592367
 40
5.6139632351847535
 40
5.6139632351847535
 40
5.6139632351847535
 40
7.0509866481053685
 40
7.0509866481053685
 40
7.0509866481053685
 40
8.609142680831551
 40
8.609142680831551
 40
8.609142680831551
 40
10.1672997243676
 40
10.1672997243676
 40
10.1672997243676
 40
11.725455757093783
 40
11.725455757093783
 40
11.725455757093783
 40
13.283612800629832
 40
13.283612800629832
 40
13.283612800629832
 40
14.841768833356017
 40
14.841768833356017
 40
14.841768833356017
 40
16.439459329978256
 40
16.439459329978256
 40
16.439459329978256
 40
17.939681761630634
 40
17.939681761630634
 40
17.939681761630634
 40
19.439904193283027
 40
19.439904193283027
 40
19.439904193283027
 40
20.940125703029164
 40
20.940125703029164
 40
20.940125703029164
 40
22.454881977919957
 40
22.454881977919957
 40
22.454881977919957
 40
23.42035332186186
 40
23.42035332186186
 40
23.42035332186186
 40
24.385823876451695
 40
24.385823876451695
 40
24.385823876451695
 40
25.758538434662906
 40
25.758538434662906
 40
25.758538434662906
 40
27.131253955177264
 40
27.131253955177264
 40
27.131253955177264
 40
28.503968476376773
 40
28.503968476376773
 40
28.503968476376773
 40
29.876683034587984
 40
29.876683034587984
 40
29.876683034587984
 40
31.249397555787493
 40
31.249397555787493
 40
31.249397555787493
 40
32.13040925990328
 40
32.13040925990328
 40
32.13040925990328
 40
33.011420387335846
 40
33.011420387335846
 40
33.011420387335846
 40
33.011420387335846
 10
4.318548
 20
-80.443548
 30
0.0
 10
4.521439016903944
 20
-80.7676546622991
 30
0.0
 10
4.618798211371184
 20
-81.10864648546104
 30
0.0
 10
4.657258000000001
 20
-81.45967700000001
 30
0.0
 10
4.698811676131698
 20
-81.83894607124411
 30
0.0
 10
4.671608493253935
 20
-82.22993391753933
 30
0.0
 10
4.657258000000001
 20
-82.61693499999998
 30
0.0
 10
4.64215859743654
 20
-83.00256723994691
 30
0.0
 10
4.642158597436542
 20
-83.38832023994699
 30
0.0
 10
4.657258
 20
-83.77419399999997
 30
0.0
 10
4.673106285777869
 20
-84.16143660235807
 30
0.0
 10
4.706300634868616
 20
-84.55290748823926
 30
0.0
 10
4.657258
 20
-84.931452
 30
0.0
 10
4.610399469584415
 20
-85.28210043969217
 30
0.0
 10
4.497496136251085
 20
-85.62081010635887
 30
0.0
 10
4.318547999999998
 20
-85.94758099999997
 30
0.0
 10
4.080432595337393
 20
-86.38560300208354
 30
0.0
 10
3.731360392331588
 20
-86.80057711523659
 30
0.0
 10
3.302419000000001
 20
-86.96371000000003
 30
0.0
 10
2.8373203717256943
 20
-87.14059402725016
 30
0.0
 10
2.2783200381556257
 20
-87.021389900743
 30
0.0
 10
1.7443550000000008
 20
-86.98064500000002
 30
0.0
 10
1.2103896154495872
 20
-86.93990007282484
 30
0.0
 10
0.7014595587955157
 20
-86.97761447321035
 30
0.0
 10
0.18628999999999987
 20
-86.997581
 30
0.0
 10
-0.3299062505806677
 20
-87.01583434547088
 30
0.0
 10
-0.8492609172473348
 20
-87.02147934547074
 30
0.0
 10
-1.3717739999999994
 20
-87.01451599999999
 30
0.0
 10
-1.8932603950653832
 20
-87.0092658194893
 30
0.0
 10
-2.4148241283570604
 20
-86.9965467889156
 30
0.0
 10
-2.9298390000000003
 20
-87.03145200000003
 30
0.0
 10
-3.4448535375417566
 20
-87.06635718844068
 30
0.0
 10
-3.9533192219315496
 20
-87.14888655674984
 30
0.0
 10
-4.487902999999999
 20
-87.048387
 30
0.0
 10
-5.036050556425411
 20
-86.94533750857447
 30
0.0
 10
-5.6116583882300235
 20
-86.64985342577668
 30
0.0
 10
-5.842741999999999
 20
-86.20161300000001
 30
0.0
 10
-6.05972821772959
 20
-85.78071774967123
 30
0.0
 10
-5.9729438179593055
 20
-85.22513562992873
 30
0.0
 10
-5.955644999999997
 20
-84.70564499999999
 30
0.0
 10
-5.9383461820406875
 20
-84.18615437007135
 30
0.0
 10
-5.990532945892363
 20
-83.70275522995662
 30
0.0
 10
-6.068547999999999
 20
-83.20967699999999
 30
0.0
 10
-6.146563006166369
 20
-82.71659907304635
 30
0.0
 10
-6.250406270845084
 20
-82.21384206814679
 30
0.0
 10
-6.181451999999998
 20
-81.71370999999998
 30
0.0
 10
-6.111829671720772
 20
-81.20873244596699
 30
0.0
 10
-5.866045320538913
 20
-80.70643093801877
 30
0.0
 10
-5.504031999999999
 20
-80.358871
 30
0.0
 10
-5.273292908240322
 20
-80.13734416692355
 30
0.0
 10
-4.995335810547543
 20
-79.97868107949877
 30
0.0
 10
-4.741935
 20
-79.76612900000002
 30
0.0
 10
-4.488534396628418
 20
-79.55357709428
 30
0.0
 10
-4.2596900402485165
 20
-79.28713628460329
 30
0.0
 10
-3.979839
 20
-79.173387
 30
0.0
 10
-3.581944320298559
 20
-79.01165726291093
 30
0.0
 10
-3.0809375712964213
 20
-79.15859960408443
 30
0.0
 10
-2.608064999999999
 20
-79.22419399999997
 30
0.0
 10
-2.1351920972094907
 20
-79.28978844189872
 30
0.0
 10
-1.6904534115700698
 20
-79.27403482448615
 30
0.0
 10
-1.2362899999999994
 20
-79.27499999999999
 30
0.0
 10
-0.7789620224761266
 20
-79.27633947984242
 30
0.0
 10
-0.32170402247612656
 20
-79.2932748131758
 30
0.0
 10
0.13548399999999994
 20
-79.325806
 30
0.0
 10
0.5895071381402142
 20
-79.35796288266016
 30
0.0
 10
1.0339656085083646
 20
-79.40459270449807
 30
0.0
 10
1.5072579999999998
 20
-79.37661300000002
 30
0.0
 10
1.980550378730524
 20
-79.3486332962563
 30
0.0
 10
2.4826766770296764
 20
-79.24604407019993
 30
0.0
 10
2.879031999999999
 20
-79.42741900000001
 30
0.0
 10
3.1334138639146563
 20
-79.54382589562121
 30
0.0
 10
3.344227548728874
 20
-79.77720061877758
 30
0.0
 10
3.598790000000001
 20
-79.93548399999999
 30
0.0
 10
3.853352284642352
 20
-80.09376727761499
 30
0.0
 10
4.151663278468445
 20
-80.17695931160128
 30
0.0
 10
4.318548
 20
-80.44354799999999
 30
0.0
  0
CIRCLE
  5
35
330
17
100
AcDbEntity
  8
0
100
AcDbCircle
 10
-16.004032
 20
-80.104839
 30
0.0
 40
1.5
  0
CIRCLE
  5
36
330
17
100
AcDbEntity
  8
0
100
AcDbCircle
 10
9.272177
 20
-75.235887
 30
0.0
 40
1.5
  0
CIRCLE
  5
37
330
17
100
AcDbEntity
  8
0
100
AcDbCircle
 10
-10.627016
 20
-74.939516
 30
0.0
 40
1.5
  0
SPLINE
  5
38
330
17
100
AcDbEntity
  8
0
100
AcDbSpline
 70
0
 71
3
 72
83
 73
79
 74
0
 40
0.0
 40
0.0
 40
0.0
 40
0.0
 40
1.2034926944992257
 40
1.2034926944992257
 40
1.2034926944992257
 40
2.415888905017882
 40
2.415888905017882
 40
2.415888905017882
 40
3.823165297411714
 40
3.823165297411714
 40
3.823165297411714
 40
5.230441689805547
 40
5.230441689805547
 40
5.230441689805547
 40
6.637718082199379
 40
6.637718082199379
 40
6.637718082199379
 40
8.044994474593212
 40
8.044994474593212
 40
8.044994474593212
 40
9.45227186582779
 40
9.45227186582779
 40
9.45227186582779
 40
10.591490038297398
 40
10.591490038297398
 40
10.591490038297398
 40
11.770909557130707
 40
11.770909557130707
 40
11.770909557130707
 40
13.01284555713071
 40
13.01284555713071
 40
13.01284555713071
 40
14.254780557130708
 40
14.254780557130708
 40
14.254780557130708
 40
15.496716557130704
 40
15.496716557130704
 40
15.496716557130704
 40
16.38985205653267
 40
16.38985205653267
 40
16.38985205653267
 40
17.2829884092163
 40
17.2829884092163
 40
17.2829884092163
 40
18.383794793831687
 40
18.383794793831687
 40
18.383794793831687
 40
19.94268692535715
 40
19.94268692535715
 40
19.94268692535715
 40
21.501580088942777
 40
21.501580088942777
 40
21.501580088942777
 40
23.060472220468238
 40
23.060472220468238
 40
23.060472220468238
 40
24.619365384053864
 40
24.619365384053864
 40
24.619365384053864
 40
26.178257515579325
 40
26.178257515579325
 40
26.178257515579325
 40
27.18819353845008
 40
27.18819353845008
 40
27.18819353845008
 40
28.198129016332214
 40
28.198129016332214
 40
28.198129016332214
 40
29.468291016332213
 40
29.468291016332213
 40
29.468291016332213
 40
30.738452016332214
 40
30.738452016332214
 40
30.738452016332214
 40
32.008613016332205
 40
32.008613016332205
 40
32.008613016332205
 40
33.18803346851115
 40
33.18803346851115
 40
33.18803346851115
 40
33.18803346851115
 10
-5.588709999999998
 20
-62.237903
 30
0.0
 10
-5.342254942360407
 20
-61.87569598117588
 30
0.0
 10
-5.021647579118129
 20
-61.63429368434459
 30
0.0
 10
-4.657258
 20
-61.47580599999999
 30
0.0
 10
-4.290172643441906
 20
-61.316145813617894
 30
0.0
 10
-3.878654867474832
 20
-61.240631592976484
 30
0.0
 10
-3.4717739999999995
 20
-61.221773999999996
 30
0.0
 10
-2.999491231094692
 20
-61.19988524351689
 30
0.0
 10
-2.5334558460218815
 20
-61.2543309025758
 30
0.0
 10
-2.066129
 20
-61.289516000000006
 30
0.0
 10
-1.5987671671593002
 20
-61.32137303198546
 30
0.0
 10
-1.130218833825968
 20
-61.34395369865212
 30
0.0
 10
-0.6604839999999998
 20
-61.35725800000001
 30
0.0
 10
-0.18966762613783897
 20
-61.37127013234517
 30
0.0
 10
0.2788807071954945
 20
-61.39385079901189
 30
0.0
 10
0.7451609999999999
 20
-61.425000000000004
 30
0.0
 10
1.2103247659494976
 20
-61.458769435429524
 30
0.0
 10
1.6698709108051495
 20
-61.50896810850476
 30
0.0
 10
2.150806
 20
-61.49274200000001
 30
0.0
 10
2.631741430547527
 20
-61.47651587997843
 30
0.0
 10
3.1340658357966724
 20
-61.393864884084465
 30
0.0
 10
3.556452
 20
-61.560484
 30
0.0
 10
3.898381741113812
 20
-61.69536538579791
 30
0.0
 10
4.187926237760273
 20
-61.993598824064186
 30
0.0
 10
4.403226000000002
 20
-62.322581
 30
0.0
 10
4.626123376571187
 20
-62.66317247670183
 30
0.0
 10
4.769443586572014
 20
-63.036721138029755
 30
0.0
 10
4.826613
 20
-63.423387
 30
0.0
 10
4.886812743603818
 20
-63.830548528432985
 30
0.0
 10
4.851486593830897
 20
-64.25225469672783
 30
0.0
 10
4.826613
 20
-64.665323
 30
0.0
 10
4.80173942619718
 20
-65.0783909706718
 30
0.0
 10
4.78731839150371
 20
-65.48282109023133
 30
0.0
 10
4.826613
 20
-65.90725800000001
 30
0.0
 10
4.865907640136115
 20
-66.3316952515232
 30
0.0
 10
4.958918009965176
 20
-66.77613932547436
 30
0.0
 10
4.826613
 20
-67.149194
 30
0.0
 10
4.731466147707586
 20
-67.41747543562683
 30
0.0
 10
4.519792149871949
 20
-67.64883616506536
 30
0.0
 10
4.360887
 20
-67.91128999999998
 30
0.0
 10
4.201981698313627
 20
-68.17374408567716
 30
0.0
 10
4.095845345419351
 20
-68.46729133626172
 30
0.0
 10
3.895161
 20
-68.673387
 30
0.0
 10
3.647813987344887
 20
-68.92740355839325
 30
0.0
 10
3.2568391249244133
 20
-69.04857241646127
 30
0.0
 10
2.8790319999999996
 20
-69.096774
 30
0.0
 10
2.3440055298503966
 20
-69.16503402315735
 30
0.0
 10
1.8353862022897962
 20
-69.0869623607535
 30
0.0
 10
1.3209680000000001
 20
-69.045968
 30
0.0
 10
0.8065494571410824
 20
-69.00497361210624
 30
0.0
 10
0.28633203187472256
 20
-69.00105657495662
 30
0.0
 10
-0.23709700000000022
 20
-68.995161
 30
0.0
 10
-0.7605256853402221
 20
-68.98926542894651
 30
0.0
 10
-1.287165973036331
 20
-68.98139132270585
 30
0.0
 10
-1.7951610000000005
 20
-68.94435500000002
 30
0.0
 10
-2.303156363280358
 20
-68.90731865277435
 30
0.0
 10
-2.792506441140175
 20
-68.84112005047002
 30
0.0
 10
-3.353225999999999
 20
-68.893548
 30
0.0
 10
-3.9139451876372555
 20
-68.94597591482011
 30
0.0
 10
-4.546033761774688
 20
-69.11703022440214
 30
0.0
 10
-4.911289999999998
 20
-68.842742
 30
0.0
 10
-5.147923071077875
 20
-68.66504300924184
 30
0.0
 10
-5.27256232314861
 20
-68.30042660093487
 30
0.0
 10
-5.461694
 20
-67.99596800000002
 30
0.0
 10
-5.650825574790856
 20
-67.69150956335912
 30
0.0
 10
-5.9044495047587
 20
-67.44720886916481
 30
0.0
 10
-6.012096999999997
 20
-67.149194
 30
0.0
 10
-6.147481646687933
 20
-66.77439068777069
 30
0.0
 10
-6.051971719909076
 20
-66.31462632314863
 30
0.0
 10
-6.012096999999997
 20
-65.87903199999997
 30
0.0
 10
-5.972222311484336
 20
-65.44343801979525
 30
0.0
 10
-5.987982742235169
 20
-65.03201404300584
 30
0.0
 10
-6.012096999999999
 20
-64.60887099999998
 30
0.0
 10
-6.036211257764833
 20
-64.18572795699419
 30
0.0
 10
-6.068679342543669
 20
-63.75086584777197
 30
0.0
 10
-6.012096999999999
 20
-63.338710000000006
 30
0.0
 10
-5.959556910965462
 20
-62.95599864581148
 30
0.0
 10
-5.830235467376459
 20
-62.592865159618015
 30
0.0
 10
-5.588709999999999
 20
-62.237903
 30
0.0
  0
SPLINE
  5
39
330
17
100
AcDbEntity
  8
0
100
AcDbSpline
 70
0
 71
3
 72
80
 73
76
 74
0
 40
0.0
 40
0.0
 40
0.0
 40
0.0
 40
1.3172720510995444
 40
1.3172720510995444
 40
1.3172720510995444
 40
2.3883661686919244
 40
2.3883661686919244
 40
2.3883661686919244
 40
3.8810918726871355
 40
3.8810918726871355
 40
3.8810918726871355
 40
5.373818518345342
 40
5.373818518345342
 40
5.373818518345342
 40
6.866544222340553
 40
6.866544222340553
 40
6.866544222340553
 40
8.35927086799876
 40
8.35927086799876
 40
8.35927086799876
 40
9.851996515267205
 40
9.851996515267205
 40
9.851996515267205
 40
10.876908782076908
 40
10.876908782076908
 40
10.876908782076908
 40
11.901820264004005
 40
11.901820264004005
 40
11.901820264004005
 40
13.228733508660568
 40
13.228733508660568
 40
13.228733508660568
 40
14.555646753317124
 40
14.555646753317124
 40
14.555646753317124
 40
15.882559997973686
 40
15.882559997973686
 40
15.882559997973686
 40
16.73985303666524
 40
16.73985303666524
 40
16.73985303666524
 40
17.597146618607862
 40
17.597146618607862
 40
17.597146618607862
 40
18.911694438332958
 40
18.911694438332958
 40
18.911694438332958
 40
20.393548438332957
 40
20.393548438332957
 40
20.393548438332957
 40
21.875403438332956
 40
21.875403438332956
 40
21.875403438332956
 40
23.357258438332956
 40
23.357258438332956
 40
23.357258438332956
 40
24.839113438332955
 40
24.839113438332955
 40
24.839113438332955
 40
26.317940939550052
 40
26.317940939550052
 40
26.317940939550052
 40
27.25035429055271
 40
27.25035429055271
 40
27.25035429055271
 40
28.182767641555365
 40
28.182767641555365
 40
28.182767641555365
 40
29.76442039874608
 40
29.76442039874608
 40
29.76442039874608
 40
31.34607312024534
 40
31.34607312024534
 40
31.34607312024534
 40
32.92772587743605
 40
32.92772587743605
 40
32.92772587743605
 40
32.92772587743605
 10
-5.673387
 20
-44.540323
 30
0.0
 10
-5.450508157955734
 20
-44.12870318113603
 30
0.0
 10
-5.125415116998346
 20
-43.82591717007027
 30
0.0
 10
-4.741935
 20
-43.60887100000001
 30
0.0
 10
-4.430121432568955
 20
-43.43238742865713
 30
0.0
 10
-4.079704866594814
 20
-43.3125913159345
 30
0.0
 10
-3.7258059999999995
 20
-43.270161
 30
0.0
 10
-3.232596368741525
 20
-43.21102817293669
 30
0.0
 10
-2.732623244959138
 20
-43.30215893456937
 30
0.0
 10
-2.235484000000001
 20
-43.354839000000005
 30
0.0
 10
-1.7383444414282323
 20
-43.40751909866297
 30
0.0
 10
-1.2440387652551337
 20
-43.42174845261182
 30
0.0
 10
-0.7451610000000001
 20
-43.439516
 30
0.0
 10
-0.24628354945401276
 20
-43.45728353617979
 30
0.0
 10
0.2571659844055511
 20
-43.47858926133498
 30
0.0
 10
0.745161
 20
-43.52419399999998
 30
0.0
 10
1.2331563234385814
 20
-43.56979876743409
 30
0.0
 10
1.7056971091135524
 20
-43.63970257903537
 30
0.0
 10
2.2354840000000005
 20
-43.608870999999986
 30
0.0
 10
2.765270536545744
 20
-43.57803944158589
 30
0.0
 10
3.3523031017264486
 20
-43.44647262728603
 30
0.0
 10
3.725806000000001
 20
-43.69354799999999
 30
0.0
 10
3.9822548007759773
 20
-43.86319108262844
 30
0.0
 10
4.138040196844619
 20
-44.21133588008985
 30
0.0
 10
4.360886999999999
 20
-44.497983999999995
 30
0.0
 10
4.583733632498253
 20
-44.78463190039361
 30
0.0
 10
4.87364156937142
 20
-45.00978321742497
 30
0.0
 10
4.9959679999999995
 20
-45.302419
 30
0.0
 10
5.154339297263087
 20
-45.681283226429755
 30
0.0
 10
5.031819202281554
 20
-46.17326139905966
 30
0.0
 10
4.9677419999999985
 20
-46.62903200000001
 30
0.0
 10
4.903664797718445
 20
-47.084802600940286
 30
0.0
 10
4.898030488136874
 20
-47.50436563019108
 30
0.0
 10
4.939516
 20
-47.955645000000004
 30
0.0
 10
4.9810015118631235
 20
-48.40692436980892
 30
0.0
 10
5.069606845170948
 20
-48.88992008017609
 30
0.0
 10
4.911289999999999
 20
-49.28225799999999
 30
0.0
 10
4.809004541761331
 20
-49.53573995809655
 30
0.0
 10
4.603648760708708
 20
-49.751379516638394
 30
0.0
 10
4.445565
 20
-50.00201600000001
 30
0.0
 10
4.287481139116482
 20
-50.2526526421854
 30
0.0
 10
4.176669358487726
 20
-50.53828625354426
 30
0.0
 10
3.9798390000000006
 20
-50.72177400000001
 30
0.0
 10
3.678025334231674
 20
-51.00312851160508
 30
0.0
 10
3.17396289726766
 20
-51.04431542019245
 30
0.0
 10
2.709677
 20
-51.060484
 30
0.0
 10
2.186300137107674
 20
-51.07871040021358
 30
0.0
 10
1.7134690719070724
 20
-51.0651449101636
 30
0.0
 10
1.227823
 20
-51.060484
 30
0.0
 10
0.7399217218784936
 20
-51.057944925988814
 30
0.0
 10
0.24597005521182733
 20
-51.057944925988856
 30
0.0
 10
-0.25403200000000004
 20
-51.060484
 30
0.0
 10
-0.7533198082997508
 20
-51.05919663012895
 30
0.0
 10
-1.2472714749664189
 20
-51.05919663012899
 30
0.0
 10
-1.7358869999999997
 20
-51.060483999999995
 30
0.0
 10
-2.2229618934599147
 20
-51.063475974455415
 30
0.0
 10
-2.7000787505657393
 20
-51.07286913253508
 30
0.0
 10
-3.2177420000000003
 20
-51.060483999999995
 30
0.0
 10
-3.734347639305319
 20
-51.04812417086756
 30
0.0
 10
-4.291334163845327
 20
-51.014074948341026
 30
0.0
 10
-4.657258
 20
-50.721773999999996
 30
0.0
 10
-4.8879760993049715
 20
-50.537475759319726
 30
0.0
 10
-5.042738945657862
 20
-50.250511868295426
 30
0.0
 10
-5.250000000000001
 20
-50.002016000000005
 30
0.0
 10
-5.457261054342138
 20
-49.75352013170456
 30
0.0
 10
-5.717020316673528
 20
-49.54349228613802
 30
0.0
 10
-5.842741999999999
 20
-49.282258000000006
 30
0.0
 10
-6.056003690062838
 20
-48.839126283258054
 30
0.0
 10
-5.883581139504026
 20
-48.248651431155594
 30
0.0
 10
-5.786289999999999
 20
-47.70161300000001
 30
0.0
 10
-5.688998862691444
 20
-47.154574581188896
 30
0.0
 10
-5.66683913304684
 20
-46.650972581364236
 30
0.0
 10
-5.729839
 20
-46.12096799999999
 30
0.0
 10
-5.792838868374807
 20
-45.590963406675655
 30
0.0
 10
-5.940998337190771
 20
-45.034556230620105
 30
0.0
 10
-5.673387
 20
-44.540323
 30
0.0
  0
CIRCLE
  5
3A
330
17
100
AcDbEntity
  8
0
100
AcDbCircle
 10
25.784274
 20
-33.447581
 30
0.0
 40
1.5
  0
CIRCLE
  5
3B
330
17
100
AcDbEntity
  8
0
100
AcDbCircle
 10
-26.58871
 20
-32.685484
 30
0.0
 40
1.5
  0
CIRCLE
  5
3C
330
17
100
AcDbEntity
  8
0
100
AcDbCircle
 10
26.546371
 20
-19.899194
 30
0.0
 40
1.5
  0
CIRCLE
  5
3D
330
17
100
AcDbEntity
  8
0
100
AcDbCircle
 10
-26.546371
 20
-18.967742
 30
0.0
 40
1.5
  0
CIRCLE
  5
3E
330
17
100
AcDbEntity
  8
0
100
AcDbCircle
 10
0.127016
 20
-17.866935
 30
0.0
 40
1.5
  0
CIRCLE
  5
3F
330
17
100
AcDbEntity
  8
0
100
AcDbCircle
 10
-15.072581
 20
-14.818548
 30
0.0
 40
1.5
  0
CIRCLE
  5
40
330
17
100
AcDbEntity
  8
0
100
AcDbCircle
 10
15.241935
 20
-15.284274
 30
0.0
 40
1.5
  0
SPLINE
  5
41
330
17
100
AcDbEntity
  8
0
100
AcDbSpline
 70
0
 71
3
 72
62
 73
58
 74
0
 40
0.0
 40
0.0
 40
0.0
 40
0.0
 40
1.439516
 40
1.439516
 40
1.439516
 40
2.9464282431598328
 40
2.9464282431598328
 40
2.9464282431598328
 40
4.4533397745458005
 40
4.4533397745458005
 40
4.4533397745458005
 40
5.960252017705633
 40
5.960252017705633
 40
5.960252017705633
 40
7.467163558457113
 40
7.467163558457113
 40
7.467163558457113
 40
8.97407508984308
 40
8.97407508984308
 40
8.97407508984308
 40
10.480987333002913
 40
10.480987333002913
 40
10.480987333002913
 40
12.12512551416075
 40
12.12512551416075
 40
12.12512551416075
 40
13.628745724019941
 40
13.628745724019941
 40
13.628745724019941
 40
15.132365905721423
 40
15.132365905721423
 40
15.132365905721423
 40
16.635986115580614
 40
16.635986115580614
 40
16.635986115580614
 40
18.13960732504329
 40
18.13960732504329
 40
18.13960732504329
 40
19.80755840430491
 40
19.80755840430491
 40
19.80755840430491
 40
20.490249800664934
 40
20.490249800664934
 40
20.490249800664934
 40
21.866257800664933
 40
21.866257800664933
 40
21.866257800664933
 40
23.242266800664932
 40
23.242266800664932
 40
23.242266800664932
 40
24.618274800664935
 40
24.618274800664935
 40
24.618274800664935
 40
25.994282800664934
 40
25.994282800664934
 40
25.994282800664934
 40
27.494770343440614
 40
27.494770343440614
 40
27.494770343440614
 40
27.494770343440614
 10
9.653226
 20
-1.8629030000000002
 30
0.0
 10
9.930488004240445
 20
-2.458664456036695
 30
0.0
 10
9.883762088515919
 20
-2.919002920419379
 30
0.0
 10
9.653225999999998
 20
-3.302418999999999
 30
0.0
 10
9.411896515454636
 20
-3.7037861154362908
 30
0.0
 10
8.969142447833969
 20
-4.020859423557034
 30
0.0
 10
8.580645
 20
-4.360887
 30
0.0
 10
8.192147735668637
 20
-4.700914415834578
 30
0.0
 10
7.857907039868901
 20
-5.0638960783069775
 30
0.0
 10
7.508065000000001
 20
-5.4193549999999995
 30
0.0
 10
7.158222794886875
 20
-5.7748140895903175
 30
0.0
 10
6.792779230966329
 20
-6.122750431294701
 30
0.0
 10
6.435483999999998
 20
-6.477822999999999
 30
0.0
 10
6.078188935577653
 20
-6.832895403197366
 30
0.0
 10
5.7290421965132605
 20
-7.195104026742922
 30
0.0
 10
5.362903000000001
 20
-7.536289999999999
 30
0.0
 10
4.9967638057623045
 20
-7.877475971136594
 30
0.0
 10
4.613632154286961
 20
-8.197639292246018
 30
0.0
 10
4.290322999999999
 20
-8.594757999999999
 30
0.0
 10
3.9670136930013484
 20
-8.991876895328836
 30
0.0
 10
3.703526939704165
 20
-9.46595125000038
 30
0.0
 10
3.2177419999999994
 20
-9.653226000000002
 30
0.0
 10
2.6877193853291583
 20
-9.857554797671407
 30
0.0
 10
1.8930682636427492
 20
-9.720471222962747
 30
0.0
 10
1.6088709999999997
 20
-9.314516
 30
0.0
 10
1.3489629496322457
 20
-8.943256160322264
 30
0.0
 10
1.515984403915266
 20
-8.347119502113486
 30
0.0
 10
1.566532
 20
-7.811492000000001
 30
0.0
 10
1.617079595138148
 20
-7.275864507916999
 30
0.0
 10
1.5511533364403338
 20
-6.800746169663032
 30
0.0
 10
1.524194
 20
-6.308468000000001
 30
0.0
 10
1.4972346630548086
 20
-5.816189821118261
 30
0.0
 10
1.509242249826538
 20
-5.306751810184777
 30
0.0
 10
1.481855
 20
-4.805444
 30
0.0
 10
1.4544677319664767
 20
-4.304135856546865
 30
0.0
 10
1.3876855749554688
 20
-3.8109579246523473
 30
0.0
 10
1.439516
 20
-3.3024190000000004
 30
0.0
 10
1.497010941443738
 20
-2.7383021580172113
 30
0.0
 10
1.7004613917362892
 20
-2.15528326133215
 30
0.0
 10
2.1169350000000002
 20
-1.7782260000000003
 30
0.0
 10
2.287397403069107
 20
-1.6238966845619955
 30
0.0
 10
2.493546725585071
 20
-1.5040712998702255
 30
0.0
 10
2.709677
 20
-1.4395160000000002
 30
0.0
 10
3.1453013365930715
 20
-1.3094006806368936
 30
0.0
 10
3.6214732608081057
 20
-1.4038199176829993
 30
0.0
 10
4.085685
 20
-1.4395160000000002
 30
0.0
 10
4.549897076553108
 20
-1.4752121082587693
 30
0.0
 10
5.002148950699188
 20
-1.452184976435474
 30
0.0
 10
5.461693999999999
 20
-1.439516
 30
0.0
 10
5.921238715331307
 20
-1.4268470327715708
 30
0.0
 10
6.388076595216868
 20
-1.4245362058756053
 30
0.0
 10
6.837702
 20
-1.4395160000000002
 30
0.0
 10
7.287327404783132
 20
-1.4544957941243932
 30
0.0
 10
7.719740334463848
 20
-1.4867662092691465
 30
0.0
 10
8.213710000000003
 20
-1.4395159999999998
 30
0.0
 10
8.752366264822642
 20
-1.387991335607134
 30
0.0
 10
9.364220401279443
 20
-1.2419077187742524
 30
0.0
 10
9.653225999999998
 20
-1.8629029999999998
 30
0.0
  0
SPLINE
  5
42
330
17
100
AcDbEntity
  8
0
100
AcDbSpline
 70
0
 71
3
 72
62
 73
58
 74
0
 40
0.0
 40
0.0
 40
0.0
 40
0.0
 40
2.880277974331481
 40
2.880277974331481
 40
2.880277974331481
 40
4.320416476412792
 40
4.320416476412792
 40
4.320416476412792
 40
5.760554978494103
 40
5.760554978494103
 40
5.760554978494103
 40
7.099422230199812
 40
7.099422230199812
 40
7.099422230199812
 40
8.160426947260957
 40
8.160426947260957
 40
8.160426947260957
 40
9.494096947260957
 40
9.494096947260957
 40
9.494096947260957
 40
10.827765947260957
 40
10.827765947260957
 40
10.827765947260957
 40
12.161434947260958
 40
12.161434947260958
 40
12.161434947260958
 40
13.495104947260957
 40
13.495104947260957
 40
13.495104947260957
 40
14.973932792037015
 40
14.973932792037015
 40
14.973932792037015
 40
15.857991702771475
 40
15.857991702771475
 40
15.857991702771475
 40
16.691966988565966
 40
16.691966988565966
 40
16.691966988565966
 40
18.38085223671813
 40
18.38085223671813
 40
18.38085223671813
 40
20.069736792964946
 40
20.069736792964946
 40
20.069736792964946
 40
21.758620627223536
 40
21.758620627223536
 40
21.758620627223536
 40
23.4475058753757
 40
23.4475058753757
 40
23.4475058753757
 40
25.136390431622516
 40
25.136390431622516
 40
25.136390431622516
 40
26.321874431622515
 40
26.321874431622515
 40
26.321874431622515
 40
27.30937391778542
 40
27.30937391778542
 40
27.30937391778542
 40
27.30937391778542
 10
-9.229839
 20
-1.1854840000000002
 30
0.0
 10
-8.269380965302608
 20
-1.215602165445585
 30
0.0
 10
-7.31162426826723
 20
-1.2391712533336219
 30
0.0
 10
-6.350806
 20
-1.2701610000000003
 30
0.0
 10
-5.868686141896125
 20
-1.2898022539147724
 30
0.0
 10
-5.388847475229452
 20
-1.3039152539147707
 30
0.0
 10
-4.911290000000001
 20
-1.3125
 30
0.0
 10
-4.435053210171396
 20
-1.3178840372192724
 30
0.0
 10
-3.965059667982552
 20
-1.3081376939259086
 30
0.0
 10
-3.471774
 20
-1.3548389999999995
 30
0.0
 10
-3.0131764236952656
 20
-1.3982562471773523
 30
0.0
 10
-2.5344473702584662
 20
-1.4904614226212953
 30
0.0
 10
-2.201613
 20
-1.7782259999999996
 30
0.0
 10
-1.93785358965188
 20
-2.0062692011560066
 30
0.0
 10
-1.7657160293129315
 20
-2.357123691946529
 30
0.0
 10
-1.693548
 20
-2.709677
 30
0.0
 10
-1.6028336665893281
 20
-3.1528322120277448
 30
0.0
 10
-1.670073028108309
 20
-3.5986715865291905
 30
0.0
 10
-1.6935480000000003
 20
-4.043346999999998
 30
0.0
 10
-1.7170229542899074
 20
-4.488022080048443
 30
0.0
 10
-1.6967335845825178
 20
-4.931533200811764
 30
0.0
 10
-1.6935479999999998
 20
-5.377015999999999
 30
0.0
 10
-1.6903624154174823
 20
-5.822498799188236
 30
0.0
 10
-1.704280615959839
 20
-6.269953276801389
 30
0.0
 10
-1.693548
 20
-6.710685
 30
0.0
 10
-1.682815375992724
 20
-7.151417053664201
 30
0.0
 10
-1.6474318985163223
 20
-7.58542634283228
 30
0.0
 10
-1.693548
 20
-8.044355
 30
0.0
 10
-1.7446834195315017
 20
-8.553233865825355
 30
0.0
 10
-1.8960248651426055
 20
-9.092751795944348
 30
0.0
 10
-2.2862899999999997
 20
-9.399194000000001
 30
0.0
 10
-2.519594621114918
 20
-9.582388387418058
 30
0.0
 10
-2.838285186457418
 20
-9.682286760911222
 30
0.0
 10
-3.1330649999999993
 20
-9.653226000000002
 30
0.0
 10
-3.4111449743779296
 20
-9.625811586670679
 30
0.0
 10
-3.6679466363306252
 20
-9.483635714776295
 30
0.0
 10
-3.895161
 20
-9.314516
 30
0.0
 10
-4.355293324669451
 20
-8.972031280941124
 30
0.0
 10
-4.694086978598649
 20
-8.519048805425443
 30
0.0
 10
-5.0637099999999995
 20
-8.095161000000001
 30
0.0
 10
-5.4333328699735635
 20
-7.671273368233619
 30
0.0
 10
-5.833785082158829
 20
-7.276480382718373
 30
0.0
 10
-6.232258
 20
-6.875805999999999
 30
0.0
 10
-6.630730747496337
 20
-6.475131788567576
 30
0.0
 10
-7.027224202340852
 20
-6.068576184960569
 30
0.0
 10
-7.400806000000001
 20
-5.656452
 30
0.0
 10
-7.774388110412991
 20
-5.244327470018828
 30
0.0
 10
-8.125058525278382
 20
-4.826634349360302
 30
0.0
 10
-8.569355000000002
 20
-4.437097
 30
0.0
 10
-9.013651292701487
 20
-4.047559810226021
 30
0.0
 10
-9.551573568545432
 20
-3.6861783686804337
 30
0.0
 10
-9.737903
 20
-3.2177420000000003
 30
0.0
 10
-9.868693798519327
 20
-2.888930999843275
 30
0.0
 10
-9.82625125149912
 20
-2.5073729558260065
 30
0.0
 10
-9.737903000000001
 20
-2.032258
 30
0.0
 10
-9.664309553813638
 20
-1.6364907228823846
 30
0.0
 10
-9.558863204597417
 20
-1.17580647578368
 30
0.0
 10
-9.229839
 20
-1.1854839999999998
 30
0.0
  0
CIRCLE
  5
43
330
17
100
AcDbEntity
  8
0
100
AcDbCircle
 10
-18.120968
 20
0.635081
 30
0.0
 40
1.5
  0
CIRCLE
  5
44
330
17
100
AcDbEntity
  8
0
100
AcDbCircle
 10
27.985887
 20
-0.084677
 30
0.0
 40
2.5
  0
CIRCLE
  5
45
330
17
100
AcDbEntity
  8
0
100
AcDbCircle
 10
-28.028226
 20
0.592742
 30
0.0
 40
2.5
  0
SPLINE
  5
46
330
17
100
AcDbEntity
  8
0
100
AcDbSpline
 70
0
 71
3
 72
62
 73
58
 74
0
 40
0.0
 40
0.0
 40
0.0
 40
0.0
 40
1.2814024674394848
 40
1.2814024674394848
 40
1.2814024674394848
 40
2.788577624335657
 40
2.788577624335657
 40
2.788577624335657
 40
4.29575419516636
 40
4.29575419516636
 40
4.29575419516636
 40
5.802930044984157
 40
5.802930044984157
 40
5.802930044984157
 40
7.310106615814861
 40
7.310106615814861
 40
7.310106615814861
 40
8.817282465632658
 40
8.817282465632658
 40
8.817282465632658
 40
10.324459036463363
 40
10.324459036463363
 40
10.324459036463363
 40
11.255910036463362
 40
11.255910036463362
 40
11.255910036463362
 40
11.91726213330286
 40
11.91726213330286
 40
11.91726213330286
 40
13.441603130651222
 40
13.441603130651222
 40
13.441603130651222
 40
14.965944141887224
 40
14.965944141887224
 40
14.965944141887224
 40
16.49028413933202
 40
16.49028413933202
 40
16.49028413933202
 40
18.01462513668038
 40
18.01462513668038
 40
18.01462513668038
 40
19.38000743326145
 40
19.38000743326145
 40
19.38000743326145
 40
21.032438288142828
 40
21.032438288142828
 40
21.032438288142828
 40
22.68486814376303
 40
22.68486814376303
 40
22.68486814376303
 40
24.337298998644407
 40
24.337298998644407
 40
24.337298998644407
 40
25.989729853525784
 40
25.989729853525784
 40
25.989729853525784
 40
26.718152553839964
 40
26.718152553839964
 40
26.718152553839964
 40
26.718152553839964
 10
2.28629
 20
9.822580999999998
 30
0.0
 10
2.8062355812674027
 20
10.155195189429286
 30
0.0
 10
3.2149462537047526
 20
10.169572769707095
 30
0.0
 10
3.5564520000000006
 20
9.991935
 30
0.0
 10
3.9581282803508433
 20
9.782998900505863
 30
0.0
 10
4.266831431096318
 20
9.308423523578131
 30
0.0
 10
4.600806
 20
8.905242
 30
0.0
 10
4.934780882217087
 20
8.50206009818296
 30
0.0
 10
5.294027230008438
 20
8.170272183669807
 30
0.0
 10
5.645161
 20
7.818548
 30
0.0
 10
5.996294602013908
 20
7.466823984590288
 30
0.0
 10
6.339315633989927
 20
7.095163719098408
 30
0.0
 10
6.689515999999999
 20
6.7318549999999995
 30
0.0
 10
7.039716533541286
 20
6.368546107099536
 30
0.0
 10
7.397096407985612
 20
6.013588768583071
 30
0.0
 10
7.7338710000000015
 20
5.645161
 30
0.0
 10
8.07064543090596
 20
5.276733407667795
 30
0.0
 10
8.386814599096576
 20
4.894835398157104
 30
0.0
 10
8.778225999999997
 20
4.558468
 30
0.0
 10
9.169637588149461
 20
4.222100440929203
 30
0.0
 10
9.636291481001514
 20
3.9312635367744675
 30
0.0
 10
9.822581
 20
3.471774000000001
 30
0.0
 10
9.937709885439748
 20
3.1878046252092136
 30
0.0
 10
9.945757236773474
 20
2.8394205661141627
 30
0.0
 10
9.822581000000001
 20
2.540323
 30
0.0
 10
9.735122977547993
 20
2.327956699991525
 30
0.0
 10
9.581510765779498
 20
2.140437365642469
 30
0.0
 10
9.399194
 20
2.0322580000000006
 30
0.0
 10
8.97897469184366
 20
1.782916926003266
 30
0.0
 10
8.406262493991713
 20
1.9550692879191078
 30
0.0
 10
7.874999999999999
 20
2.0110890000000006
 30
0.0
 10
7.343737501168181
 20
2.067108712591265
 30
0.0
 10
6.853924706951841
 20
2.0069957732315045
 30
0.0
 10
6.350806
 20
1.9899189999999998
 30
0.0
 10
5.847687627656562
 20
1.972842238125721
 30
0.0
 10
5.331263360276292
 20
1.9988015851357188
 30
0.0
 10
4.826613
 20
1.9687500000000002
 30
0.0
 10
4.3219623086940855
 20
1.9386983951516918
 30
0.0
 10
3.829085539938549
 20
1.8526357846759658
 30
0.0
 10
3.3024189999999995
 20
1.9475810000000005
 30
0.0
 10
2.830673392498393
 20
2.0326253020124896
 30
0.0
 10
2.331817784501721
 20
2.262894684729653
 30
0.0
 10
2.116934999999999
 20
2.6249999999999996
 30
0.0
 10
1.856876740725225
 20
3.0632318396595273
 30
0.0
 10
2.0127433001178456
 20
3.694559045509989
 30
0.0
 10
2.0534269999999997
 20
4.276210000000001
 30
0.0
 10
2.0941106752798326
 20
4.857860602752932
 30
0.0
 10
2.0196116303563634
 20
5.389835014226038
 30
0.0
 10
1.989919
 20
5.927419
 30
0.0
 10
1.9602263516878402
 20
6.465003310862979
 30
0.0
 10
1.975340172133678
 20
7.00819720281129
 30
0.0
 10
1.9264110000000003
 20
7.578629000000001
 30
0.0
 10
1.8774818278663226
 20
8.14906079718871
 30
0.0
 10
1.7645096631531296
 20
8.746730499617868
 30
0.0
 10
1.8629030000000004
 20
9.229838999999998
 30
0.0
 10
1.9062766394519606
 20
9.442802342673938
 30
0.0
 10
1.9907230926878605
 20
9.633504006484426
 30
0.0
 10
2.28629
 20
9.822581
 30
0.0
  0
SPLINE
  5
47
330
17
100
AcDbEntity
  8
0
100
AcDbSpline
 70
0
 71
3
 72
62
 73
58
 74
0
 40
0.0
 40
0.0
 40
0.0
 40
0.0
 40
0.915926233659131
 40
0.915926233659131
 40
0.915926233659131
 40
2.5493992175217346
 40
2.5493992175217346
 40
2.5493992175217346
 40
4.182873199282693
 40
4.182873199282693
 40
4.182873199282693
 40
5.816346118346857
 40
5.816346118346857
 40
5.816346118346857
 40
7.449819102209461
 40
7.449819102209461
 40
7.449819102209461
 40
8.671054542671701
 40
8.671054542671701
 40
8.671054542671701
 40
10.259320966079626
 40
10.259320966079626
 40
10.259320966079626
 40
11.84758638984292
 40
11.84758638984292
 40
11.84758638984292
 40
13.435852813250845
 40
13.435852813250845
 40
13.435852813250845
 40
15.024119210001716
 40
15.024119210001716
 40
15.024119210001716
 40
15.622878847534174
 40
15.622878847534174
 40
15.622878847534174
 40
17.072323675499007
 40
17.072323675499007
 40
17.072323675499007
 40
18.701126505718186
 40
18.701126505718186
 40
18.701126505718186
 40
20.329928618509364
 40
20.329928618509364
 40
20.329928618509364
 40
21.95873142793351
 40
21.95873142793351
 40
21.95873142793351
 40
23.587534258152687
 40
23.587534258152687
 40
23.587534258152687
 40
25.216337067576834
 40
25.216337067576834
 40
25.216337067576834
 40
26.239498530921207
 40
26.239498530921207
 40
26.239498530921207
 40
27.020186018610104
 40
27.020186018610104
 40
27.020186018610104
 40
27.020186018610104
 10
-2.116935
 20
10.076613
 30
0.0
 10
-1.8382126283858666
 20
9.851859811306058
 30
0.0
 10
-1.6791670403589452
 20
9.594775408548943
 30
0.0
 10
-1.6088709999999997
 20
9.314515999999998
 30
0.0
 10
-1.4835042634887872
 20
8.814698268490007
 30
0.0
 10
-1.6404103483292318
 20
8.241171155449718
 30
0.0
 10
-1.7147180000000006
 20
7.684476000000002
 30
0.0
 10
-1.7890256970657523
 20
7.127780504461893
 30
0.0
 10
-1.78073486004205
 20
6.587916987079832
 30
0.0
 10
-1.8205650000000002
 20
6.054435
 30
0.0
 10
-1.8603951140454695
 20
5.5209533599900364
 30
0.0
 10
-1.9483461424600377
 20
4.993853241978995
 30
0.0
 10
-1.9264109999999999
 20
4.424394999999999
 30
0.0
 10
-1.9044758566698152
 20
3.854936735431096
 30
0.0
 10
-1.7726545337468476
 20
3.2431203435336293
 30
0.0
 10
-2.0322580000000006
 20
2.7943549999999995
 30
0.0
 10
-2.226345662659412
 20
2.4588440075386897
 30
0.0
 10
-2.639221181326232
 20
2.2144708026619924
 30
0.0
 10
-3.048387
 20
2.116935
 30
0.0
 10
-3.5805238098847383
 20
1.9900857166304102
 30
0.0
 10
-4.106386010298633
 20
2.1115981218977615
 30
0.0
 10
-4.636089000000001
 20
2.1592740000000004
 30
0.0
 10
-5.16579165630972
 20
2.2069498480953467
 30
0.0
 10
-5.699335097072181
 20
2.18078926197002
 30
0.0
 10
-6.223790000000001
 20
2.201613
 30
0.0
 10
-6.748245233016554
 20
2.2224367511363154
 30
0.0
 10
-7.263611916757923
 20
2.2902448855712563
 30
0.0
 10
-7.811492000000002
 20
2.2439520000000006
 30
0.0
 10
-8.359372074046599
 20
2.1976591152057123
 30
0.0
 10
-8.939765546502507
 20
2.0372652142353114
 30
0.0
 10
-9.399193999999998
 20
2.28629
 30
0.0
 10
-9.57239366905489
 20
2.380169711090084
 30
0.0
 10
-9.728401665329702
 20
2.532236426596888
 30
0.0
 10
-9.822581
 20
2.709677
 30
0.0
 10
-10.050565221016614
 20
3.1392155080566835
 30
0.0
 10
-9.9162328775314
 20
3.7174450726973407
 30
0.0
 10
-9.653226
 20
4.149194
 30
0.0
 10
-9.357673980202351
 20
4.634368641467439
 30
0.0
 10
-8.899632103198716
 20
4.934567926148637
 30
0.0
 10
-8.484677000000001
 20
5.283871
 30
0.0
 10
-8.069722079573825
 20
5.633173919996148
 30
0.0
 10
-7.697853894996289
 20
6.031580585905616
 30
0.0
 10
-7.316128999999999
 20
6.418548000000001
 30
0.0
 10
-6.933371053186882
 20
6.804166738598424
 30
0.0
 10
-6.5438550531868875
 20
7.1823927385984225
 30
0.0
 10
-6.147580999999998
 20
7.553225999999998
 30
0.0
 10
-5.752339830321459
 20
7.925408107153826
 30
0.0
 10
-5.353439273025847
 20
8.294243998625497
 30
0.0
 10
-4.979031999999999
 20
8.687903000000004
 30
0.0
 10
-4.604624731754239
 20
9.081561996348636
 30
0.0
 10
-4.254710747152819
 20
9.500044101966271
 30
0.0
 10
-3.8104839999999998
 20
9.822581
 30
0.0
 10
-3.5314350653814075
 20
10.025188290867474
 30
0.0
 10
-3.2151708075297996
 20
10.18993610422311
 30
0.0
 10
-2.8790320000000014
 20
10.245968000000001
 30
0.0
 10
-2.6225530662572973
 20
10.288721173874945
 30
0.0
 10
-2.3545033325379086
 20
10.26818083132039
 30
0.0
 10
-2.116935
 20
10.076613
 30
0.0
  0
CIRCLE
  5
48
330
17
100
AcDbEntity
  8
0
100
AcDbCircle
 10
15.665323
 20
15.495968
 30
0.0
 40
1.5
  0
CIRCLE
  5
49
330
17
100
AcDbEntity
  8
0
100
AcDbCircle
 10
-15.114919
 20
15.834677
 30
0.0
 40
1.5
  0
CIRCLE
  5
4A
330
17
100
AcDbEntity
  8
0
100
AcDbCircle
 10
27.604839
 20
18.205645
 30
0.0
 40
1.5
  0
CIRCLE
  5
4B
330
17
100
AcDbEntity
  8
0
100
AcDbCircle
 10
-0.042339
 20
18.375
 30
0.0
 40
1.5
  0
CIRCLE
  5
4C
330
17
100
AcDbEntity
  8
0
100
AcDbCircle
 10
-26.631048
 20
18.840726
 30
0.0
 40
1.5
  0
CIRCLE
  5
4D
330
17
100
AcDbEntity
  8
0
100
AcDbCircle
 10
-28.366935
 20
32.346774
 30
0.0
 40
1.5
  0
CIRCLE
  5
4E
330
17
100
AcDbEntity
  8
0
100
AcDbCircle
 10
28.366935
 20
32.262097
 30
0.0
 40
1.5
  0
ENDSEC
  0
SECTION
  2
OBJECTS
  0
DICTIONARY
  5
A
330
0
100
AcDbDictionary
281
1
  3
ACAD_COLOR
350
B
  3
ACAD_GROUP
350
C
  3
ACAD_LAYOUT
350
D
  3
ACAD_MATERIAL
350
E
  3
ACAD_MLEADERSTYLE
350
F
  3
ACAD_MLINESTYLE
350
10
  3
ACAD_PLOTSETTINGS
350
11
  3
ACAD_PLOTSTYLENAME
350
12
  3
ACAD_SCALELIST
350
14
  3
ACAD_TABLESTYLE
350
15
  3
ACAD_VISUALSTYLE
350
16
  3
EZDXF_META
350
2D
  0
DICTIONARY
  5
B
330
A
100
AcDbDictionary
281
1
  0
DICTIONARY
  5
C
330
A
100
AcDbDictionary
281
1
  0
DICTIONARY
  5
D
330
A
100
AcDbDictionary
281
1
  3
Model
350
1A
  3
Layout1
350
1E
  0
DICTIONARY
  5
E
330
A
100
AcDbDictionary
281
1
  3
ByBlock
350
1F
  3
ByLayer
350
20
  3
Global
350
21
  0
DICTIONARY
  5
F
330
A
100
AcDbDictionary
281
1
  3
Standard
350
2C
  0
DICTIONARY
  5
10
330
A
100
AcDbDictionary
281
1
  3
Standard
350
22
  0
DICTIONARY
  5
11
330
A
100
AcDbDictionary
281
1
  0
ACDBDICTIONARYWDFLT
  5
12
330
A
100
AcDbDictionary
281
1
  3
Normal
350
13
100
AcDbDictionaryWithDefault
340
13
  0
ACDBPLACEHOLDER
  5
13
330
12
  0
DICTIONARY
  5
14
330
A
100
AcDbDictionary
281
1
  0
DICTIONARY
  5
15
330
A
100
AcDbDictionary
281
1
  0
DICTIONARY
  5
16
330
A
100
AcDbDictionary
281
1
  0
LAYOUT
  5
1A
330
D
100
AcDbPlotSettings
  1

  4
A3
  6

 40
7.5
 41
20.0
 42
7.5
 43
20.0
 44
420.0
 45
297.0
 46
0.0
 47
0.0
 48
0.0
 49
0.0
140
0.0
141
0.0
142
1.0
143
1.0
 70
1024
 72
1
 73
0
 74
5
  7

 75
16
 76
0
 77
2
 78
300
147
1.0
148
0.0
149
0.0
100
AcDbLayout
  1
Model
 70
1
 71
0
 10
0.0
 20
0.0
 11
420.0
 21
297.0
 12
0.0
 22
0.0
 32
0.0
 14
1e+20
 24
1e+20
 34
1e+20
 15
-1e+20
 25
-1e+20
 35
-1e+20
146
0.0
 13
0.0
 23
0.0
 33
0.0
 16
1.0
 26
0.0
 36
0.0
 17
0.0
 27
1.0
 37
0.0
 76
1
330
17
  0
LAYOUT
  5
1E
330
D
100
AcDbPlotSettings
  1

  4
A3
  6

 40
7.5
 41
20.0
 42
7.5
 43
20.0
 44
420.0
 45
297.0
 46
0.0
 47
0.0
 48
0.0
 49
0.0
140
0.0
141
0.0
142
1.0
143
1.0
 70
0
 72
1
 73
0
 74
5
  7

 75
16
 76
0
 77
2
 78
300
147
1.0
148
0.0
149
0.0
100
AcDbLayout
  1
Layout1
 70
1
 71
1
 10
0.0
 20
0.0
 11
420.0
 21
297.0
 12
0.0
 22
0.0
 32
0.0
 14
1e+20
 24
1e+20
 34
1e+20
 15
-1e+20
 25
-1e+20
 35
-1e+20
146
0.0
 13
0.0
 23
0.0
 33
0.0
 16
1.0
 26
0.0
 36
0.0
 17
0.0
 27
1.0
 37
0.0
 76
1
330
1B
  0
MATERIAL
  5
1F
102
{ACAD_REACTORS
330
E
102
}
330
E
100
AcDbMaterial
  1
ByBlock
  2

 70
0
 40
1.0
 71
1
 41
1.0
 91
-1023410177
 42
1.0
 72
1
  3

 73
1
 74
1
 75
1
 44
0.5
 73
0
 45
1.0
 46
1.0
 77
1
  4

 78
1
 79
1
170
1
 48
1.0
171
1
  6

172
1
173
1
174
1
140
1.0
141
1.0
175
1
  7

176
1
177
1
178
1
143
1.0
179
1
  8

270
1
271
1
272
1
145
1.0
146
1.0
273
1
  9

274
1
275
1
276
1
 42
1.0
 72
1
  3

 73
1
 74
1
 75
1
 94
63
  0
MATERIAL
  5
20
102
{ACAD_REACTORS
330
E
102
}
330
E
100
AcDbMaterial
  1
ByLayer
  2

 70
0
 40
1.0
 71
1
 41
1.0
 91
-1023410177
 42
1.0
 72
1
  3

 73
1
 74
1
 75
1
 44
0.5
 73
0
 45
1.0
 46
1.0
 77
1
  4

 78
1
 79
1
170
1
 48
1.0
171
1
  6

172
1
173
1
174
1
140
1.0
141
1.0
175
1
  7

176
1
177
1
178
1
143
1.0
179
1
  8

270
1
271
1
272
1
145
1.0
146
1.0
273
1
  9

274
1
275
1
276
1
 42
1.0
 72
1
  3

 73
1
 74
1
 75
1
 94
63
  0
MATERIAL
  5
21
102
{ACAD_REACTORS
330
E
102
}
330
E
100
AcDbMaterial
  1
Global
  2

 70
0
 40
1.0
 71
1
 41
1.0
 91
-1023410177
 42
1.0
 72
1
  3

 73
1
 74
1
 75
1
 44
0.5
 73
0
 45
1.0
 46
1.0
 77
1
  4

 78
1
 79
1
170
1
 48
1.0
171
1
  6

172
1
173
1
174
1
140
1.0
141
1.0
175
1
  7

176
1
177
1
178
1
143
1.0
179
1
  8

270
1
271
1
272
1
145
1.0
146
1.0
273
1
  9

274
1
275
1
276
1
 42
1.0
 72
1
  3

 73
1
 74
1
 75
1
 94
63
  0
MLINESTYLE
  5
22
102
{ACAD_REACTORS
330
10
102
}
330
10
100
AcDbMlineStyle
  2
Standard
 70
0
  3

 62
256
 51
90.0
 52
90.0
 71
2
 49
0.5
 62
256
  6
BYLAYER
 49
-0.5
 62
256
  6
BYLAYER
  0
MLEADERSTYLE
  5
2C
102
{ACAD_REACTORS
330
F
102
}
330
F
100
AcDbMLeaderStyle
179
2
170
2
171
1
172
0
 90
2
 40
0.0
 41
0.0
173
1
 91
-1056964608
 92
-2
290
1
 42
2.0
291
1
 43
8.0
  3
Standard
 44
4.0
300

342
29
174
1
175
1
176
0
178
1
 93
-1056964608
 45
4.0
292
0
297
0
 46
4.0
 94
-1056964608
 47
1.0
 49
1.0
140
1.0
294
1
141
0.0
177
0
142
1.0
295
0
296
0
143
3.75
271
0
272
9
273
9
  0
DICTIONARY
  5
2D
330
A
100
AcDbDictionary
280
1
281
1
  3
CREATED_BY_EZDXF
350
2E
  3
WRITTEN_BY_EZDXF
350
52
  0
DICTIONARYVAR
  5
2E
330
2D
100
DictionaryVariables
280
0
  1
1.4.4 @ 2026-09-13T12:48:58.627741+00:00
  0
DICTIONARYVAR
  5
52
330
2D
100
DictionaryVariables
280
0
  1
1.4.4 @ 2026-09-13T12:48:58.642146+00:00
  0
ENDSEC
  0
EOF
