  0
SECTION
  2
HEADER
  9
$ACADVER
  1
AC1027
  9
$ACADMAINTVER
 70
105
  9
$DWGCODEPAGE
  3
ANSI_1252
  9
$LASTSAVEDBY
  1
ezdxf
  9
$REQUIREDVERSIONS
160
0
  9
$INSBASE
 10
0.0
 20
0.0
 30
0.0
  9
$EXTMIN
 10
1e+20
 20
1e+20
 30
1e+20
  9
$EXTMAX
 10
-1e+20
 20
-1e+20
 30
-1e+20
  9
$LIMMIN
 10
0.0
 20
0.0
  9
$LIMMAX
 10
420.0
 20
297.0
  9
$ORTHOMODE
 70
0
  9
$REGENMODE
 70
1
  9
$FILLMODE
 70
1
  9
$QTEXTMODE
 70
0
  9
$MIRRTEXT
 70
1
  9
$LTSCALE
 40
1.0
  9
$ATTMODE
 70
1
  9
$TEXTSIZE
 40
2.5
  9
$TRACEWID
 40
1.0
  9
$TEXTSTYLE
  7
Standard
  9
$CLAYER
  8
0
  9
$CELTYPE
  6
ByLayer
  9
$CECOLOR
 62
256
  9
$CELTSCALE
 40
1.0
  9
$DISPSILH
 70
0
  9
$DIMSCALE
 40
1.0
  9
$DIMASZ
 40
2.5
  9
$DIMEXO
 40
0.625
  9
$DIMDLI
 40
3.75
  9
$DIMRND
 40
0.0
  9
$DIMDLE
 40
0.0
  9
$DIMEXE
 40
1.25
  9
$DIMTP
 40
0.0
  9
$DIMTM
 40
0.0
  9
$DIMTXT
 40
2.5
  9
$DIMCEN
 40
2.5
  9
$DIMTSZ
 40
0.0
  9
$DIMTOL
 70
0
  9
$DIMLIM
 70
0
  9
$DIMTIH
 70
0
  9
$DIMTOH
 70
0
  9
$DIMSE1
 70
0
  9
$DIMSE2
 70
0
  9
$DIMTAD
 70
1
  9
$DIMZIN
 70
8
  9
$DIMBLK
  1

  9
$DIMASO
 70
1
  9
$DIMSHO
 70
1
  9
$DIMPOST
  1

  9
$DIMAPOST
  1

  9
$DIMALT
 70
0
  9
$DIMALTD
 70
3
  9
$DIMALTF
 40
0.03937007874
  9
$DIMLFAC
 40
1.0
  9
$DIMTOFL
 70
1
  9
$DIMTVP
 40
0.0
  9
$DIMTIX
 70
0
  9
$DIMSOXD
 70
0
  9
$DIMSAH
 70
0
  9
$DIMBLK1
  1

  9
$DIMBLK2
  1

  9
$DIMSTYLE
  2
ISO-25
  9
$DIMCLRD
 70
0
  9
$DIMCLRE
 70
0
  9
$DIMCLRT
 70
0
  9
$DIMTFAC
 40
1.0
  9
$DIMGAP
 40
0.625
  9
$DIMJUST
 70
0
  9
$DIMSD1
 70
0
  9
$DIMSD2
 70
0
  9
$DIMTOLJ
 70
0
  9
$DIMTZIN
 70
8
  9
$DIMALTZ
 70
0
  9
$DIMALTTZ
 70
0
  9
$DIMUPT
 70
0
  9
$DIMDEC
 70
2
  9
$DIMTDEC
 70
2
  9
$DIMALTU
 70
2
  9
$DIMALTTD
 70
3
  9
$DIMTXSTY
  7
Standard
  9
$DIMAUNIT
 70
0
  9
$DIMADEC
 70
0
  9
$DIMALTRND
 40
0.0
  9
$DIMAZIN
 70
0
  9
$DIMDSEP
 70
44
  9
$DIMATFIT
 70
3
  9
$DIMFRAC
 70
0
  9
$DIMLDRBLK
  1

  9
$DIMLUNIT
 70
2
  9
$DIMLWD
 70
-2
  9
$DIMLWE
 70
-2
  9
$DIMTMOVE
 70
0
  9
$DIMFXL
 40
1.0
  9
$DIMFXLON
 70
0
  9
$DIMJOGANG
 40
0.785398163397
  9
$DIMTFILL
 70
0
  9
$DIMTFILLCLR
 70
0
  9
$DIMARCSYM
 70
0
  9
$DIMLTYPE
  6

  9
$DIMLTEX1
  6

  9
$DIMLTEX2
  6

  9
$DIMTXTDIRECTION
 70
0
  9
$LUNITS
 70
2
  9
$LUPREC
 70
4
  9
$SKETCHINC
 40
1.0
  9
$FILLETRAD
 40
10.0
  9
$AUNITS
 70
0
  9
$AUPREC
 70
2
  9
$MENU
  1
.
  9
$ELEVATION
 40
0.0
  9
$PELEVATION
 40
0.0
  9
$THICKNESS
 40
0.0
  9
$LIMCHECK
 70
0
  9
$CHAMFERA
 40
0.0
  9
$CHAMFERB
 40
0.0
  9
$CHAMFERC
 40
0.0
  9
$CHAMFERD
 40
0.0
  9
$SKPOLY
 70
0
  9
$TDCREATE
 40
2461297.687696759
  9
$TDUCREATE
 40
2458532.153996898
  9
$TDUPDATE
 40
2461297.687696759
  9
$TDUUPDATE
 40
2458532.1544311
  9
$TDINDWG
 40
0.0
  9
$TDUSRTIMER
 40
0.0
  9
$USRTIMER
 70
1
  9
$ANGBASE
 50
0.0
  9
$ANGDIR
 70
0
  9
$PDMODE
 70
0
  9
$PDSIZE
 40
0.0
  9
$PLINEWID
 40
0.0
  9
$SPLFRAME
 70
0
  9
$SPLINETYPE
 70
6
  9
$SPLINESEGS
 70
8
  9
$HANDSEED
  5
122
  9
$SURFTAB1
 70
6
  9
$SURFTAB2
 70
6
  9
$SURFTYPE
 70
6
  9
$SURFU
 70
6
  9
$SURFV
 70
6
  9
$UCSBASE
  2

  9
$UCSNAME
  2

  9
$UCSORG
 10
0.0
 20
0.0
 30
0.0
  9
$UCSXDIR
 10
1.0
 20
0.0
 30
0.0
  9
$UCSYDIR
 10
0.0
 20
1.0
 30
0.0
  9
$UCSORTHOREF
  2

  9
$UCSORTHOVIEW
 70
0
  9
$UCSORGTOP
 10
0.0
 20
0.0
 30
0.0
  9
$UCSORGBOTTOM
 10
0.0
 20
0.0
 30
0.0
  9
$UCSORGLEFT
 10
0.0
 20
0.0
 30
0.0
  9
$UCSORGRIGHT
 10
0.0
 20
0.0
 30
0.0
  9
$UCSORGFRONT
 10
0.0
 20
0.0
 30
0.0
  9
$UCSORGBACK
 10
0.0
 20
0.0
 30
0.0
  9
$PUCSBASE
  2

  9
$PUCSNAME
  2

  9
$PUCSORG
 10
0.0
 20
0.0
 30
0.0
  9
$PUCSXDIR
 10
1.0
 20
0.0
 30
0.0
  9
$PUCSYDIR
 10
0.0
 20
1.0
 30
0.0
  9
$PUCSORTHOREF
  2

  9
$PUCSORTHOVIEW
 70
0
  9
$PUCSORGTOP
 10
0.0
 20
0.0
 30
0.0
  9
$PUCSORGBOTTOM
 10
0.0
 20
0.0
 30
0.0
  9
$PUCSORGLEFT
 10
0.0
 20
0.0
 30
0.0
  9
$PUCSORGRIGHT
 10
0.0
 20
0.0
 30
0.0
  9
$PUCSORGFRONT
 10
0.0
 20
0.0
 30
0.0
  9
$PUCSORGBACK
 10
0.0
 20
0.0
 30
0.0
  9
$USERI1
 70
0
  9
$USERI2
 70
0
  9
$USERI3
 70
0
  9
$USERI4
 70
0
  9
$USERI5
 70
0
  9
$USERR1
 40
0.0
  9
$USERR2
 40
0.0
  9
$USERR3
 40
0.0
  9
$USERR4
 40
0.0
  9
$USERR5
 40
0.0
  9
$WORLDVIEW
 70
1
  9
$SHADEDGE
 70
3
  9
$SHADEDIF
 70
70
  9
$TILEMODE
 70
1
  9
$MAXACTVP
 70
64
  9
$PINSBASE
 10
0.0
 20
0.0
 30
0.0
  9
$PLIMCHECK
 70
0
  9
$PEXTMIN
 10
1e+20
 20
1e+20
 30
1e+20
  9
$PEXTMAX
 10
-1e+20
 20
-1e+20
 30
-1e+20
  9
$PLIMMIN
 10
0.0
 20
0.0
  9
$PLIMMAX
 10
420.0
 20
297.0
  9
$UNITMODE
 70
0
  9
$VISRETAIN
 70
1
  9
$PLINEGEN
 70
0
  9
$PSLTSCALE
 70
1
  9
$TREEDEPTH
 70
3020
  9
$CMLSTYLE
  2
Standard
  9
$CMLJUST
 70
0
  9
$CMLSCALE
 40
20.0
  9
$PROXYGRAPHICS
 70
1
  9
$MEASUREMENT
 70
1
  9
$CELWEIGHT
370
-1
  9
$ENDCAPS
280
0
  9
$JOINSTYLE
280
0
  9
$LWDISPLAY
290
0
  9
$INSUNITS
 70
4
  9
$HYPERLINKBASE
  1

  9
$STYLESHEET
  1

  9
$XEDIT
290
1
  9
$CEPSNTYPE
380
0
  9
$PSTYLEMODE
290
1
  9
$FINGERPRINTGUID
  2
{107D81DE-CD15-402D-B49C-FA7D24CF316F}
  9
$VERSIONGUID
  2
{3794C5B9-9382-4ED0-9F04-AEDCAF24CA6B}
  9
$EXTNAMES
290
1
  9
$PSVPSCALE
 40
0.0
  9
$OLESTARTUP
290
0
  9
$SORTENTS
280
127
  9
$INDEXCTL
280
0
  9
$HIDETEXT
280
1
  9
$XCLIPFRAME
280
1
  9
$HALOGAP
280
0
  9
$OBSCOLOR
 70
257
  9
$OBSLTYPE
280
0
  9
$INTERSECTIONDISPLAY
280
0
  9
$INTERSECTIONCOLOR
 70
257
  9
$DIMASSOC
280
2
  9
$PROJECTNAME
  1

  9
$CAMERADISPLAY
290
0
  9
$LENSLENGTH
 40
50.0
  9
$CAMERAHEIGHT
 40
0.0
  9
$STEPSPERSEC
 40
24.0
  9
$STEPSIZE
 40
100.0
  9
$3DDWFPREC
 40
2.0
  9
$PSOLWIDTH
 40
0.005
  9
$PSOLHEIGHT
 40
0.08
  9
$LOFTANG1
 40
1.570796326795
  9
$LOFTANG2
 40
1.570796326795
  9
$LOFTMAG1
 40
0.0
  9
$LOFTMAG2
 40
0.0
  9
$LOFTPARAM
 70
7
  9
$LOFTNORMALS
280
1
  9
$LATITUDE
 40
37.795
  9
$LONGITUDE
 40
-122.394
  9
$NORTHDIRECTION
 40
0.0
  9
$TIMEZONE
 70
-8000
  9
$LIGHTGLYPHDISPLAY
280
1
  9
$TILEMODELIGHTSYNCH
280
1
  9
$CMATERIAL
347
20
  9
$SOLIDHIST
280
0
  9
$SHOWHIST
280
1
  9
$DWFFRAME
280
2
  9
$DGNFRAME
280
2
  9
$REALWORLDSCALE
290
1
  9
$INTERFERECOLOR
 62
256
  9
$CSHADOW
280
0
  9
$SHADOWPLANELOCATION
 40
0.0
  0
ENDSEC
  0
SECTION
  2
CLASSES
  0
CLASS
  1
ACDBDICTIONARYWDFLT
  2
AcDbDictionaryWithDefault
  3
ObjectDBX Classes
 90
0
 91
0
280
0
281
0
  0
CLASS
  1
SUN
  2
AcDbSun
  3
SCENEOE
 90
1153
 91
0
280
0
281
0
  0
CLASS
  1
VISUALSTYLE
  2
AcDbVisualStyle
  3
ObjectDBX Classes
 90
4095
 91
0
280
0
281
0
  0
CLASS
  1
MATERIAL
  2
AcDbMaterial
  3
ObjectDBX Classes
 90
1153
 91
0
280
0
281
0
  0
CLASS
  1
SCALE
  2
AcDbScale
  3
ObjectDBX Classes
 90
1153
 91
0
280
0
281
0
  0
CLASS
  1
TABLESTYLE
  2
AcDbTableStyle
  3
ObjectDBX Classes
 90
4095
 91
0
280
0
281
0
  0
CLASS
  1
MLEADERSTYLE
  2
AcDbMLeaderStyle
  3
ACDB_MLEADERSTYLE_CLASS
 90
4095
 91
0
280
0
281
0
  0
CLASS
  1
DICTIONARYVAR
  2
AcDbDictionaryVar
  3
ObjectDBX Classes
 90
0
 91
0
280
0
281
0
  0
CLASS
  1
CELLSTYLEMAP
  2
AcDbCellStyleMap
  3
ObjectDBX Classes
 90
1152
 91
0
280
0
281
0
  0
CLASS
  1
MENTALRAYRENDERSETTINGS
  2
AcDbMentalRayRenderSettings
  3
SCENEOE
 90
1024
 91
0
280
0
281
0
  0
CLASS
  1
ACDBDETAILVIEWSTYLE
  2
AcDbDetailViewStyle
  3
ObjectDBX Classes
 90
1025
 91
0
280
0
281
0
  0
CLASS
  1
ACDBSECTIONVIEWSTYLE
  2
AcDbSectionViewStyle
  3
ObjectDBX Classes
 90
1025
 91
0
280
0
281
0
  0
CLASS
  1
RASTERVARIABLES
  2
AcDbRasterVariables
  3
ISM
 90
0
 91
0
280
0
281
0
  0
CLASS
  1
LAYOUT
  2
AcDbLayout
  3
ObjectDBX Classes
 90
0
 91
0
280
0
281
0
  0
CLASS
  1
ACDBPLACEHOLDER
  2
AcDbPlaceHolder
  3
ObjectDBX Classes
 90
0
 91
0
280
0
281
0
  0
ENDSEC
  0
SECTION
  2
TABLES
  0
TABLE
  2
VPORT
  5
8
330
0
100
AcDbSymbolTable
 70
1
  0
VPORT
  5
11E
330
8
100
AcDbSymbolTableRecord
100
AcDbViewportTableRecord
  2
*Active
 70
0
 10
0.0
 20
0.0
 11
1.0
 21
1.0
 12
0.0
 22
7.249999999998238
 13
0.0
 23
0.0
 14
0.5
 24
0.5
 15
0.5
 25
0.5
 16
0.0
 26
0.0
 36
1.0
 17
0.0
 27
0.0
 37
0.0
 40
214.5000000000037
 41
1.34
 42
50.0
 43
0.0
 44
0.0
 50
0.0
 51
0.0
 71
0
 72
1000
 73
1
 74
3
 75
0
 76
0
 77
0
 78
0
281
0
 65
1
110
0.0
120
0.0
130
0.0
111
1.0
121
0.0
131
0.0
112
0.0
122
1.0
132
0.0
 79
0
146
0.0
  0
ENDTAB
  0
TABLE
  2
LTYPE
  5
2
330
0
100
AcDbSymbolTable
 70
3
  0
LTYPE
  5
24
330
2
100
AcDbSymbolTableRecord
100
AcDbLinetypeTableRecord
  2
ByBlock
 70
0
  3

 72
65
 73
0
 40
0.0
  0
LTYPE
  5
25
330
2
100
AcDbSymbolTableRecord
100
AcDbLinetypeTableRecord
  2
ByLayer
 70
0
  3

 72
65
 73
0
 40
0.0
  0
LTYPE
  5
26
330
2
100
AcDbSymbolTableRecord
100
AcDbLinetypeTableRecord
  2
Continuous
 70
0
  3

 72
65
 73
0
 40
0.0
  0
ENDTAB
  0
TABLE
  2
LAYER
  5
1
330
0
100
AcDbSymbolTable
 70
2
  0
LAYER
  5
27
330
1
100
AcDbSymbolTableRecord
100
AcDbLayerTableRecord
  2
0
 70
0
 62
7
  6
Continuous
370
-3
390
13
347
21
  0
LAYER
  5
28
330
1
100
AcDbSymbolTableRecord
100
AcDbLayerTableRecord
  2
Defpoints
 70
0
 62
7
  6
Continuous
290
0
370
-3
390
13
347
21
  0
ENDTAB
  0
TABLE
  2
STYLE
  5
5
330
0
100
AcDbSymbolTable
 70
1
  0
STYLE
  5
29
330
5
100
AcDbSymbolTableRecord
100
AcDbTextStyleTableRecord
  2
Standard
 70
0
 40
0.0
 41
1.0
 50
0.0
 71
0
 42
2.5
  3
txt
  4

  0
ENDTAB
  0
TABLE
  2
VIEW
  5
7
330
0
100
AcDbSymbolTable
 70
0
  0
ENDTAB
  0
TABLE
  2
UCS
  5
6
330
0
100
AcDbSymbolTable
 70
0
  0
ENDTAB
  0
TABLE
  2
APPID
  5
3
330
0
100
AcDbSymbolTable
 70
3
  0
APPID
  5
2A
330
3
100
AcDbSymbolTableRecord
100
AcDbRegAppTableRecord
  2
ACAD
 70
0
  0
APPID
  5
11F
330
3
100
AcDbSymbolTableRecord
100
AcDbRegAppTableRecord
  2
HATCHBACKGROUNDCOLOR
 70
0
  0
APPID
  5
120
330
3
100
AcDbSymbolTableRecord
100
AcDbRegAppTableRecord
  2
EZDXF
 70
0
  0
ENDTAB
  0
TABLE
  2
DIMSTYLE
  5
4
330
0
100
AcDbSymbolTable
 70
1
100
AcDbDimStyleTable
  0
DIMSTYLE
105
2B
330
4
100
AcDbSymbolTableRecord
100
AcDbDimStyleTableRecord
  2
Standard
 70
0
 40
1.0
 41
2.5
 42
0.625
 43
3.75
 44
1.25
 45
0.0
 46
0.0
 47
0.0
 48
0.0
 49
2.5
140
2.5
141
2.5
142
0.0
143
0.03937007874
144
1.0
145
0.0
146
1.0
147
0.625
148
0.0
 69
0
 70
0
 71
0
 72
0
 73
0
 74
0
 75
0
 76
0
 77
1
 78
8
 79
3
170
0
171
3
172
1
173
0
174
0
175
0
176
0
177
0
178
0
179
2
271
2
272
2
273
2
274
3
275
0
276
0
277
2
278
44
279
0
280
0
281
0
282
0
283
0
284
8
285
0
286
0
288
0
289
3
290
0
371
-2
372
-2
  0
ENDTAB
  0
TABLE
  2
BLOCK_RECORD
  5
9
330
0
100
AcDbSymbolTable
 70
2
  0
BLOCK_RECORD
  5
17
330
9
100
AcDbSymbolTableRecord
100
AcDbBlockTableRecord
  2
*Model_Space
340
1A
 70
0
280
1
281
0
  0
BLOCK_RECORD
  5
1B
330
9
100
AcDbSymbolTableRecord
100
AcDbBlockTableRecord
  2
*Paper_Space
340
1E
 70
0
280
1
281
0
  0
ENDTAB
  0
ENDSEC
  0
SECTION
  2
BLOCKS
  0
BLOCK
  5
18
330
17
100
AcDbEntity
  8
0
100
AcDbBlockBegin
  2
*Model_Space
 70
0
 10
0.0
 20
0.0
 30
0.0
  3
*Model_Space
  1

  0
ENDBLK
  5
19
330
17
100
AcDbEntity
  8
0
100
AcDbBlockEnd
  0
BLOCK
  5
1C
330
1B
100
AcDbEntity
  8
0
100
AcDbBlockBegin
  2
*Paper_Space
 70
0
 10
0.0
 20
0.0
 30
0.0
  3
*Paper_Space
  1

  0
ENDBLK
  5
1D
330
1B
100
AcDbEntity
  8
0
100
AcDbBlockEnd
  0
ENDSEC
  0
SECTION
  2
ENTITIES
  0
ARC
  5
2F
330
17
100
AcDbEntity
  8
0
100
AcDbCircle
 10
0.0
 20
-100.0
 30
0.0
 40
11.0
100
AcDbArc
 50
4.780191847181847
 51
175.21980812809153
  0
ARC
  5
30
330
17
100
AcDbEntity
  8
0
100
AcDbCircle
 10
11.9582607431017
 20
-99.00000000000361
 30
0.0
 40
1.0
100
AcDbArc
 50
-175.21980815281827
 51
-90.0
  0
ARC
  5
31
330
17
100
AcDbEntity
  8
0
100
AcDbCircle
 10
-11.958260742670141
 20
-98.99999999484291
 30
0.0
 40
1.0
100
AcDbArc
 50
-90.0
 51
-4.780191871907719
  0
LINE
  5
32
330
17
100
AcDbEntity
  8
0
100
AcDbLine
 10
11.9582607431017
 20
-100.0
 30
0.0
 11
20.0
 21
-100.0
 31
0.0
  0
LINE
  5
33
330
17
100
AcDbEntity
  8
0
100
AcDbLine
 10
-19.999999999999996
 20
-100.0
 30
0.0
 11
-11.958260742670141
 21
-100.0
 31
0.0
  0
ARC
  5
34
330
17
100
AcDbEntity
  8
0
100
AcDbCircle
 10
20.0
 20
-98.00000000000003
 30
0.0
 40
2.0
100
AcDbArc
 50
-90.0
 51
0.0
  0
ARC
  5
35
330
17
100
AcDbEntity
  8
0
100
AcDbCircle
 10
-19.999999999999996
 20
-97.99999995473488
 30
0.0
 40
2.0
100
AcDbArc
 50
-180.0
 51
-90.0
  0
LINE
  5
36
330
17
100
AcDbEntity
  8
0
100
AcDbLine
 10
22.0
 20
-98.00000000000001
 30
0.0
 11
22.0
 21
-88.6055512855034
 31
0.0
  0
LINE
  5
37
330
17
100
AcDbEntity
  8
0
100
AcDbLine
 10
-21.999999999999996
 20
-88.60555127301043
 30
0.0
 11
-21.999999999999996
 21
-97.99999995473488
 31
0.0
  0
ARC
  5
38
330
17
100
AcDbEntity
  8
0
100
AcDbCircle
 10
20.00000000669294
 20
-88.6055512855034
 30
0.0
 40
2.0
100
AcDbArc
 50
0.0
 51
33.69006752597968
  0
ARC
  5
39
330
17
100
AcDbEntity
  8
0
100
AcDbCircle
 10
-19.9999999983643
 20
-88.60555127301043
 30
0.0
 40
2.0
100
AcDbArc
 50
146.30993247402031
 51
180.0
  0
LINE
  5
3A
330
17
100
AcDbEntity
  8
0
100
AcDbLine
 10
21.664100595368627
 20
-87.49615089305294
 30
0.0
 11
18.33589941296001
 21
-82.50384911944002
 31
0.0
  0
LINE
  5
3B
330
17
100
AcDbEntity
  8
0
100
AcDbLine
 10
-18.335899404631373
 20
-82.50384910694706
 30
0.0
 11
-21.664100587039993
 21
-87.49615088055998
 31
0.0
  0
ARC
  5
3C
330
17
100
AcDbEntity
  8
0
100
AcDbCircle
 10
20.000000001635698
 20
-81.39444872698957
 30
0.0
 40
2.0
100
AcDbArc
 50
-180.0
 51
-146.30993247402034
  0
ARC
  5
3D
330
17
100
AcDbEntity
  8
0
100
AcDbCircle
 10
-19.99999999330706
 20
-81.3944487144966
 30
0.0
 40
2.0
100
AcDbArc
 50
-33.69006752597968
 51
0.0
  0
LINE
  5
3E
330
17
100
AcDbEntity
  8
0
100
AcDbLine
 10
18.0
 20
-81.39444872698957
 30
0.0
 11
18.0
 21
-48.605551285503395
 31
0.0
  0
LINE
  5
3F
330
17
100
AcDbEntity
  8
0
100
AcDbLine
 10
-18.0
 20
-48.60555126590802
 30
0.0
 11
-18.0
 21
-81.3944487144966
 31
0.0
  0
ARC
  5
40
330
17
100
AcDbEntity
  8
0
100
AcDbCircle
 10
19.99999999330706
 20
-48.605551285503395
 30
0.0
 40
2.0
100
AcDbArc
 50
146.30993247402031
 51
180.0
  0
ARC
  5
41
330
17
100
AcDbEntity
  8
0
100
AcDbCircle
 10
-20.000000006370637
 20
-48.60555126590802
 30
0.0
 40
2.0
100
AcDbArc
 50
0.0
 51
33.69006752597968
  0
LINE
  5
42
330
17
100
AcDbEntity
  8
0
100
AcDbLine
 10
18.335899404631373
 20
-47.49615089305294
 30
0.0
 11
21.61935612289168
 21
-42.570965815662476
 31
0.0
  0
LINE
  5
43
330
17
100
AcDbEntity
  8
0
100
AcDbLine
 10
-21.619356180587975
 20
-42.57096572911803
 30
0.0
 11
-18.33589941769495
 21
-47.49615087345757
 31
0.0
  0
ARC
  5
44
330
17
100
AcDbEntity
  8
0
100
AcDbCircle
 10
23.283456706377564
 20
-43.68036620465307
 30
0.0
 40
2.0
100
AcDbArc
 50
108.43494882292201
 51
146.3099324740201
  0
ARC
  5
45
330
17
100
AcDbEntity
  8
0
100
AcDbCircle
 10
-23.283456831386214
 20
-43.68036616298352
 30
0.0
 40
2.0
100
AcDbArc
 50
33.690067525979806
 51
71.56505117707798
  0
LINE
  5
46
330
17
100
AcDbEntity
  8
0
100
AcDbLine
 10
22.65100117434389
 20
-41.78299960855204
 30
0.0
 11
27.581138827752508
 21
-40.139620390749165
 31
0.0
  0
LINE
  5
47
330
17
100
AcDbEntity
  8
0
100
AcDbLine
 10
-27.581138853559
 20
-40.139620382147
 30
0.0
 11
-22.651001299352533
 21
-41.78299956688249
 31
0.0
  0
ARC
  5
48
330
17
100
AcDbEntity
  8
0
100
AcDbCircle
 10
25.99999999766832
 20
-35.3962039004966
 30
0.0
 40
5.0
100
AcDbArc
 50
288.434948822922
 51
360.0
  0
ARC
  5
49
330
17
100
AcDbEntity
  8
0
100
AcDbCircle
 10
-25.999999999999996
 20
-35.39620382146998
 30
0.0
 40
5.0
100
AcDbArc
 50
180.0
 51
251.565051177078
  0
LINE
  5
4A
330
17
100
AcDbEntity
  8
0
100
AcDbLine
 10
31.0
 20
-35.3962039004966
 30
0.0
 11
31.0
 21
-30.942016804220458
 31
0.0
  0
LINE
  5
4B
330
17
100
AcDbEntity
  8
0
100
AcDbLine
 10
-30.999999999999996
 20
-30.942016743832397
 30
0.0
 11
-30.999999999999996
 21
-35.39620382146998
 31
0.0
  0
ARC
  5
4C
330
17
100
AcDbEntity
  8
0
100
AcDbCircle
 10
26.0
 20
-30.94201680422043
 30
0.0
 40
5.0
100
AcDbArc
 50
0.0
 51
60.945395900922875
  0
ARC
  5
4D
330
17
100
AcDbEntity
  8
0
100
AcDbCircle
 10
-25.999999997911342
 20
-30.942016743832397
 30
0.0
 40
5.0
100
AcDbArc
 50
119.0546040990772
 51
180.0
  0
LINE
  5
4E
330
17
100
AcDbEntity
  8
0
100
AcDbLine
 10
28.428214681036977
 20
-26.571230378353874
 30
0.0
 11
23.02871415380914
 21
-23.571507863227303
 31
0.0
  0
LINE
  5
4F
330
17
100
AcDbEntity
  8
0
100
AcDbLine
 10
-23.02871409827328
 20
-23.571507832374046
 30
0.0
 11
-28.428214653804492
 21
-26.57123036322472
 31
0.0
  0
ARC
  5
50
330
17
100
AcDbEntity
  8
0
100
AcDbCircle
 10
24.000000016166403
 20
-21.823193310984237
 30
0.0
 40
2.0
100
AcDbArc
 50
-180.0
 51
-119.05460409907714
  0
ARC
  5
51
330
17
100
AcDbEntity
  8
0
100
AcDbCircle
 10
-23.999999960630543
 20
-21.823193280130965
 30
0.0
 40
2.0
100
AcDbArc
 50
-60.94539590092286
 51
0.0
  0
LINE
  5
52
330
17
100
AcDbEntity
  8
0
100
AcDbLine
 10
22.0
 20
-21.823193310984237
 30
0.0
 11
22.0
 21
18.763931974186704
 31
0.0
  0
LINE
  5
53
330
17
100
AcDbEntity
  8
0
100
AcDbLine
 10
-21.999999999999996
 20
18.763932040482146
 30
0.0
 11
-21.999999999999996
 21
-21.823193280130965
 31
0.0
  0
ARC
  5
54
330
17
100
AcDbEntity
  8
0
100
AcDbCircle
 10
23.999999903372988
 20
18.763931974186704
 30
0.0
 40
2.0
100
AcDbArc
 50
116.56505117707809
 51
180.0
  0
ARC
  5
55
330
17
100
AcDbEntity
  8
0
100
AcDbCircle
 10
-24.000000035963854
 20
18.763932040482146
 30
0.0
 40
2.0
100
AcDbArc
 50
0.0
 51
63.4349488229219
  0
LINE
  5
56
330
17
100
AcDbEntity
  8
0
100
AcDbLine
 10
23.10557271237307
 20
20.55278635618653
 30
0.0
 11
31.236067966200633
 21
24.618033983100318
 31
0.0
  0
LINE
  5
57
330
17
100
AcDbEntity
  8
0
100
AcDbLine
 10
-31.236067977499797
 20
24.6180339887499
 30
0.0
 11
-23.105572844963934
 21
20.552786422481972
 31
0.0
  0
ARC
  5
58
330
17
100
AcDbEntity
  8
0
100
AcDbCircle
 10
29.0
 20
29.090169915501576
 30
0.0
 40
5.0
100
AcDbArc
 50
296.565051177078
 51
360.0
  0
ARC
  5
59
330
17
100
AcDbEntity
  8
0
100
AcDbCircle
 10
-28.999999999999996
 20
29.090169943749515
 30
0.0
 40
5.0
100
AcDbArc
 50
180.0
 51
243.434948822922
  0
LINE
  5
5A
330
17
100
AcDbEntity
  8
0
100
AcDbLine
 10
34.0
 20
29.090169915501576
 30
0.0
 11
34.0
 21
33.90983005625051
 31
0.0
  0
LINE
  5
5B
330
17
100
AcDbEntity
  8
0
100
AcDbLine
 10
-34.0
 20
33.909830084498424
 30
0.0
 11
-34.0
 21
29.090169943749487
 31
0.0
  0
ARC
  5
5C
330
17
100
AcDbEntity
  8
0
100
AcDbCircle
 10
29.0
 20
33.909830056250485
 30
0.0
 40
5.0
100
AcDbArc
 50
0.0
 51
63.43494882292201
  0
ARC
  5
5D
330
17
100
AcDbEntity
  8
0
100
AcDbCircle
 10
-28.999999999999996
 20
33.909830084498424
 30
0.0
 40
5.0
100
AcDbArc
 50
116.56505117707799
 51
180.0
  0
LINE
  5
5E
330
17
100
AcDbEntity
  8
0
100
AcDbLine
 10
31.2360679774998
 20
38.3819660112501
 30
0.0
 11
23.105572815734874
 21
42.447213592132556
 31
0.0
  0
LINE
  5
5F
330
17
100
AcDbEntity
  8
0
100
AcDbLine
 10
-23.105572809000062
 20
42.44721359549996
 30
0.0
 11
-31.236067966200626
 21
38.38196601689968
 31
0.0
  0
ARC
  5
60
330
17
100
AcDbEntity
  8
0
100
AcDbCircle
 10
24.0
 20
44.23606796066281
 30
0.0
 40
2.0
100
AcDbArc
 50
-180.0
 51
-116.56505117707799
  0
ARC
  5
61
330
17
100
AcDbEntity
  8
0
100
AcDbCircle
 10
-23.999999999999996
 20
44.23606797749986
 30
0.0
 40
2.0
100
AcDbArc
 50
-63.4349488229219
 51
0.0
  0
LINE
  5
62
330
17
100
AcDbEntity
  8
0
100
AcDbLine
 10
22.0
 20
44.23606796066281
 30
0.0
 11
22.0
 21
46.712173398162946
 31
0.0
  0
LINE
  5
63
330
17
100
AcDbEntity
  8
0
100
AcDbLine
 10
-21.999999999999996
 20
46.71217347660661
 30
0.0
 11
-21.999999999999996
 21
44.23606797749986
 31
0.0
  0
ARC
  5
64
330
17
100
AcDbEntity
  8
0
100
AcDbCircle
 10
24.0
 20
46.712173398162946
 30
0.0
 40
2.0
100
AcDbArc
 50
114.44395478041653
 51
180.0
  0
ARC
  5
65
330
17
100
AcDbEntity
  8
0
100
AcDbCircle
 10
-23.999999999999996
 20
46.71217347660661
 30
0.0
 40
2.0
100
AcDbArc
 50
0.0
 51
65.55604521958337
  0
LINE
  5
66
330
17
100
AcDbEntity
  8
0
100
AcDbLine
 10
23.172394088349055
 20
48.53290640379504
 30
0.0
 11
30.069014713866718
 21
51.667733960848494
 31
0.0
  0
LINE
  5
67
330
17
100
AcDbEntity
  8
0
100
AcDbLine
 10
-30.069014756434814
 20
51.66773398019765
 30
0.0
 11
-23.172394117899746
 21
48.53290641722717
 31
0.0
  0
ARC
  5
68
330
17
100
AcDbEntity
  8
0
100
AcDbCircle
 10
28.0
 20
56.21956633135525
 30
0.0
 40
5.0
100
AcDbArc
 50
294.44395478041656
 51
360.0
  0
ARC
  5
69
330
17
100
AcDbEntity
  8
0
100
AcDbCircle
 10
-27.999999999999996
 20
56.21956644435423
 30
0.0
 40
5.0
100
AcDbArc
 50
180.0
 51
245.55604521958347
  0
LINE
  5
6A
330
17
100
AcDbEntity
  8
0
100
AcDbLine
 10
33.0
 20
56.21956633135525
 30
0.0
 11
33.0
 21
60.55458097167141
 31
0.0
  0
LINE
  5
6B
330
17
100
AcDbEntity
  8
0
100
AcDbLine
 10
-33.0
 20
60.554580989258994
 30
0.0
 11
-33.0
 21
56.21956644435423
 31
0.0
  0
ARC
  5
6C
330
17
100
AcDbEntity
  8
0
100
AcDbCircle
 10
28.0
 20
60.55458097167147
 30
0.0
 40
5.0
100
AcDbArc
 50
0.0
 51
52.12501634890182
  0
ARC
  5
6D
330
17
100
AcDbEntity
  8
0
100
AcDbCircle
 10
-27.999999999999996
 20
60.55458098925905
 30
0.0
 40
5.0
100
AcDbArc
 50
127.87498365109819
 51
180.0
  0
LINE
  5
6E
330
17
100
AcDbEntity
  8
0
100
AcDbLine
 10
31.069703067574615
 20
64.50134205855306
 30
0.0
 11
24.772118795268018
 21
69.39946315923598
 31
0.0
  0
LINE
  5
6F
330
17
100
AcDbEntity
  8
0
100
AcDbLine
 10
-24.772118761603867
 20
69.39946318541922
 30
0.0
 11
-31.06970305905139
 21
64.50134206518226
 31
0.0
  0
ARC
  5
70
330
17
100
AcDbEntity
  8
0
100
AcDbCircle
 10
26.000000022297858
 20
70.97816759398864
 30
0.0
 40
2.0
100
AcDbArc
 50
-180.0
 51
-127.87498365109819
  0
ARC
  5
71
330
17
100
AcDbEntity
  8
0
100
AcDbCircle
 10
-25.999999999999996
 20
70.97816763478568
 30
0.0
 40
2.0
100
AcDbArc
 50
-52.12501634890176
 51
0.0
  0
LINE
  5
72
330
17
100
AcDbEntity
  8
0
100
AcDbLine
 10
24.0
 20
70.97816759398864
 30
0.0
 11
24.0
 21
78.23252796921497
 31
0.0
  0
LINE
  5
73
330
17
100
AcDbEntity
  8
0
100
AcDbLine
 10
-23.999999999999996
 20
78.23252802327596
 30
0.0
 11
-23.999999999999996
 21
70.97816763478568
 31
0.0
  0
ARC
  5
74
330
17
100
AcDbEntity
  8
0
100
AcDbCircle
 10
26.0
 20
78.232527969215
 30
0.0
 40
2.0
100
AcDbArc
 50
138.01278750418328
 51
180.0
  0
ARC
  5
75
330
17
100
AcDbEntity
  8
0
100
AcDbCircle
 10
-25.999999999999996
 20
78.23252802327596
 30
0.0
 40
2.0
100
AcDbArc
 50
0.0
 51
41.98721249581649
  0
LINE
  5
76
330
17
100
AcDbEntity
  8
0
100
AcDbLine
 10
24.513411697399718
 20
79.57045744155525
 30
0.0
 11
31.716470729024252
 21
87.57385636558251
 31
0.0
  0
LINE
  5
77
330
17
100
AcDbEntity
  8
0
100
AcDbLine
 10
-31.716470781102725
 20
87.57385642344747
 30
0.0
 11
-24.51341172428086
 21
79.5704574714232
 31
0.0
  0
ARC
  5
78
330
17
100
AcDbEntity
  8
0
100
AcDbCircle
 10
28.0
 20
90.91868002170432
 30
0.0
 40
5.0
100
AcDbArc
 50
318.01278750418334
 51
360.0
  0
ARC
  5
79
330
17
100
AcDbEntity
  8
0
100
AcDbCircle
 10
-27.999999999999996
 20
90.91868012643997
 30
0.0
 40
5.0
100
AcDbArc
 50
180.0
 51
221.98721249581666
  0
LINE
  5
7A
330
17
100
AcDbEntity
  8
0
100
AcDbLine
 10
33.0
 20
90.91868002170432
 30
0.0
 11
33.0
 21
94.90630980595668
 31
0.0
  0
LINE
  5
7B
330
17
100
AcDbEntity
  8
0
100
AcDbLine
 10
-33.0
 20
94.90630995950872
 30
0.0
 11
-33.0
 21
90.91868012643991
 31
0.0
  0
ARC
  5
7C
330
17
100
AcDbEntity
  8
0
100
AcDbCircle
 10
28.0
 20
94.90630980595674
 30
0.0
 40
5.0
100
AcDbArc
 50
0.0
 51
24.676863170337047
  0
ARC
  5
7D
330
17
100
AcDbEntity
  8
0
100
AcDbCircle
 10
-27.999999999999996
 20
94.90630995950877
 30
0.0
 40
5.0
100
AcDbArc
 50
155.32313682966299
 51
180.0
  0
LINE
  5
7E
330
17
100
AcDbEntity
  8
0
100
AcDbLine
 10
32.5433842774748
 20
96.99381069020191
 30
0.0
 11
25.03527011322767
 21
113.3350003417986
 31
0.0
  0
LINE
  5
7F
330
17
100
AcDbEntity
  8
0
100
AcDbLine
 10
-25.03527011262904
 20
113.33500034310151
 30
0.0
 11
-32.54338421922135
 21
96.99381081698883
 31
0.0
  0
ARC
  5
80
330
17
100
AcDbEntity
  8
0
100
AcDbCircle
 10
23.217916425301045
 20
112.49999999869718
 30
0.0
 40
2.0
100
AcDbArc
 50
24.676863170337054
 51
90.0
  0
ARC
  5
81
330
17
100
AcDbEntity
  8
0
100
AcDbCircle
 10
-23.217916424702413
 20
112.50000000000009
 30
0.0
 40
2.0
100
AcDbArc
 50
90.0
 51
155.32313682966296
  0
LINE
  5
82
330
17
100
AcDbEntity
  8
0
100
AcDbLine
 10
23.217916425301045
 20
114.5
 30
0.0
 11
15.000000064714726
 21
114.5
 31
0.0
  0
LINE
  5
83
330
17
100
AcDbEntity
  8
0
100
AcDbLine
 10
-14.99999999999996
 20
114.5
 30
0.0
 11
-23.217916424702413
 21
114.5
 31
0.0
  0
ARC
  5
84
330
17
100
AcDbEntity
  8
0
100
AcDbCircle
 10
15.000000064714726
 20
113.5
 30
0.0
 40
1.0
100
AcDbArc
 50
90.0
 51
180.0
  0
ARC
  5
85
330
17
100
AcDbEntity
  8
0
100
AcDbCircle
 10
-14.999999999999961
 20
113.5
 30
0.0
 40
1.0
100
AcDbArc
 50
0.0
 51
90.0
  0
LINE
  5
86
330
17
100
AcDbEntity
  8
0
100
AcDbLine
 10
14.0
 20
113.5
 30
0.0
 11
14.0
 21
92.0
 31
0.0
  0
LINE
  5
87
330
17
100
AcDbEntity
  8
0
100
AcDbLine
 10
-14.0
 20
92.0
 30
0.0
 11
-14.0
 21
113.5
 31
0.0
  0
ARC
  5
88
330
17
100
AcDbEntity
  8
0
100
AcDbCircle
 10
0.0
 20
92.0
 30
0.0
 40
14.0
100
AcDbArc
 50
180.0
 51
360.0
  0
CIRCLE
  5
89
330
17
100
AcDbEntity
  8
0
100
AcDbCircle
 10
-16.5
 20
-94.0
 30
0.0
 40
1.6
  0
ARC
  5
8A
330
17
100
AcDbEntity
  8
0
100
AcDbCircle
 10
-6.5
 20
-67.4999999734878
 30
0.0
 40
1.0
100
AcDbArc
 50
306.869897645844
 51
360.0
  0
LINE
  5
8B
330
17
100
AcDbEntity
  8
0
100
AcDbLine
 10
-5.5
 20
-63.99999996033374
 30
0.0
 11
-5.5
 21
-67.4999999734878
 31
0.0
  0
ARC
  5
8C
330
17
100
AcDbEntity
  8
0
100
AcDbCircle
 10
-6.5
 20
-63.99999996033374
 30
0.0
 40
1.0
100
AcDbArc
 50
0.0
 51
126.86989764584402
  0
LINE
  5
8D
330
17
100
AcDbEntity
  8
0
100
AcDbLine
 10
-13.100000005306372
 20
-67.70000000397978
 30
0.0
 11
-7.099999980960195
 21
-63.19999998572015
 31
0.0
  0
ARC
  5
8E
330
17
100
AcDbEntity
  8
0
100
AcDbCircle
 10
-12.5
 20
-68.50000001105494
 30
0.0
 40
1.0
100
AcDbArc
 50
126.86989764584402
 51
180.0
  0
LINE
  5
8F
330
17
100
AcDbEntity
  8
0
100
AcDbLine
 10
-13.5
 20
-72.00000005771841
 30
0.0
 11
-13.5
 21
-68.50000001105494
 31
0.0
  0
ARC
  5
90
330
17
100
AcDbEntity
  8
0
100
AcDbCircle
 10
-12.5
 20
-72.00000005771841
 30
0.0
 40
1.0
100
AcDbArc
 50
180.0
 51
306.869897645844
  0
LINE
  5
91
330
17
100
AcDbEntity
  8
0
100
AcDbLine
 10
-5.899999987274148
 20
-68.29999999045562
 30
0.0
 11
-11.900000027704841
 21
-72.80000002077863
 31
0.0
  0
ARC
  5
92
330
17
100
AcDbEntity
  8
0
100
AcDbCircle
 10
-6.5
 20
-47.49999997348781
 30
0.0
 40
1.0
100
AcDbArc
 50
306.869897645844
 51
360.0
  0
LINE
  5
93
330
17
100
AcDbEntity
  8
0
100
AcDbLine
 10
-5.5
 20
-43.99999996033374
 30
0.0
 11
-5.5
 21
-47.49999997348781
 31
0.0
  0
ARC
  5
94
330
17
100
AcDbEntity
  8
0
100
AcDbCircle
 10
-6.5
 20
-43.99999996033374
 30
0.0
 40
1.0
100
AcDbArc
 50
0.0
 51
126.86989764584402
  0
LINE
  5
95
330
17
100
AcDbEntity
  8
0
100
AcDbLine
 10
-13.100000005306372
 20
-47.70000000397978
 30
0.0
 11
-7.099999980960195
 21
-43.19999998572015
 31
0.0
  0
ARC
  5
96
330
17
100
AcDbEntity
  8
0
100
AcDbCircle
 10
-12.5
 20
-48.500000011054944
 30
0.0
 40
1.0
100
AcDbArc
 50
126.86989764584402
 51
180.0
  0
LINE
  5
97
330
17
100
AcDbEntity
  8
0
100
AcDbLine
 10
-13.5
 20
-52.00000005771842
 30
0.0
 11
-13.5
 21
-48.500000011054944
 31
0.0
  0
ARC
  5
98
330
17
100
AcDbEntity
  8
0
100
AcDbCircle
 10
-12.5
 20
-52.00000005771842
 30
0.0
 40
1.0
100
AcDbArc
 50
180.0
 51
306.869897645844
  0
LINE
  5
99
330
17
100
AcDbEntity
  8
0
100
AcDbLine
 10
-5.899999987274148
 20
-48.29999999045561
 30
0.0
 11
-11.900000027704841
 21
-52.80000002077863
 31
0.0
  0
CIRCLE
  5
9A
330
17
100
AcDbEntity
  8
0
100
AcDbCircle
 10
-25.72370375511555
 20
-33.27707290165941
 30
0.0
 40
1.6
  0
ARC
  5
9B
330
17
100
AcDbEntity
  8
0
100
AcDbCircle
 10
-6.5
 20
-27.499999973487807
 30
0.0
 40
1.0
100
AcDbArc
 50
-53.13010235415599
 51
0.0
  0
LINE
  5
9C
330
17
100
AcDbEntity
  8
0
100
AcDbLine
 10
-5.5
 20
-23.999999960333742
 30
0.0
 11
-5.5
 21
-27.499999973487807
 31
0.0
  0
ARC
  5
9D
330
17
100
AcDbEntity
  8
0
100
AcDbCircle
 10
-6.5
 20
-23.999999960333742
 30
0.0
 40
1.0
100
AcDbArc
 50
0.0
 51
126.86989764584402
  0
LINE
  5
9E
330
17
100
AcDbEntity
  8
0
100
AcDbLine
 10
-13.100000005306372
 20
-27.700000003979778
 30
0.0
 11
-7.099999980960195
 21
-23.199999985720147
 31
0.0
  0
ARC
  5
9F
330
17
100
AcDbEntity
  8
0
100
AcDbCircle
 10
-12.5
 20
-28.50000001105494
 30
0.0
 40
1.0
100
AcDbArc
 50
126.86989764584402
 51
180.0
  0
LINE
  5
A0
330
17
100
AcDbEntity
  8
0
100
AcDbLine
 10
-13.5
 20
-32.00000005771842
 30
0.0
 11
-13.5
 21
-28.50000001105494
 31
0.0
  0
ARC
  5
A1
330
17
100
AcDbEntity
  8
0
100
AcDbCircle
 10
-12.5
 20
-32.00000005771842
 30
0.0
 40
1.0
100
AcDbArc
 50
-180.0
 51
-53.13010235415604
  0
LINE
  5
A2
330
17
100
AcDbEntity
  8
0
100
AcDbLine
 10
-5.899999987274148
 20
-28.29999999045561
 30
0.0
 11
-11.900000027704841
 21
-32.80000002077863
 31
0.0
  0
ARC
  5
A3
330
17
100
AcDbEntity
  8
0
100
AcDbCircle
 10
-6.5
 20
-7.499999973487808
 30
0.0
 40
1.0
100
AcDbArc
 50
-53.13010235415599
 51
0.0
  0
LINE
  5
A4
330
17
100
AcDbEntity
  8
0
100
AcDbLine
 10
-5.5
 20
-3.9999999603337413
 30
0.0
 11
-5.5
 21
-7.499999973487808
 31
0.0
  0
ARC
  5
A5
330
17
100
AcDbEntity
  8
0
100
AcDbCircle
 10
-6.5
 20
-3.9999999603337413
 30
0.0
 40
1.0
100
AcDbArc
 50
0.0
 51
126.86989764584402
  0
LINE
  5
A6
330
17
100
AcDbEntity
  8
0
100
AcDbLine
 10
-13.100000005306372
 20
-7.7000000039797785
 30
0.0
 11
-7.099999980960195
 21
-3.1999999857201473
 31
0.0
  0
ARC
  5
A7
330
17
100
AcDbEntity
  8
0
100
AcDbCircle
 10
-12.5
 20
-8.50000001105494
 30
0.0
 40
1.0
100
AcDbArc
 50
126.86989764584402
 51
180.0
  0
LINE
  5
A8
330
17
100
AcDbEntity
  8
0
100
AcDbLine
 10
-13.5
 20
-12.000000057718417
 30
0.0
 11
-13.5
 21
-8.50000001105494
 31
0.0
  0
ARC
  5
A9
330
17
100
AcDbEntity
  8
0
100
AcDbCircle
 10
-12.5
 20
-12.000000057718417
 30
0.0
 40
1.0
100
AcDbArc
 50
-180.0
 51
-53.13010235415604
  0
LINE
  5
AA
330
17
100
AcDbEntity
  8
0
100
AcDbLine
 10
-5.899999987274148
 20
-8.29999999045561
 30
0.0
 11
-11.900000027704841
 21
-12.80000002077863
 31
0.0
  0
LINE
  5
AB
330
17
100
AcDbEntity
  8
0
100
AcDbLine
 10
11.900000027704841
 20
-72.80000002077863
 30
0.0
 11
5.899999987274148
 21
-68.29999999045562
 31
0.0
  0
ARC
  5
AC
330
17
100
AcDbEntity
  8
0
100
AcDbCircle
 10
12.5
 20
-72.00000005771841
 30
0.0
 40
1.0
100
AcDbArc
 50
-126.86989764584396
 51
0.0
  0
LINE
  5
AD
330
17
100
AcDbEntity
  8
0
100
AcDbLine
 10
13.5
 20
-68.50000001105494
 30
0.0
 11
13.5
 21
-72.00000005771841
 31
0.0
  0
ARC
  5
AE
330
17
100
AcDbEntity
  8
0
100
AcDbCircle
 10
12.5
 20
-68.50000001105494
 30
0.0
 40
1.0
100
AcDbArc
 50
0.0
 51
53.13010235415599
  0
LINE
  5
AF
330
17
100
AcDbEntity
  8
0
100
AcDbLine
 10
7.099999980960195
 20
-63.19999998572015
 30
0.0
 11
13.100000005306372
 21
-67.70000000397978
 31
0.0
  0
ARC
  5
B0
330
17
100
AcDbEntity
  8
0
100
AcDbCircle
 10
6.5
 20
-63.99999996033374
 30
0.0
 40
1.0
100
AcDbArc
 50
53.13010235415599
 51
180.0
  0
LINE
  5
B1
330
17
100
AcDbEntity
  8
0
100
AcDbLine
 10
5.5
 20
-67.4999999734878
 30
0.0
 11
5.5
 21
-63.99999996033374
 31
0.0
  0
ARC
  5
B2
330
17
100
AcDbEntity
  8
0
100
AcDbCircle
 10
6.5
 20
-67.4999999734878
 30
0.0
 40
1.0
100
AcDbArc
 50
-180.0
 51
-126.86989764584402
  0
LINE
  5
B3
330
17
100
AcDbEntity
  8
0
100
AcDbLine
 10
11.900000027704841
 20
-52.80000002077863
 30
0.0
 11
5.899999987274148
 21
-48.29999999045561
 31
0.0
  0
ARC
  5
B4
330
17
100
AcDbEntity
  8
0
100
AcDbCircle
 10
12.5
 20
-52.00000005771842
 30
0.0
 40
1.0
100
AcDbArc
 50
-126.86989764584396
 51
0.0
  0
LINE
  5
B5
330
17
100
AcDbEntity
  8
0
100
AcDbLine
 10
13.5
 20
-48.500000011054944
 30
0.0
 11
13.5
 21
-52.00000005771842
 31
0.0
  0
ARC
  5
B6
330
17
100
AcDbEntity
  8
0
100
AcDbCircle
 10
12.5
 20
-48.500000011054944
 30
0.0
 40
1.0
100
AcDbArc
 50
0.0
 51
53.13010235415599
  0
LINE
  5
B7
330
17
100
AcDbEntity
  8
0
100
AcDbLine
 10
7.099999980960195
 20
-43.19999998572015
 30
0.0
 11
13.100000005306372
 21
-47.70000000397978
 31
0.0
  0
ARC
  5
B8
330
17
100
AcDbEntity
  8
0
100
AcDbCircle
 10
6.5
 20
-43.99999996033374
 30
0.0
 40
1.0
100
AcDbArc
 50
53.13010235415599
 51
180.0
  0
LINE
  5
B9
330
17
100
AcDbEntity
  8
0
100
AcDbLine
 10
5.5
 20
-47.49999997348781
 30
0.0
 11
5.5
 21
-43.99999996033374
 31
0.0
  0
ARC
  5
BA
330
17
100
AcDbEntity
  8
0
100
AcDbCircle
 10
6.5
 20
-47.49999997348781
 30
0.0
 40
1.0
100
AcDbArc
 50
-180.0
 51
-126.86989764584402
  0
CIRCLE
  5
BB
330
17
100
AcDbEntity
  8
0
100
AcDbCircle
 10
16.5
 20
-94.0
 30
0.0
 40
1.6
  0
LINE
  5
BC
330
17
100
AcDbEntity
  8
0
100
AcDbLine
 10
11.900000027704841
 20
-32.80000002077863
 30
0.0
 11
5.899999987274148
 21
-28.29999999045561
 31
0.0
  0
ARC
  5
BD
330
17
100
AcDbEntity
  8
0
100
AcDbCircle
 10
12.5
 20
-32.00000005771842
 30
0.0
 40
1.0
100
AcDbArc
 50
233.13010235415604
 51
360.0
  0
LINE
  5
BE
330
17
100
AcDbEntity
  8
0
100
AcDbLine
 10
13.5
 20
-28.50000001105494
 30
0.0
 11
13.5
 21
-32.00000005771842
 31
0.0
  0
ARC
  5
BF
330
17
100
AcDbEntity
  8
0
100
AcDbCircle
 10
12.5
 20
-28.50000001105494
 30
0.0
 40
1.0
100
AcDbArc
 50
0.0
 51
53.13010235415599
  0
LINE
  5
C0
330
17
100
AcDbEntity
  8
0
100
AcDbLine
 10
7.099999980960195
 20
-23.199999985720147
 30
0.0
 11
13.100000005306372
 21
-27.700000003979778
 31
0.0
  0
ARC
  5
C1
330
17
100
AcDbEntity
  8
0
100
AcDbCircle
 10
6.5
 20
-23.999999960333742
 30
0.0
 40
1.0
100
AcDbArc
 50
53.13010235415599
 51
180.0
  0
LINE
  5
C2
330
17
100
AcDbEntity
  8
0
100
AcDbLine
 10
5.5
 20
-27.499999973487807
 30
0.0
 11
5.5
 21
-23.999999960333742
 31
0.0
  0
ARC
  5
C3
330
17
100
AcDbEntity
  8
0
100
AcDbCircle
 10
6.5
 20
-27.499999973487807
 30
0.0
 40
1.0
100
AcDbArc
 50
180.0
 51
233.13010235415598
  0
LINE
  5
C4
330
17
100
AcDbEntity
  8
0
100
AcDbLine
 10
11.900000027704841
 20
-12.80000002077863
 30
0.0
 11
5.899999987274148
 21
-8.29999999045561
 31
0.0
  0
ARC
  5
C5
330
17
100
AcDbEntity
  8
0
100
AcDbCircle
 10
12.5
 20
-12.000000057718417
 30
0.0
 40
1.0
100
AcDbArc
 50
233.13010235415604
 51
360.0
  0
LINE
  5
C6
330
17
100
AcDbEntity
  8
0
100
AcDbLine
 10
13.5
 20
-8.50000001105494
 30
0.0
 11
13.5
 21
-12.000000057718417
 31
0.0
  0
ARC
  5
C7
330
17
100
AcDbEntity
  8
0
100
AcDbCircle
 10
12.5
 20
-8.50000001105494
 30
0.0
 40
1.0
100
AcDbArc
 50
0.0
 51
53.13010235415599
  0
LINE
  5
C8
330
17
100
AcDbEntity
  8
0
100
AcDbLine
 10
7.099999980960195
 20
-3.1999999857201473
 30
0.0
 11
13.100000005306372
 21
-7.7000000039797785
 31
0.0
  0
ARC
  5
C9
330
17
100
AcDbEntity
  8
0
100
AcDbCircle
 10
6.5
 20
-3.9999999603337413
 30
0.0
 40
1.0
100
AcDbArc
 50
53.13010235415599
 51
180.0
  0
LINE
  5
CA
330
17
100
AcDbEntity
  8
0
100
AcDbLine
 10
5.5
 20
-7.499999973487808
 30
0.0
 11
5.5
 21
-3.9999999603337413
 31
0.0
  0
ARC
  5
CB
330
17
100
AcDbEntity
  8
0
100
AcDbCircle
 10
6.5
 20
-7.499999973487808
 30
0.0
 40
1.0
100
AcDbArc
 50
180.0
 51
233.13010235415598
  0
CIRCLE
  5
CC
330
17
100
AcDbEntity
  8
0
100
AcDbCircle
 10
25.72370375511555
 20
-33.27707290165941
 30
0.0
 40
1.6
  0
CIRCLE
  5
CD
330
17
100
AcDbEntity
  8
0
100
AcDbCircle
 10
-28.352110754731285
 20
31.975771603447974
 30
0.0
 40
1.6
  0
CIRCLE
  5
CE
330
17
100
AcDbEntity
  8
0
100
AcDbCircle
 10
-28.0
 20
58.0
 30
0.0
 40
2.5
  0
ARC
  5
CF
330
17
100
AcDbEntity
  8
0
100
AcDbCircle
 10
-6.5
 20
12.500000026512193
 30
0.0
 40
1.0
100
AcDbArc
 50
306.869897645844
 51
360.0
  0
LINE
  5
D0
330
17
100
AcDbEntity
  8
0
100
AcDbLine
 10
-5.5
 20
16.000000039666258
 30
0.0
 11
-5.5
 21
12.500000026512193
 31
0.0
  0
ARC
  5
D1
330
17
100
AcDbEntity
  8
0
100
AcDbCircle
 10
-6.5
 20
16.000000039666258
 30
0.0
 40
1.0
100
AcDbArc
 50
0.0
 51
126.86989764584402
  0
LINE
  5
D2
330
17
100
AcDbEntity
  8
0
100
AcDbLine
 10
-13.100000005306372
 20
12.29999999602022
 30
0.0
 11
-7.099999980960195
 21
16.800000014279853
 31
0.0
  0
ARC
  5
D3
330
17
100
AcDbEntity
  8
0
100
AcDbCircle
 10
-12.5
 20
11.49999998894506
 30
0.0
 40
1.0
100
AcDbArc
 50
126.86989764584402
 51
180.0
  0
LINE
  5
D4
330
17
100
AcDbEntity
  8
0
100
AcDbLine
 10
-13.5
 20
7.999999942281584
 30
0.0
 11
-13.5
 21
11.49999998894506
 31
0.0
  0
ARC
  5
D5
330
17
100
AcDbEntity
  8
0
100
AcDbCircle
 10
-12.5
 20
7.999999942281584
 30
0.0
 40
1.0
100
AcDbArc
 50
180.0
 51
306.869897645844
  0
LINE
  5
D6
330
17
100
AcDbEntity
  8
0
100
AcDbLine
 10
-5.899999987274148
 20
11.70000000954439
 30
0.0
 11
-11.900000027704841
 21
7.19999997922137
 31
0.0
  0
ARC
  5
D7
330
17
100
AcDbEntity
  8
0
100
AcDbCircle
 10
-6.5
 20
32.50000002651219
 30
0.0
 40
1.0
100
AcDbArc
 50
306.869897645844
 51
360.0
  0
LINE
  5
D8
330
17
100
AcDbEntity
  8
0
100
AcDbLine
 10
-5.5
 20
36.00000003966626
 30
0.0
 11
-5.5
 21
32.50000002651219
 31
0.0
  0
ARC
  5
D9
330
17
100
AcDbEntity
  8
0
100
AcDbCircle
 10
-6.5
 20
36.00000003966626
 30
0.0
 40
1.0
100
AcDbArc
 50
0.0
 51
126.86989764584402
  0
LINE
  5
DA
330
17
100
AcDbEntity
  8
0
100
AcDbLine
 10
-13.100000005306372
 20
32.29999999602022
 30
0.0
 11
-7.099999980960195
 21
36.80000001427985
 31
0.0
  0
ARC
  5
DB
330
17
100
AcDbEntity
  8
0
100
AcDbCircle
 10
-12.5
 20
31.49999998894506
 30
0.0
 40
1.0
100
AcDbArc
 50
126.86989764584402
 51
180.0
  0
LINE
  5
DC
330
17
100
AcDbEntity
  8
0
100
AcDbLine
 10
-13.5
 20
27.999999942281583
 30
0.0
 11
-13.5
 21
31.49999998894506
 31
0.0
  0
ARC
  5
DD
330
17
100
AcDbEntity
  8
0
100
AcDbCircle
 10
-12.5
 20
27.999999942281583
 30
0.0
 40
1.0
100
AcDbArc
 50
180.0
 51
306.869897645844
  0
LINE
  5
DE
330
17
100
AcDbEntity
  8
0
100
AcDbLine
 10
-5.899999987274148
 20
31.70000000954439
 30
0.0
 11
-11.900000027704841
 21
27.19999997922137
 31
0.0
  0
ARC
  5
DF
330
17
100
AcDbEntity
  8
0
100
AcDbCircle
 10
-14.000000015639896
 20
51.0
 30
0.0
 40
1.5
100
AcDbArc
 50
-180.0
 51
-90.0
  0
LINE
  5
E0
330
17
100
AcDbEntity
  8
0
100
AcDbLine
 10
-11.999999985738146
 20
49.5
 30
0.0
 11
-14.000000015639896
 21
49.5
 31
0.0
  0
ARC
  5
E1
330
17
100
AcDbEntity
  8
0
100
AcDbCircle
 10
-11.999999985738146
 20
51.0
 30
0.0
 40
1.5
100
AcDbArc
 50
-90.0
 51
0.0
  0
LINE
  5
E2
330
17
100
AcDbEntity
  8
0
100
AcDbLine
 10
-10.499999984360105
 20
65.0
 30
0.0
 11
-10.499999984360105
 21
51.0
 31
0.0
  0
ARC
  5
E3
330
17
100
AcDbEntity
  8
0
100
AcDbCircle
 10
-11.999999985738146
 20
65.0
 30
0.0
 40
1.5
100
AcDbArc
 50
0.0
 51
90.0
  0
LINE
  5
E4
330
17
100
AcDbEntity
  8
0
100
AcDbLine
 10
-14.000000015639896
 20
66.5
 30
0.0
 11
-11.999999985738146
 21
66.5
 31
0.0
  0
ARC
  5
E5
330
17
100
AcDbEntity
  8
0
100
AcDbCircle
 10
-14.000000015639896
 20
65.0
 30
0.0
 40
1.5
100
AcDbArc
 50
90.0
 51
180.0
  0
LINE
  5
E6
330
17
100
AcDbEntity
  8
0
100
AcDbLine
 10
-15.499999984360105
 20
51.0
 30
0.0
 11
-15.499999984360105
 21
65.0
 31
0.0
  0
CIRCLE
  5
E7
330
17
100
AcDbEntity
  8
0
100
AcDbCircle
 10
-27.0
 20
91.0
 30
0.0
 40
2.5
  0
CIRCLE
  5
E8
330
17
100
AcDbEntity
  8
0
100
AcDbCircle
 10
-19.25
 20
108.75
 30
0.0
 40
1.6
  0
ARC
  5
E9
330
17
100
AcDbEntity
  8
0
100
AcDbCircle
 10
-9.0
 20
69.38742590643656
 30
0.0
 40
1.0
100
AcDbArc
 50
251.565051177078
 51
360.0
  0
LINE
  5
EA
330
17
100
AcDbEntity
  8
0
100
AcDbLine
 10
-8.0
 20
73.34060388692501
 30
0.0
 11
-8.0
 21
69.38742590643656
 31
0.0
  0
ARC
  5
EB
330
17
100
AcDbEntity
  8
0
100
AcDbCircle
 10
-9.0
 20
73.34060388692501
 30
0.0
 40
1.0
100
AcDbArc
 50
0.0
 51
66.80140948635177
  0
LINE
  5
EC
330
17
100
AcDbEntity
  8
0
100
AcDbLine
 10
-14.001073595230029
 20
76.57188868367001
 30
0.0
 11
-8.606080717679742
 21
74.2597488790056
 31
0.0
  0
ARC
  5
ED
330
17
100
AcDbEntity
  8
0
100
AcDbCircle
 10
-14.39499290093731
 20
75.65274363701968
 30
0.0
 40
1.0
100
AcDbArc
 50
66.80140948635182
 51
161.565051177078
  0
LINE
  5
EE
330
17
100
AcDbEntity
  8
0
100
AcDbLine
 10
-16.683772233983166
 20
71.9486832980505
 30
0.0
 11
-15.343676198987824
 21
75.96897140303652
 31
0.0
  0
ARC
  5
EF
330
17
100
AcDbEntity
  8
0
100
AcDbCircle
 10
-15.735088935932652
 20
71.63245553203366
 30
0.0
 40
1.0
100
AcDbArc
 50
161.565051177078
 51
251.56505117707795
  0
LINE
  5
F0
330
17
100
AcDbEntity
  8
0
100
AcDbLine
 10
-9.316227771930967
 20
68.43874259064366
 30
0.0
 11
-16.05131670194949
 21
70.68377223398316
 31
0.0
  0
LINE
  5
F1
330
17
100
AcDbEntity
  8
0
100
AcDbLine
 10
11.900000027704841
 20
7.19999997922137
 30
0.0
 11
5.899999987274148
 21
11.70000000954439
 31
0.0
  0
ARC
  5
F2
330
17
100
AcDbEntity
  8
0
100
AcDbCircle
 10
12.5
 20
7.999999942281584
 30
0.0
 40
1.0
100
AcDbArc
 50
-126.86989764584396
 51
0.0
  0
LINE
  5
F3
330
17
100
AcDbEntity
  8
0
100
AcDbLine
 10
13.5
 20
11.49999998894506
 30
0.0
 11
13.5
 21
7.999999942281584
 31
0.0
  0
ARC
  5
F4
330
17
100
AcDbEntity
  8
0
100
AcDbCircle
 10
12.5
 20
11.49999998894506
 30
0.0
 40
1.0
100
AcDbArc
 50
0.0
 51
53.13010235415599
  0
LINE
  5
F5
330
17
100
AcDbEntity
  8
0
100
AcDbLine
 10
7.099999980960195
 20
16.800000014279853
 30
0.0
 11
13.100000005306372
 21
12.29999999602022
 31
0.0
  0
ARC
  5
F6
330
17
100
AcDbEntity
  8
0
100
AcDbCircle
 10
6.5
 20
16.000000039666258
 30
0.0
 40
1.0
100
AcDbArc
 50
53.13010235415599
 51
180.0
  0
LINE
  5
F7
330
17
100
AcDbEntity
  8
0
100
AcDbLine
 10
5.5
 20
12.500000026512193
 30
0.0
 11
5.5
 21
16.000000039666258
 31
0.0
  0
ARC
  5
F8
330
17
100
AcDbEntity
  8
0
100
AcDbCircle
 10
6.5
 20
12.500000026512193
 30
0.0
 40
1.0
100
AcDbArc
 50
-180.0
 51
-126.86989764584402
  0
LINE
  5
F9
330
17
100
AcDbEntity
  8
0
100
AcDbLine
 10
11.900000027704841
 20
27.19999997922137
 30
0.0
 11
5.899999987274148
 21
31.70000000954439
 31
0.0
  0
ARC
  5
FA
330
17
100
AcDbEntity
  8
0
100
AcDbCircle
 10
12.5
 20
27.999999942281583
 30
0.0
 40
1.0
100
AcDbArc
 50
-126.86989764584396
 51
0.0
  0
LINE
  5
FB
330
17
100
AcDbEntity
  8
0
100
AcDbLine
 10
13.5
 20
31.49999998894506
 30
0.0
 11
13.5
 21
27.999999942281583
 31
0.0
  0
ARC
  5
FC
330
17
100
AcDbEntity
  8
0
100
AcDbCircle
 10
12.5
 20
31.49999998894506
 30
0.0
 40
1.0
100
AcDbArc
 50
0.0
 51
53.13010235415599
  0
LINE
  5
FD
330
17
100
AcDbEntity
  8
0
100
AcDbLine
 10
7.099999980960195
 20
36.80000001427985
 30
0.0
 11
13.100000005306372
 21
32.29999999602022
 31
0.0
  0
ARC
  5
FE
330
17
100
AcDbEntity
  8
0
100
AcDbCircle
 10
6.5
 20
36.00000003966626
 30
0.0
 40
1.0
100
AcDbArc
 50
53.13010235415599
 51
180.0
  0
LINE
  5
FF
330
17
100
AcDbEntity
  8
0
100
AcDbLine
 10
5.5
 20
32.50000002651219
 30
0.0
 11
5.5
 21
36.00000003966626
 31
0.0
  0
ARC
  5
100
330
17
100
AcDbEntity
  8
0
100
AcDbCircle
 10
6.5
 20
32.50000002651219
 30
0.0
 40
1.0
100
AcDbArc
 50
-180.0
 51
-126.86989764584402
  0
ARC
  5
101
330
17
100
AcDbEntity
  8
0
100
AcDbCircle
 10
-2.500000000000005
 20
53.5
 30
0.0
 40
1.5
100
AcDbArc
 50
-180.0
 51
-90.0
  0
LINE
  5
102
330
17
100
AcDbEntity
  8
0
100
AcDbLine
 10
2.499999983076918
 20
52.0
 30
0.0
 11
-2.500000000000005
 21
52.0
 31
0.0
  0
ARC
  5
103
330
17
100
AcDbEntity
  8
0
100
AcDbCircle
 10
2.499999983076918
 20
53.5
 30
0.0
 40
1.5
100
AcDbArc
 50
-90.0
 51
0.0
  0
LINE
  5
104
330
17
100
AcDbEntity
  8
0
100
AcDbLine
 10
4.000000000000005
 20
60.5
 30
0.0
 11
4.000000000000005
 21
53.5
 31
0.0
  0
ARC
  5
105
330
17
100
AcDbEntity
  8
0
100
AcDbCircle
 10
2.499999983076918
 20
60.5
 30
0.0
 40
1.5
100
AcDbArc
 50
0.0
 51
90.0
  0
LINE
  5
106
330
17
100
AcDbEntity
  8
0
100
AcDbLine
 10
-2.500000000000005
 20
62.0
 30
0.0
 11
2.499999983076918
 21
62.0
 31
0.0
  0
ARC
  5
107
330
17
100
AcDbEntity
  8
0
100
AcDbCircle
 10
-2.500000000000005
 20
60.5
 30
0.0
 40
1.5
100
AcDbArc
 50
90.0
 51
180.0
  0
LINE
  5
108
330
17
100
AcDbEntity
  8
0
100
AcDbLine
 10
-3.999999999999995
 20
53.5
 30
0.0
 11
-3.999999999999995
 21
60.5
 31
0.0
  0
ARC
  5
109
330
17
100
AcDbEntity
  8
0
100
AcDbCircle
 10
11.999999984360104
 20
51.0
 30
0.0
 40
1.5
100
AcDbArc
 50
-180.0
 51
-90.0
  0
LINE
  5
10A
330
17
100
AcDbEntity
  8
0
100
AcDbLine
 10
14.000000014261854
 20
49.5
 30
0.0
 11
11.999999984360104
 21
49.5
 31
0.0
  0
ARC
  5
10B
330
17
100
AcDbEntity
  8
0
100
AcDbCircle
 10
14.000000014261854
 20
51.0
 30
0.0
 40
1.5
100
AcDbArc
 50
-90.0
 51
0.0
  0
LINE
  5
10C
330
17
100
AcDbEntity
  8
0
100
AcDbLine
 10
15.500000015639895
 20
65.0
 30
0.0
 11
15.500000015639895
 21
51.0
 31
0.0
  0
ARC
  5
10D
330
17
100
AcDbEntity
  8
0
100
AcDbCircle
 10
14.000000014261854
 20
65.0
 30
0.0
 40
1.5
100
AcDbArc
 50
0.0
 51
90.0
  0
LINE
  5
10E
330
17
100
AcDbEntity
  8
0
100
AcDbLine
 10
11.999999984360104
 20
66.5
 30
0.0
 11
14.000000014261854
 21
66.5
 31
0.0
  0
ARC
  5
10F
330
17
100
AcDbEntity
  8
0
100
AcDbCircle
 10
11.999999984360104
 20
65.0
 30
0.0
 40
1.5
100
AcDbArc
 50
90.0
 51
180.0
  0
LINE
  5
110
330
17
100
AcDbEntity
  8
0
100
AcDbLine
 10
10.500000015639895
 20
51.0
 30
0.0
 11
10.500000015639895
 21
65.0
 31
0.0
  0
CIRCLE
  5
111
330
17
100
AcDbEntity
  8
0
100
AcDbCircle
 10
28.352110754731285
 20
31.975771603447974
 30
0.0
 40
1.6
  0
CIRCLE
  5
112
330
17
100
AcDbEntity
  8
0
100
AcDbCircle
 10
28.0
 20
58.0
 30
0.0
 40
2.5
  0
CIRCLE
  5
113
330
17
100
AcDbEntity
  8
0
100
AcDbCircle
 10
0.0
 20
69.0
 30
0.0
 40
2.5
  0
LINE
  5
114
330
17
100
AcDbEntity
  8
0
100
AcDbLine
 10
16.05131670194949
 20
70.68377223398316
 30
0.0
 11
9.316227771930967
 21
68.43874259064366
 31
0.0
  0
ARC
  5
115
330
17
100
AcDbEntity
  8
0
100
AcDbCircle
 10
15.735088935932652
 20
71.63245553203366
 30
0.0
 40
1.0
100
AcDbArc
 50
-71.56505117707795
 51
18.434948822922006
  0
LINE
  5
116
330
17
100
AcDbEntity
  8
0
100
AcDbLine
 10
15.343676198987824
 20
75.96897140303652
 30
0.0
 11
16.683772233983166
 21
71.9486832980505
 31
0.0
  0
ARC
  5
117
330
17
100
AcDbEntity
  8
0
100
AcDbCircle
 10
14.39499290093731
 20
75.65274363701968
 30
0.0
 40
1.0
100
AcDbArc
 50
18.434948822922006
 51
113.19859051364818
  0
LINE
  5
118
330
17
100
AcDbEntity
  8
0
100
AcDbLine
 10
8.606080717679742
 20
74.2597488790056
 30
0.0
 11
14.001073595230029
 21
76.57188868367001
 31
0.0
  0
ARC
  5
119
330
17
100
AcDbEntity
  8
0
100
AcDbCircle
 10
9.0
 20
73.34060388692501
 30
0.0
 40
1.0
100
AcDbArc
 50
113.19859051364823
 51
180.0
  0
LINE
  5
11A
330
17
100
AcDbEntity
  8
0
100
AcDbLine
 10
8.0
 20
69.38742590643656
 30
0.0
 11
8.0
 21
73.34060388692501
 31
0.0
  0
ARC
  5
11B
330
17
100
AcDbEntity
  8
0
100
AcDbCircle
 10
9.0
 20
69.38742590643656
 30
0.0
 40
1.0
100
AcDbArc
 50
-180.0
 51
-71.56505117707799
  0
CIRCLE
  5
11C
330
17
100
AcDbEntity
  8
0
100
AcDbCircle
 10
19.25
 20
108.75
 30
0.0
 40
1.6
  0
CIRCLE
  5
11D
330
17
100
AcDbEntity
  8
0
100
AcDbCircle
 10
27.0
 20
91.0
 30
0.0
 40
2.5
  0
ENDSEC
  0
SECTION
  2
OBJECTS
  0
DICTIONARY
  5
A
330
0
100
AcDbDictionary
281
1
  3
ACAD_COLOR
350
B
  3
ACAD_GROUP
350
C
  3
ACAD_LAYOUT
350
D
  3
ACAD_MATERIAL
350
E
  3
ACAD_MLEADERSTYLE
350
F
  3
ACAD_MLINESTYLE
350
10
  3
ACAD_PLOTSETTINGS
350
11
  3
ACAD_PLOTSTYLENAME
350
12
  3
ACAD_SCALELIST
350
14
  3
ACAD_TABLESTYLE
350
15
  3
ACAD_VISUALSTYLE
350
16
  3
EZDXF_META
350
2D
  0
DICTIONARY
  5
B
330
A
100
AcDbDictionary
281
1
  0
DICTIONARY
  5
C
330
A
100
AcDbDictionary
281
1
  0
DICTIONARY
  5
D
330
A
100
AcDbDictionary
281
1
  3
Model
350
1A
  3
Layout1
350
1E
  0
DICTIONARY
  5
E
330
A
100
AcDbDictionary
281
1
  3
ByBlock
350
1F
  3
ByLayer
350
20
  3
Global
350
21
  0
DICTIONARY
  5
F
330
A
100
AcDbDictionary
281
1
  3
Standard
350
2C
  0
DICTIONARY
  5
10
330
A
100
AcDbDictionary
281
1
  3
Standard
350
22
  0
DICTIONARY
  5
11
330
A
100
AcDbDictionary
281
1
  0
ACDBDICTIONARYWDFLT
  5
12
330
A
100
AcDbDictionary
281
1
  3
Normal
350
13
100
AcDbDictionaryWithDefault
340
13
  0
ACDBPLACEHOLDER
  5
13
330
12
  0
DICTIONARY
  5
14
330
A
100
AcDbDictionary
281
1
  0
DICTIONARY
  5
15
330
A
100
AcDbDictionary
281
1
  0
DICTIONARY
  5
16
330
A
100
AcDbDictionary
281
1
  0
LAYOUT
  5
1A
330
D
100
AcDbPlotSettings
  1

  4
A3
  6

 40
7.5
 41
20.0
 42
7.5
 43
20.0
 44
420.0
 45
297.0
 46
0.0
 47
0.0
 48
0.0
 49
0.0
140
0.0
141
0.0
142
1.0
143
1.0
 70
1024
 72
1
 73
0
 74
5
  7

 75
16
 76
0
 77
2
 78
300
147
1.0
148
0.0
149
0.0
100
AcDbLayout
  1
Model
 70
1
 71
0
 10
0.0
 20
0.0
 11
420.0
 21
297.0
 12
0.0
 22
0.0
 32
0.0
 14
1e+20
 24
1e+20
 34
1e+20
 15
-1e+20
 25
-1e+20
 35
-1e+20
146
0.0
 13
0.0
 23
0.0
 33
0.0
 16
1.0
 26
0.0
 36
0.0
 17
0.0
 27
1.0
 37
0.0
 76
1
330
17
  0
LAYOUT
  5
1E
330
D
100
AcDbPlotSettings
  1

  4
A3
  6

 40
7.5
 41
20.0
 42
7.5
 43
20.0
 44
420.0
 45
297.0
 46
0.0
 47
0.0
 48
0.0
 49
0.0
140
0.0
141
0.0
142
1.0
143
1.0
 70
0
 72
1
 73
0
 74
5
  7

 75
16
 76
0
 77
2
 78
300
147
1.0
148
0.0
149
0.0
100
AcDbLayout
  1
Layout1
 70
1
 71
1
 10
0.0
 20
0.0
 11
420.0
 21
297.0
 12
0.0
 22
0.0
 32
0.0
 14
1e+20
 24
1e+20
 34
1e+20
 15
-1e+20
 25
-1e+20
 35
-1e+20
146
0.0
 13
0.0
 23
0.0
 33
0.0
 16
1.0
 26
0.0
 36
0.0
 17
0.0
 27
1.0
 37
0.0
 76
1
330
1B
  0
MATERIAL
  5
1F
102
{ACAD_REACTORS
330
E
102
}
330
E
100
AcDbMaterial
  1
ByBlock
  2

 70
0
 40
1.0
 71
1
 41
1.0
 91
-1023410177
 42
1.0
 72
1
  3

 73
1
 74
1
 75
1
 44
0.5
 73
0
 45
1.0
 46
1.0
 77
1
  4

 78
1
 79
1
170
1
 48
1.0
171
1
  6

172
1
173
1
174
1
140
1.0
141
1.0
175
1
  7

176
1
177
1
178
1
143
1.0
179
1
  8

270
1
271
1
272
1
145
1.0
146
1.0
273
1
  9

274
1
275
1
276
1
 42
1.0
 72
1
  3

 73
1
 74
1
 75
1
 94
63
  0
MATERIAL
  5
20
102
{ACAD_REACTORS
330
E
102
}
330
E
100
AcDbMaterial
  1
ByLayer
  2

 70
0
 40
1.0
 71
1
 41
1.0
 91
-1023410177
 42
1.0
 72
1
  3

 73
1
 74
1
 75
1
 44
0.5
 73
0
 45
1.0
 46
1.0
 77
1
  4

 78
1
 79
1
170
1
 48
1.0
171
1
  6

172
1
173
1
174
1
140
1.0
141
1.0
175
1
  7

176
1
177
1
178
1
143
1.0
179
1
  8

270
1
271
1
272
1
145
1.0
146
1.0
273
1
  9

274
1
275
1
276
1
 42
1.0
 72
1
  3

 73
1
 74
1
 75
1
 94
63
  0
MATERIAL
  5
21
102
{ACAD_REACTORS
330
E
102
}
330
E
100
AcDbMaterial
  1
Global
  2

 70
0
 40
1.0
 71
1
 41
1.0
 91
-1023410177
 42
1.0
 72
1
  3

 73
1
 74
1
 75
1
 44
0.5
 73
0
 45
1.0
 46
1.0
 77
1
  4

 78
1
 79
1
170
1
 48
1.0
171
1
  6

172
1
173
1
174
1
140
1.0
141
1.0
175
1
  7

176
1
177
1
178
1
143
1.0
179
1
  8

270
1
271
1
272
1
145
1.0
146
1.0
273
1
  9

274
1
275
1
276
1
 42
1.0
 72
1
  3

 73
1
 74
1
 75
1
 94
63
  0
MLINESTYLE
  5
22
102
{ACAD_REACTORS
330
10
102
}
330
10
100
AcDbMlineStyle
  2
Standard
 70
0
  3

 62
256
 51
90.0
 52
90.0
 71
2
 49
0.5
 62
256
  6
BYLAYER
 49
-0.5
 62
256
  6
BYLAYER
  0
MLEADERSTYLE
  5
2C
102
{ACAD_REACTORS
330
F
102
}
330
F
100
AcDbMLeaderStyle
179
2
170
2
171
1
172
0
 90
2
 40
0.0
 41
0.0
173
1
 91
-1056964608
 92
-2
290
1
 42
2.0
291
1
 43
8.0
  3
Standard
 44
4.0
300

342
29
174
1
175
1
176
0
178
1
 93
-1056964608
 45
4.0
292
0
297
0
 46
4.0
 94
-1056964608
 47
1.0
 49
1.0
140
1.0
294
1
141
0.0
177
0
142
1.0
295
0
296
0
143
3.75
271
0
272
9
273
9
  0
DICTIONARY
  5
2D
330
A
100
AcDbDictionary
280
1
281
1
  3
CREATED_BY_EZDXF
350
2E
  3
WRITTEN_BY_EZDXF
350
121
  0
DICTIONARYVAR
  5
2E
330
2D
100
DictionaryVariables
280
0
  1
1.4.4 @ 2026-09-13T13:30:17.767938+00:00
  0
DICTIONARYVAR
  5
121
330
2D
100
DictionaryVariables
280
0
  1
1.4.4 @ 2026-09-13T13:30:17.786897+00:00
  0
ENDSEC
  0
EOF
